<svg id="Layer_1" data-name="Layer 1" xmlns="http://www.w3.org/2000/svg" xmlns:xlink="http://www.w3.org/1999/xlink" viewBox="0 0 243.45 120.97"><defs><style>.cls-1{fill:url(#linear-gradient);}.cls-2{fill:url(#linear-gradient-2);}.cls-3{fill:url(#linear-gradient-3);}.cls-4{fill:url(#linear-gradient-4);}.cls-5{fill:url(#linear-gradient-8);}.cls-6{fill:#2a0f6b;}.cls-7{fill:#fff;}.cls-8{fill:#f90083;}</style><linearGradient id="linear-gradient" x1="121.72" y1="120.97" x2="121.72" gradientUnits="userSpaceOnUse"><stop offset="0" stop-color="#05dddd"/><stop offset="0.13" stop-color="#05dddd"/><stop offset="0.47" stop-color="#f90083"/><stop offset="0.75" stop-color="#5100cd"/><stop offset="0.84" stop-color="#2a0f6b"/></linearGradient><linearGradient id="linear-gradient-2" x1="121.72" y1="82.2" x2="121.72" y2="18.67" gradientUnits="userSpaceOnUse"><stop offset="0" stop-color="#f90083"/><stop offset="0.43" stop-color="#ff5b00"/><stop offset="0.68" stop-color="#fb0"/><stop offset="0.75" stop-color="#fff"/><stop offset="0.84" stop-color="#ffd400"/></linearGradient><linearGradient id="linear-gradient-3" x1="121.72" y1="82.2" x2="121.72" y2="18.67" xlink:href="#linear-gradient-2"/><linearGradient id="linear-gradient-4" x1="121.72" y1="82.2" x2="121.72" y2="18.67" xlink:href="#linear-gradient-2"/><linearGradient id="linear-gradient-8" x1="121.72" y1="82.2" x2="121.72" y2="18.67" xlink:href="#linear-gradient-2"/></defs><rect class="cls-1" width="243.45" height="120.97"/><path class="cls-2" d="M121.72,96.26a35.68,35.68,0,0,0,26.85-12.14H94.87A35.71,35.71,0,0,0,121.72,96.26Z"/><path class="cls-3" d="M157.27,56.43H86.18A36.29,36.29,0,0,0,86,60.49c0,.45,0,.91,0,1.36h71.49c0-.45,0-.91,0-1.36A36.29,36.29,0,0,0,157.27,56.43Z"/><path class="cls-4" d="M88.74,74.34h66a34.59,34.59,0,0,0,1.61-4.76H87.12A34.62,34.62,0,0,0,88.74,74.34Z"/><path class="cls-3" d="M86.85,68.48H156.6a36,36,0,0,0,.81-5.52H86A36,36,0,0,0,86.85,68.48Z"/><path class="cls-4" d="M121.72,24.72A35.7,35.7,0,0,0,94.45,37.34H149A35.69,35.69,0,0,0,121.72,24.72Z"/><path class="cls-4" d="M149.9,38.45H93.55a35.45,35.45,0,0,0-5.09,8.87H155A35.45,35.45,0,0,0,149.9,38.45Z"/><path class="cls-5" d="M91.24,79.22h61a34.93,34.93,0,0,0,2-3.77h-65A36.71,36.71,0,0,0,91.24,79.22Z"/><path class="cls-4" d="M93.94,83h55.57c.7-.86,1.36-1.76,2-2.69H92A32.65,32.65,0,0,0,93.94,83Z"/><path class="cls-4" d="M155.41,48.43H88a35.73,35.73,0,0,0-1.72,6.9h70.8A35,35,0,0,0,155.41,48.43Z"/><polygon class="cls-6" points="0.14 118.34 8.56 118.34 8.56 95 10.25 95 10.25 83.41 20.38 87.21 20.73 90.39 22.36 90.34 22.36 87.26 33.08 83.41 33.08 90.19 33.08 94.95 34.7 95.1 34.7 101.47 38.58 101.47 38.58 96.4 60.09 96.4 60.09 105.67 62.98 105.62 62.98 83.97 64.25 83.97 64.25 80.22 65.23 80.22 65.59 78.81 66.86 78.81 66.86 77.34 70.24 77.34 70.24 78.76 71.51 78.76 71.51 80.07 73.06 80.07 73.06 83.77 74.33 83.77 74.33 100.97 80.04 98.79 83.15 99.91 83.15 83.87 92.25 83.87 92.25 81.59 91.61 81.69 91.47 80.68 98.45 80.68 98.45 81.34 97.6 81.79 97.67 83.97 103.18 83.97 103.18 97.07 105.01 97.12 107.13 96.06 107.83 93.89 107.83 87.16 107.83 85.84 110.65 85.79 110.65 81.64 110.23 80.48 111.14 79.42 112.41 78.91 112.7 77.34 113.21 77.19 113.21 75.06 113.83 75.06 113.83 77.22 114.53 77.46 114.53 78.88 115.75 79.28 116.41 79.99 116.88 80.97 116.88 81.64 116.41 81.64 116.41 85.76 119.37 85.79 119.37 86.97 119.09 87.51 119.14 94.02 119.75 94.19 119.75 95.13 120.31 95.4 120.31 96.08 122.24 97.16 124.69 97.26 124.69 82.15 128.68 82.28 128.68 80.33 128.26 80.29 128.16 79.95 127.22 79.89 126.24 79.69 124.92 79.45 124.31 79.25 127.88 79.25 127.83 78.37 140.76 78.27 140.76 79.14 144.43 79.25 142.97 79.69 141.05 80.02 140.25 80.26 139.73 80.36 139.73 82.11 144.2 82.15 144.1 90.85 151.63 90.82 151.63 87 151.11 87 151.25 86.47 150.78 86.4 150.78 86.06 151.63 86.06 151.63 85.28 151.01 85.28 150.92 84.85 169.16 84.95 169.16 85.28 168.74 85.35 168.79 86.06 169.73 86.19 169.73 86.57 169.07 86.6 169.16 87 168.65 87.04 168.74 109.33 171 109.37 171 103.6 170.29 102.79 177.48 102.86 177.48 92.47 183.78 92.57 183.78 84.17 185.34 84.24 185.34 80.5 184.58 80.46 184.54 79.55 185.34 79.52 185.34 78.57 197.04 78.64 197.04 84.1 198.31 84.07 198.31 108.22 201.93 108.29 201.93 104.92 201.23 104.21 206.07 104.17 206.07 95.94 216.27 95.98 216.27 104.04 216.88 104.14 216.88 104.51 216.32 104.58 216.22 106.67 223.28 106.67 223.28 87.65 236.3 87.54 236.3 118.68 243.45 118.68 243.45 120.97 0 120.97 0.14 118.34"/><circle class="cls-7" cx="24.3" cy="48.11" r="0.53"/><circle class="cls-8" cx="24.16" cy="48.05" r="0.53"/><circle class="cls-7" cx="49.91" cy="64.7" r="0.53"/><circle class="cls-8" cx="49.77" cy="64.64" r="0.53"/><circle class="cls-7" cx="71.2" cy="30.84" r="0.53"/><circle class="cls-8" cx="71.06" cy="30.78" r="0.53"/><circle class="cls-7" cx="21.58" cy="18.18" r="0.53"/><circle class="cls-8" cx="21.43" cy="18.13" r="0.53"/><circle class="cls-7" cx="108.42" cy="12.34" r="0.53"/><circle class="cls-8" cx="108.27" cy="12.28" r="0.53"/><circle class="cls-7" cx="56.32" cy="34.73" r="0.53"/><circle class="cls-8" cx="56.17" cy="34.68" r="0.53"/><circle class="cls-7" cx="220.2" cy="60.84" r="0.53"/><circle class="cls-8" cx="220.06" cy="60.78" r="0.53"/><circle class="cls-7" cx="46.37" cy="12.31" r="0.53"/><circle class="cls-8" cx="46.23" cy="12.26" r="0.53"/><circle class="cls-7" cx="222.2" cy="35.84" r="0.53"/><circle class="cls-8" cx="222.06" cy="35.78" r="0.53"/><circle class="cls-7" cx="180.2" cy="48.84" r="0.53"/><circle class="cls-8" cx="180.06" cy="48.78" r="0.53"/><circle class="cls-7" cx="149.52" cy="34.18" r="0.53"/><circle class="cls-8" cx="149.38" cy="34.12" r="0.53"/><circle class="cls-7" cx="173.51" cy="18.21" r="0.53"/><circle class="cls-8" cx="173.36" cy="18.16" r="0.53"/><circle class="cls-7" cx="198.2" cy="43.84" r="0.53"/><circle class="cls-8" cx="198.06" cy="43.78" r="0.53"/><circle class="cls-7" cx="169.2" cy="65.84" r="0.53"/><circle class="cls-8" cx="169.06" cy="65.78" r="0.53"/><circle class="cls-7" cx="68.2" cy="67.84" r="0.53"/><circle class="cls-8" cx="68.06" cy="67.78" r="0.53"/></svg>