<svg id="Layer_1" data-name="Layer 1" xmlns="http://www.w3.org/2000/svg" viewBox="0 0 41 42"><defs><style>.cls-1{fill:#00aeef;}</style></defs><path class="cls-1" d="M37.64,1H3.35A2.87,2.87,0,0,0,.5,3.88V38.12A2.87,2.87,0,0,0,3.35,41H37.64a2.88,2.88,0,0,0,2.86-2.88V3.88A2.88,2.88,0,0,0,37.64,1Zm-25,34.29H6.66V16.2H12.6V35.29Zm-3-21.7a3.44,3.44,0,1,1,3.44-3.44A3.44,3.44,0,0,1,9.62,13.59Zm25.19,21.7H28.88V26c0-2.21,0-5.06-3.08-5.06s-3.56,2.41-3.56,4.9v9.45H16.31V16.2H22v2.6h.08a6.24,6.24,0,0,1,5.62-3.08c6,0,7.11,4,7.11,9.1Z"/></svg>