<svg id="Layer_1" data-name="Layer 1" xmlns="http://www.w3.org/2000/svg" viewBox="0 0 262 164"><defs><style>.cls-1{fill:#fff;}</style></defs><path class="cls-1" d="M130.06,33.09c.54-7.34-3.47-14.15-9.16-18.51-6.65-5.11-15.29-6.33-23.43-5.26a56.92,56.92,0,0,0-24,9,41.25,41.25,0,0,0-4.71,3.73,18.51,18.51,0,0,0-3.86,4.47c-2.08,3.85.42,7.74,2.85,10.74A48.31,48.31,0,0,0,77,45.57c3.6,2.62,7.25,5.17,10.81,7.85a242.79,242.79,0,0,1,21.42,17.92c12.05,11.41,25.83,26.48,23,44.53-1.35,8.48-6.91,14.88-13.82,19.6a98.91,98.91,0,0,1-22.7,11.15,117.68,117.68,0,0,1-50.42,6.12,103.1,103.1,0,0,1-24.91-5.34c-3.83-1.38-8.24-4-8.65-8.49-.37-4.2,4-7.87,6.94-10.28,6.42-5.29,14.38-9,22.21-11.67a90,90,0,0,1,72.36,6.39c14.49,8,27.1,19,41.77,26.71a89.82,89.82,0,0,0,10.89,4.85c1.27.46,1.82-1.57.55-2-15.85-5.79-29-16.72-43-25.81a112.19,112.19,0,0,0-22.08-11.5A90.25,90.25,0,0,0,77,110.34a91.76,91.76,0,0,0-48.34,9.48A65.09,65.09,0,0,0,18,126.49c-3.1,2.43-6.74,5.6-8,9.45-1.2,3.63.58,7.56,3.34,9.95,3.22,2.78,7.51,4,11.52,5.12a118.28,118.28,0,0,0,50.7,2.88,117.35,117.35,0,0,0,24.87-6.81c7.65-3,15.31-6.76,21.84-11.84s11.15-11.81,12.17-20.13c1-8.53-1.55-17.08-5.87-24.39-4.48-7.56-10.66-14-17-20.08a243.18,243.18,0,0,0-21.2-17.93c-3.65-2.77-7.37-5.43-11.1-8.1a52,52,0,0,1-9.66-8.34c-1.37-1.62-2.9-3.59-3.35-5.71-.51-2.41,1.22-4.27,2.78-5.86a39.8,39.8,0,0,1,10.26-7.38c14.2-7.35,36.49-10.88,46.14,5.36A17.72,17.72,0,0,1,128,33.09c-.09,1.34,2,1.34,2.1,0Z"/><path class="cls-1" d="M141.59,135.21a31.72,31.72,0,0,0,7-14.75c1.15-5.65,1.68-11.39,3.34-16.93l-2-.56a193.52,193.52,0,0,0-3.73,24.42c-.15,1.76-.26,3.48.93,4.94a3.42,3.42,0,0,0,3.22,1.23c2.76-.35,5.52-2.15,7.54-4a17.81,17.81,0,0,0,4.85-7.47c.39-1.15,1.13-3.06.34-4.19-.66-1-2-.84-3-.57-5,1.41-8.44,11-2.49,13.42,2.77,1.14,6.44-.43,8.26-2.62,2-2.44,2.47-5.75,3-8.76h-2a58,58,0,0,1,0,18.12h2a28.65,28.65,0,0,1-1-10.3,36,36,0,0,1,.8-5.16,11.26,11.26,0,0,1,.67-2.5,2,2,0,0,1,1.52-.9c1.74-.2,4.53,2.41,3.9,4.21-.78,2.24-4.14,3.29-6.2,3.74a1.06,1.06,0,0,0,0,2c4.89,1.37,10.12-1.51,12.47-5.84,2.8-5.16,2.76-11.56,1.86-17.19a1.06,1.06,0,0,0-1.92-.26c-3.73,7.66-2.43,16.3-3.27,24.51h2.1a10.45,10.45,0,0,1,.33-4.91c.25-.68,2-3.9,2.84-3.49s.38,3.59.42,4.33c.06,1-.05,2.41.54,3.26,1.56,2.28,4.83-2.87,5.63-3.76,2.42-2.66,5.25-4.56,9-4.26v-2.1c-3.08.24-6.44,1.15-8.44,3.7a7.11,7.11,0,0,0-1.71,3.55,3.09,3.09,0,0,0,1.86,3.13,5.73,5.73,0,0,0,5.95-1.85c1.73-2.05,2.38-4.76,3.32-7.21l-2.06-.28a38.44,38.44,0,0,0,.22,5.26c.13,1.26,0,3.25,1.54,3.69,2.17.63,2.72-1.74,3.39-3.2l1.47-3.25a11.44,11.44,0,0,1,.74-1.63c1.13-1.7,1.32,2.13,1.31,2.62a34.8,34.8,0,0,0-.06,4.21c.12,1.09,1.77,1.53,2.06.28a35,35,0,0,1,3.24-8.44l-1.92-.25,1,4a22.66,22.66,0,0,0,1,4.24c1.15,2.43,4.26,1.86,5.41-.26,1.3-2.42,1.11-5.56,1.8-8.18l-2.06-.28c-.28,2.36-1,4.73-.9,7.12a3.3,3.3,0,0,0,3.72,3.73c4.56.53,9.6-4.23,9.65-8.79,0-2.15-1.93-3.19-3.91-2.73-2.27.53-3.72,3.32-3.43,5.52.37,2.77,3,5.26,5.46,6.27s5.8.64,8.52.36a25.58,25.58,0,0,0,5.54-1.19c2.6-.86,4.07-2.47,5.44-4.8a1,1,0,0,0-1.81-1.06,7.71,7.71,0,0,1-3.18,3.45,18.57,18.57,0,0,1-3.67,1.13,25.43,25.43,0,0,1-4.26.52c-2.08.12-4.42.42-6.34-.6S223.2,124.33,224,122a2.84,2.84,0,0,1,1.66-1.92,2.21,2.21,0,0,1,1.28.14c.46.59-.42,2.41-.69,3a7.12,7.12,0,0,1-1.55,2.13,6.82,6.82,0,0,1-4.42,2.17c-.56,0-1.79,0-2.18-.45s-.26-1.89-.21-2.51c.16-2,.61-3.88.85-5.83.14-1.19-1.77-1.39-2.07-.28-.58,2.22-.64,4.54-1.25,6.74-.17.62-.75,2.21-1.73,1.75-.48-.23-.49-1.17-.61-1.69-.49-2.19-1-4.38-1.56-6.57a1.06,1.06,0,0,0-1.92-.25,36.38,36.38,0,0,0-3.45,8.94l2.06.28c-.29-2.53.85-5.77-.65-8s-3.88-1.22-4.87.94l-2.61,5.76a4.66,4.66,0,0,0-.34.76l0,0c.33,0,.42-.2.28-.47a6.89,6.89,0,0,0-.18-1.41,38.44,38.44,0,0,1-.22-5.26c0-1.26-1.66-1.32-2.06-.28-1.07,2.79-1.9,7.46-5.56,7.71-.9.06-1.64-.23-1.4-1.32a6.35,6.35,0,0,1,1.56-2.56c1.63-1.7,4.17-2.31,6.44-2.49a1.05,1.05,0,0,0,0-2.1,11.38,11.38,0,0,0-8.25,2.76,24.18,24.18,0,0,0-3.31,3.4c-.43.52-.82,1.08-1.28,1.57-.17.18-.35.35-.53.52s-.8.4-.24.36l.75.31c.17.13-.05-.08,0-.24a3.27,3.27,0,0,0-.07-.62l-.06-1c-.06-1,.07-2.08,0-3.11-.09-1.72-1.1-4.07-3.22-3.58-1.69.39-3.2,2.8-3.87,4.27a11.66,11.66,0,0,0-.73,6.27,1.05,1.05,0,0,0,2.1,0c.8-7.77-.55-16.19,3-23.45l-1.92-.25c.8,5,.74,10.29-1.34,15-1.71,3.85-6.18,6.67-10.4,5.49v2c2.45-.55,5.2-1.65,6.81-3.67s1.11-4.19-.47-6-4-2.93-6.41-1.85c-1.51.67-1.75,1.83-2.14,3.34a40.5,40.5,0,0,0-1,5.23,31,31,0,0,0,.9,12.39c.27.92,1.86,1.08,2,0a60.81,60.81,0,0,0,0-19.23,1.05,1.05,0,0,0-2,0c-.79,4-1.37,8.75-6,10-2.84.77-4.73-1.31-4.21-4.14A7.2,7.2,0,0,1,160,119.6a2.75,2.75,0,0,1,1.23-.36c.76.07,0,0,.05,0a2.51,2.51,0,0,1-.18.88,14.23,14.23,0,0,1-1.19,3.29,15.93,15.93,0,0,1-4.34,5.34c-1.48,1.18-3.7,2.64-5.65,2.73-1.42.07-1.77-1.54-1.75-2.66,0-1.62.28-3.26.45-4.87a191,191,0,0,1,3.32-20.45,1,1,0,0,0-2-.56c-1.6,5.32-2.17,10.81-3.21,16.25a30.12,30.12,0,0,1-6.6,14.51c-.88,1,.6,2.51,1.49,1.48Z"/><path class="cls-1" d="M124.43,108.37a275.92,275.92,0,0,0,57.83,3.74c17.12-.7,34-3,51-5.3,4.33-.58,8.64-1.34,12.95-2,1.34-.21.77-2.24-.55-2-10.42,1.65-20.13,3.09-30.72,4.41-18.87,2.36-37.89,3.68-56.91,2.8A271.71,271.71,0,0,1,125,106.34c-1.32-.23-1.89,1.8-.55,2Z"/><path class="cls-1" d="M217.06,111.9c-.53.51-1,1.08-1.52,1.58a1.05,1.05,0,0,0,0,1.49,1.08,1.08,0,0,0,.74.31A1.15,1.15,0,0,0,217,115c.52-.51,1-1.08,1.51-1.59a1,1,0,0,0,0-1.48,1,1,0,0,0-.74-.31,1.08,1.08,0,0,0-.74.31Z"/></svg>