<svg id="Layer_1" data-name="Layer 1" xmlns="http://www.w3.org/2000/svg" viewBox="0 0 109 46"><defs><style>.cls-1{fill:#fff;}.cls-2{fill:#05dddd;}.cls-3{fill:#fdf517;}</style></defs><path class="cls-1" d="M4.37,5.53a.53.53,0,0,1-.53.53A.53.53,0,1,1,3.84,5,.53.53,0,0,1,4.37,5.53Z"/><path class="cls-1" d="M4.45,10.72a.61.61,0,1,1-.61-.6A.61.61,0,0,1,4.45,10.72Z"/><path class="cls-1" d="M4.52,15.92a.68.68,0,1,1-.68-.68A.67.67,0,0,1,4.52,15.92Z"/><circle class="cls-1" cx="3.84" cy="21.11" r="0.75"/><path class="cls-1" d="M4.67,26.3A.83.83,0,0,1,3,26.3a.83.83,0,0,1,1.65,0Z"/><path class="cls-1" d="M4.74,31.49a.9.9,0,1,1-.9-.89A.9.9,0,0,1,4.74,31.49Z"/><path class="cls-1" d="M4.81,36.68a1,1,0,0,1-1.94,0,1,1,0,0,1,1.94,0Z"/><path class="cls-1" d="M4.88,41.88a1,1,0,1,1-1-1.05A1,1,0,0,1,4.88,41.88Z"/><circle class="cls-1" cx="8.6" cy="21.11" r="0.75"/><path class="cls-1" d="M9.42,26.3a.82.82,0,1,1-.82-.82A.82.82,0,0,1,9.42,26.3Z"/><path class="cls-1" d="M9.5,31.49a.9.9,0,1,1-.9-.89A.9.9,0,0,1,9.5,31.49Z"/><path class="cls-1" d="M9.57,36.68a1,1,0,1,1-1-1A1,1,0,0,1,9.57,36.68Z"/><path class="cls-1" d="M9.64,41.88a1,1,0,1,1-1-1.05A1,1,0,0,1,9.64,41.88Z"/><path class="cls-1" d="M14.11,21.11a.75.75,0,0,1-1.5,0,.75.75,0,0,1,1.5,0Z"/><path class="cls-1" d="M14.18,26.3a.83.83,0,1,1-.82-.82A.82.82,0,0,1,14.18,26.3Z"/><path class="cls-1" d="M14.25,31.49a.9.9,0,1,1-.89-.89A.89.89,0,0,1,14.25,31.49Z"/><path class="cls-1" d="M14.33,36.68a1,1,0,1,1-1-1A1,1,0,0,1,14.33,36.68Z"/><path class="cls-1" d="M14.4,41.88a1,1,0,1,1-1-1.05A1,1,0,0,1,14.4,41.88Z"/><circle class="cls-1" cx="18.12" cy="21.11" r="0.75"/><path class="cls-1" d="M18.94,26.3a.83.83,0,1,1-.82-.82A.82.82,0,0,1,18.94,26.3Z"/><path class="cls-1" d="M19,31.49a.9.9,0,1,1-.89-.89A.89.89,0,0,1,19,31.49Z"/><path class="cls-1" d="M19.08,36.68a1,1,0,1,1-1-1A1,1,0,0,1,19.08,36.68Z"/><path class="cls-1" d="M19.16,41.88a1,1,0,1,1-1-1.05A1,1,0,0,1,19.16,41.88Z"/><circle class="cls-1" cx="22.87" cy="21.11" r="0.75"/><path class="cls-1" d="M23.7,26.3a.83.83,0,0,1-1.65,0,.83.83,0,0,1,1.65,0Z"/><path class="cls-1" d="M23.77,31.49a.9.9,0,1,1-.9-.89A.9.9,0,0,1,23.77,31.49Z"/><path class="cls-1" d="M23.84,36.68a1,1,0,0,1-1.94,0,1,1,0,0,1,1.94,0Z"/><path class="cls-1" d="M23.91,41.88a1,1,0,1,1-1-1.05A1,1,0,0,1,23.91,41.88Z"/><path class="cls-1" d="M28.6,36.68a1,1,0,0,1-1.94,0,1,1,0,0,1,1.94,0Z"/><path class="cls-1" d="M28.67,41.88a1,1,0,1,1-1-1.05A1,1,0,0,1,28.67,41.88Z"/><path class="cls-1" d="M33.36,36.68a1,1,0,1,1-1-1A1,1,0,0,1,33.36,36.68Z"/><circle class="cls-1" cx="32.39" cy="41.88" r="1.04"/><path class="cls-1" d="M38.11,36.68a1,1,0,1,1-1-1A1,1,0,0,1,38.11,36.68Z"/><path class="cls-1" d="M38.19,41.88a1,1,0,1,1-1-1.05A1,1,0,0,1,38.19,41.88Z"/><path class="cls-1" d="M42.87,36.68a1,1,0,0,1-1.94,0,1,1,0,0,1,1.94,0Z"/><path class="cls-1" d="M42.94,41.88a1,1,0,1,1-1-1.05A1,1,0,0,1,42.94,41.88Z"/><path class="cls-1" d="M47.63,36.68a1,1,0,0,1-1.94,0,1,1,0,1,1,1.94,0Z"/><path class="cls-1" d="M47.7,41.88a1,1,0,1,1-1-1.05A1,1,0,0,1,47.7,41.88Z"/><path class="cls-1" d="M52.39,36.68a1,1,0,1,1-1-1A1,1,0,0,1,52.39,36.68Z"/><circle class="cls-1" cx="51.42" cy="41.88" r="1.04"/><path class="cls-1" d="M57.14,36.68a1,1,0,1,1-1-1A1,1,0,0,1,57.14,36.68Z"/><path class="cls-1" d="M57.22,41.88a1,1,0,1,1-1-1.05A1,1,0,0,1,57.22,41.88Z"/><path class="cls-1" d="M61.46,5.53a.53.53,0,0,1-.53.53.53.53,0,0,1,0-1.06A.53.53,0,0,1,61.46,5.53Z"/><path class="cls-1" d="M61.54,10.72a.61.61,0,1,1-.61-.6A.61.61,0,0,1,61.54,10.72Z"/><path class="cls-1" d="M61.9,36.68a1,1,0,0,1-1.94,0,1,1,0,0,1,1.94,0Z"/><path class="cls-1" d="M62,41.88a1,1,0,1,1-1-1.05A1,1,0,0,1,62,41.88Z"/><path class="cls-1" d="M66.22,5.53A.53.53,0,1,1,65.69,5,.53.53,0,0,1,66.22,5.53Z"/><path class="cls-1" d="M66.29,10.72a.6.6,0,1,1-.6-.6A.6.6,0,0,1,66.29,10.72Z"/><path class="cls-1" d="M66.66,36.68a1,1,0,1,1-1.94,0,1,1,0,0,1,1.94,0Z"/><path class="cls-1" d="M66.73,41.88a1,1,0,1,1-1-1.05A1,1,0,0,1,66.73,41.88Z"/><path class="cls-1" d="M71,5.53a.53.53,0,0,1-.53.53.53.53,0,0,1,0-1.06A.53.53,0,0,1,71,5.53Z"/><path class="cls-1" d="M71.05,10.72a.61.61,0,1,1-.6-.6A.6.6,0,0,1,71.05,10.72Z"/><path class="cls-1" d="M71.42,36.68a1,1,0,1,1-1-1A1,1,0,0,1,71.42,36.68Z"/><path class="cls-1" d="M71.49,41.88a1,1,0,1,1-1-1.05A1,1,0,0,1,71.49,41.88Z"/><path class="cls-1" d="M75.74,5.53A.54.54,0,1,1,75.21,5,.53.53,0,0,1,75.74,5.53Z"/><path class="cls-1" d="M75.81,10.72a.61.61,0,1,1-.6-.6A.6.6,0,0,1,75.81,10.72Z"/><path class="cls-1" d="M76.17,36.68a1,1,0,1,1-1-1A1,1,0,0,1,76.17,36.68Z"/><path class="cls-1" d="M76.25,41.88a1,1,0,1,1-1-1.05A1,1,0,0,1,76.25,41.88Z"/><path class="cls-1" d="M80.49,5.53a.53.53,0,0,1-.53.53A.53.53,0,0,1,80,5,.53.53,0,0,1,80.49,5.53Z"/><path class="cls-1" d="M80.57,10.72a.61.61,0,1,1-.61-.6A.61.61,0,0,1,80.57,10.72Z"/><path class="cls-1" d="M80.93,36.68a1,1,0,0,1-1.94,0,1,1,0,0,1,1.94,0Z"/><path class="cls-1" d="M81,41.88A1,1,0,1,1,80,40.83,1,1,0,0,1,81,41.88Z"/><path class="cls-1" d="M85.25,5.53A.53.53,0,1,1,84.72,5,.53.53,0,0,1,85.25,5.53Z"/><path class="cls-1" d="M85.32,10.72a.6.6,0,1,1-.6-.6A.6.6,0,0,1,85.32,10.72Z"/><path class="cls-1" d="M85.4,15.92a.68.68,0,1,1-.68-.68A.68.68,0,0,1,85.4,15.92Z"/><path class="cls-1" d="M85.47,21.11a.75.75,0,1,1-.75-.75A.76.76,0,0,1,85.47,21.11Z"/><path class="cls-1" d="M85.54,26.3a.82.82,0,1,1-.82-.82A.82.82,0,0,1,85.54,26.3Z"/><path class="cls-1" d="M85.62,31.49a.9.9,0,1,1-.9-.89A.9.9,0,0,1,85.62,31.49Z"/><path class="cls-1" d="M85.69,36.68a1,1,0,1,1-1.94,0,1,1,0,0,1,1.94,0Z"/><path class="cls-1" d="M85.76,41.88a1,1,0,1,1-1-1.05A1,1,0,0,1,85.76,41.88Z"/><path class="cls-1" d="M90,5.53a.53.53,0,0,1-.53.53.53.53,0,0,1,0-1.06A.53.53,0,0,1,90,5.53Z"/><path class="cls-1" d="M90.08,10.72a.61.61,0,1,1-.6-.6A.6.6,0,0,1,90.08,10.72Z"/><path class="cls-1" d="M90.16,15.92a.68.68,0,1,1-.68-.68A.68.68,0,0,1,90.16,15.92Z"/><circle class="cls-1" cx="89.48" cy="21.11" r="0.75"/><path class="cls-1" d="M90.3,26.3a.82.82,0,1,1-.82-.82A.82.82,0,0,1,90.3,26.3Z"/><path class="cls-1" d="M90.37,31.49a.9.9,0,1,1-.89-.89A.89.89,0,0,1,90.37,31.49Z"/><path class="cls-1" d="M90.45,36.68a1,1,0,1,1-1-1A1,1,0,0,1,90.45,36.68Z"/><path class="cls-1" d="M90.52,41.88a1,1,0,1,1-1-1.05A1,1,0,0,1,90.52,41.88Z"/><path class="cls-1" d="M94.77,5.53A.54.54,0,1,1,94.24,5,.53.53,0,0,1,94.77,5.53Z"/><path class="cls-1" d="M94.84,10.72a.61.61,0,1,1-.6-.6A.6.6,0,0,1,94.84,10.72Z"/><path class="cls-1" d="M94.91,15.92a.68.68,0,1,1-.67-.68A.67.67,0,0,1,94.91,15.92Z"/><path class="cls-1" d="M95,21.11a.75.75,0,0,1-1.5,0,.75.75,0,0,1,1.5,0Z"/><path class="cls-1" d="M95.06,26.3a.83.83,0,1,1-.82-.82A.82.82,0,0,1,95.06,26.3Z"/><path class="cls-1" d="M95.13,31.49a.9.9,0,1,1-.89-.89A.89.89,0,0,1,95.13,31.49Z"/><path class="cls-1" d="M95.2,36.68a1,1,0,1,1-1-1A1,1,0,0,1,95.2,36.68Z"/><path class="cls-1" d="M95.28,41.88a1,1,0,1,1-1-1.05A1,1,0,0,1,95.28,41.88Z"/><path class="cls-1" d="M99.52,5.53a.53.53,0,0,1-.53.53A.53.53,0,0,1,99,5,.53.53,0,0,1,99.52,5.53Z"/><path class="cls-1" d="M99.6,10.72a.61.61,0,1,1-.61-.6A.61.61,0,0,1,99.6,10.72Z"/><path class="cls-1" d="M99.67,15.92a.68.68,0,1,1-.68-.68A.67.67,0,0,1,99.67,15.92Z"/><path class="cls-1" d="M99.74,21.11a.75.75,0,1,1-.75-.75A.75.75,0,0,1,99.74,21.11Z"/><path class="cls-1" d="M99.82,26.3a.83.83,0,1,1-.83-.82A.83.83,0,0,1,99.82,26.3Z"/><path class="cls-1" d="M99.89,31.49a.9.9,0,1,1-.9-.89A.9.9,0,0,1,99.89,31.49Z"/><path class="cls-1" d="M100,36.68a1,1,0,0,1-1.94,0,1,1,0,1,1,1.94,0Z"/><path class="cls-1" d="M100,41.88A1,1,0,1,1,99,40.83,1,1,0,0,1,100,41.88Z"/><path class="cls-1" d="M104.28,5.53a.53.53,0,1,1-.53-.53A.53.53,0,0,1,104.28,5.53Z"/><path class="cls-1" d="M104.35,10.72a.6.6,0,1,1-.6-.6A.6.6,0,0,1,104.35,10.72Z"/><path class="cls-1" d="M104.43,15.92a.68.68,0,1,1-.68-.68A.68.68,0,0,1,104.43,15.92Z"/><path class="cls-1" d="M104.5,21.11a.75.75,0,1,1-.75-.75A.76.76,0,0,1,104.5,21.11Z"/><path class="cls-1" d="M104.57,26.3a.82.82,0,1,1-.82-.82A.82.82,0,0,1,104.57,26.3Z"/><path class="cls-1" d="M104.65,31.49a.9.9,0,1,1-.9-.89A.9.9,0,0,1,104.65,31.49Z"/><path class="cls-1" d="M104.72,36.68a1,1,0,1,1-1.94,0,1,1,0,0,1,1.94,0Z"/><path class="cls-1" d="M104.79,41.88a1,1,0,1,1-1-1.05A1,1,0,0,1,104.79,41.88Z"/><path class="cls-2" d="M10.65,4l.39.18A1.94,1.94,0,0,1,12.24,6v.09A2,2,0,0,1,11,8l-.12,0v.06a10.77,10.77,0,0,1-1.26.48H9.57a.24.24,0,0,1-.12-.18H9.36v.09c.08,0,.11,0,.11.09a.53.53,0,0,1-.29.15l0,0v0l0,0-.06-.06c-.55.31-.82.61-.82.9H8.21l.06-.18,0,0V9.05h0l0,0c0,.24,0,.36-.1.36V9.5h0l0,0v.09l0,0-.1,0-.18-.09h0v.06l.27.09,0,.12H8l0-.09-.18.09.09.09q.21,0,.21.12h0l0-.09,0-.12V9.62h.06c0,.06,0,.09.05.09l-.05.36v.18H8.13V10H8.06v.21L8,10.28l.06.15h.07v-.06h.06l0,.3h0v-.24H8.3v0a1.58,1.58,0,0,0,1.51,1.08H9.9a1.56,1.56,0,0,0,1.47-1l.15-.58h.87l0,0a2.27,2.27,0,0,1-1.14,2h0l0,0h0v0l0,0v0a2.8,2.8,0,0,1-1.23.34l-.15,0-.15,0h0l-.06-.07,0,0h0c-.86-.11-1.3-.33-1.3-.65v-.93H8.19l0,.48v0l0,0,0,0v.13l0,0,0,0v.21l-.05.05h0v-.9h0l0,0,0,.31v.08l0,.36H8L8,11.57v-.48h0l0,.45h0A2.17,2.17,0,0,1,7.31,10V9.89l0,0h0A1.93,1.93,0,0,1,8,8.36s.06.06.06.18h0V8.39h.06v.12l0,.15,0,0,0,.24h0V8.3h0l0,0v0a5,5,0,0,1,2-.85h.06v0c.76-.29,1.14-.73,1.14-1.31l.3.08.06-.05A.33.33,0,0,0,11.43,6l-.09,0-.06-.27a1.38,1.38,0,0,0-1.38-1H9.78a1.39,1.39,0,0,0-1,.42l-.14,0v0l0,0v0l.09,0q0,.12-.06.12L8.37,6H8L7.79,6,7.64,6H7.55L7.49,6c0-.22,0-.32.09-.32h0l0,0V5.62q-.09,0-.09-.06l.09-.24a2.17,2.17,0,0,1,2.2-1.41ZM7.58,5.86v.06h.06V5.86Zm.21,0V5.9h0V5.83Zm0,5.26v.06h.06Zm0,.1v.11h0v-.11Zm.06-.67v.06a.46.46,0,0,1,.07.3H8v-.3Zm.42-5.8H8.16L8,4.84V4.9l.09,0,.12,0,0,0s.06-.06.18-.06v0ZM8.09,9.14l0,.21h0l0,0V9.14Zm0,1.32v.18h.07v-.18Zm.42-5.71v.06l.22,0v0Zm.22.12,0,.09h.06l0,0v0l0,0Zm.18,6.88v.06h0v-.06ZM9,6.94V7L9,7,9,7v0l0,0L8.94,7V6.92l0,0ZM8.94,8.12,9,8.18V8.12ZM9,7.31H9V7.16H9Zm0,4.81v0h.07v0ZM9,8l.07.06V8Zm0,.87H9V8.84h0ZM9.18,9h0V9h0Zm0-4.42h0l.07-.06V4.48S9.24,4.52,9.21,4.6ZM9.3,8.9h0V8.84h0Zm.33,3.28a.15.15,0,0,0,.12.11v-.14ZM10,7.88v0h.15v0Zm.15-1.47,0,0-.06,0,.06-.07h0Zm0,.35h-.06l0-.21V6.49h.09Zm0,.79h-.09v.06l.15,0h0Zm.18,3.19,0,0v0l0,0h0l0,0v0l0,0ZM10.59,8h0l.06.06h0Zm0-.51h.06V7.45Zm.81,4.74h-.06v0h.06Zm.09-5.34h0V7h.24v0Zm.09-.4h0l0,0,0,.1,0,.08.06.07h.12v0l-.06-.09.33,0v0ZM12,13.44v.12l0,0a.57.57,0,0,1-.39-.24v0l0,0,.12.06.09-.06h0Zm-.3.15h0l0,0,.06-.06Zm.06.18-.06.06h0l0-.21h.06Zm0-8.27h0v.06h.09Zm0,.61h0v0l.06.05h.09S11.84,6.13,11.76,6.11Zm.06.14h0l-.06.06v0l.21.08.12,0A.25.25,0,0,0,11.82,6.25Zm0,.72V7h.06V7ZM12,10.64v.06h.06Zm.12-4.42h-.09l.06.06h.09Zm-.06.19.06,0v0Z"/><path class="cls-2" d="M13.22,4l.15,0,0,0h0l.12,0,.12,0,.12,0,.13,0,.12,0,.12,0,.12,0,.09,0,.22,0h1.62c.05,0,.07,0,.07.09h.06l0,0V4l0,0h.89s0,.06.12.06v.19l-.06,0-.16,0-.09,0L17,4.2h-.12l0,0v0l-.06.06h-.09l-.13,0a.54.54,0,0,1-.33.07v0q.18,0,.18.09v0h-.06v0h.21a.45.45,0,0,0,.28-.09q.12,0,.12.09v0h0l0,0h0l0,0v0l.24.09c.15,0,.22.05.22.1l0,0H16.9l-.09,0-.16,0h-.73a.33.33,0,0,0-.22.12l-.12-.12,0,0-.15,0h-.12l0,0v0h0l-.1-.06s0,.06-.09.06l0,0v0l.24.15,0,.15,0,.1,0,.15V6l0,0v0c-.08,0-.12.07-.12.1v.09c.06,0,.1,0,.1.06v.12c-.29.18-.43.29-.43.34s.12,0,.12.09h0q0-.09.06-.09l0,.09.16,0,0,0v.59l0,0,0,0v.3l-.07.09.09.31,0,.12,0,0,0,.15v3.53l.05.09v.06l0,0v0l.07.06c0,.05-.08.12-.22.21h0V12.5h-.06v.22l-.06.06,0,0v-.09l0,0-.06-.1c-.21.08-.31.14-.31.19h0l-.06-.12,0,0h0l0,0,0,0,0,0v0l.09-.13q-.39-.07-.39-.12l0-.25,0,0H14.2s-.08-.08-.09-.24h0l0,0,0-.16v-.15a.44.44,0,0,1-.09-.27v-.07l0,0v0H14l0,0h0l0,0v0l.24-.24h.09v-.09l-.21-.19,0-.12,0,0,.18,0v0l-.06-.1q0-.15.12-.15V9.8l0,0a1,1,0,0,0,.07-.39V7.78l0-.12-.07-.34,0-.12,0-.13,0-.11,0-.13,0-.12,0-.12,0-.13,0-.15.07-.16,0-.15V5.36h.08l.16,0v0l0,0h0l.22.15q.15,0,.15-.12l.18-.19v0s0-.07-.12-.1v.07H15V5.05l0,0h-.09c0-.06,0-.09-.1-.09s-.21.09-.21.16l-.09-.07h-.07v.09l0,0v0h0c-.09,0-.14-.07-.15-.11l.07-.1V5l-.07-.09,0,0v0h-.18q0,.12-.06.12l0-.12h-.19l0,0V4.9h-.09V4.81h-.18l0,0v0l-.06.06,0-.12h-.19l0,0v0l0,0h0l0-.09h-1V4.75h.22l.05-.07,0,0h0l-.22,0,0,0V4L12.33,4H13Zm0,.43v0h.06v0Zm.09-.52h0v.06h0Zm0,.45,0,.1h.07l.05-.06v0Zm.12-.58,0,0v0h-.08Zm0,6.26h.05c0,.07.1.12.28.15l.09.25h0l-.37-.12-.05-.16Zm0-5h0V5h0Zm.15-1.1,0,0v0h-.09Zm.06-.1h.06v0h-.06Zm0,.4v0h.12v0Zm0,.4v.06l.09,0,.09-.09,0,.12s.07,0,.1-.12l-.13-.06h-.06Zm.06,6.84h0v.06h0Zm.12-7.54,0,0v0h-.09ZM14,3.73v.06h-.07Zm0,1.23h0V5h0Zm.15,5.64,0,0v0l0,0h.06v0l-.06.05c-.08,0-.12-.06-.12-.08l0,0Zm0-6.74h0v.06h0Zm0,1.22h0v.07h0Zm.09-1.32h.06v0h-.06Zm0,.86v.06l.12,0,.15,0,.13.15h.15A.51.51,0,0,1,15,4.71l-.06-.06-.13.06-.15-.09-.12,0,0,0-.15,0Zm0,.37h.06V5h-.06Zm.09,4.36v0l-.06.06h0V9.38Zm-.09,1.16v0h.09v0Zm0-.15.06.06v-.06Zm0,.52v0l0,.09h0v-.12Zm0,.21v0h.06v0Zm0,.1v.06h0v-.06Zm.09.27,0,.12,0,0-.09.1.16.09v-.28Zm-.06.43,0,0h0v-.09Zm.09-1.72v.07h0v-.07Zm0,.37v0h.09v0Zm0,.31v.09h.09v-.06Zm.12-4.42.1.06.09-.09v0h-.12Zm0,2.21v.09c.1,0,.17,0,.18-.09V8.58Zm0-4.36v0h.12v0Zm.09,1.39v.06h.09V5.67Zm0,.48v.07l.09,0v0Zm.09-1.44.06.07,0,0h0l-.06-.06,0,0ZM14.6,7v.06h.06L14.72,7Zm0-1.81h.09l-.06.07,0,0Zm0,4.94v.16l.28-.34h0C14.71,10.05,14.63,10.11,14.63,10.14Zm0-4.07v0h.06v0Zm0,5.24v.06l.06.06s0-.06.13-.06l0-.09Zm.06-4,0,.15s.07-.05.1-.15Zm0,.49h.09V7.72h0Zm0-2.7h.1v.07h-.1Zm0-.92v.09l.13,0,.09,0v0l-.06-.07Zm0,.34v.06h.07V4.5Zm.07.7h.06v0h-.06Zm0,1.39v0h.06v0Zm0,1.9v0h.06v0Zm0,2.85v0H15v0Zm.06-.7,0,0v0l0,0H15v0Zm.36-6.29.13,0,0,0v0l0,0H15.4Zm.07,6.74h.06v0H15.4Zm0,.49h0l.06.06v0l-.06.06,0,0v0h0l0,0Zm.12-2.75.06.05V9L15.55,9h-.06l0-.16,0,0Zm-.06-2.76h.06l-.06,0Zm0,2h0v.06h0ZM15.61,7l0,0v.08h0L15.55,7Zm.06-2.73c.09,0,.13,0,.13.08v0l-.19.06v0l.06.06h.13s.06,0,.09-.15q.33,0,.33-.12l-.09-.1h-.21C15.77,4.13,15.69,4.16,15.67,4.23Zm0,.3v.09h.06v0Zm.5,0v0h.08v0Zm0-.12v0h.05v0Zm.09.24.06.06h.09l.06-.06,0,0h0Zm.18-.52v0l.15,0L16.56,4h0Zm.43,0,.06.06V4.1Z"/><path class="cls-2" d="M16.86,12h0v.07h0ZM19.29,3.9s.22.1.67.19l.1-.12h1.69l.06.06v.73l-.06.07H20.58s-.06,0-.06-.09h-.06q0,.09-.06.09l0,.15-.06.07h0V4.83H18.12V5.5l0,0,0,0v1l0,.12c0,.09-.06.13-.12.13v0s.1,0,.15.15l-.06.06v.1l0,.12,0,.12v.13l0,0,0,0v.1h1V7.63h.06v.06h.21v.06h-.15l-.09.09,0,0H19c-.1.13-.19.19-.27.19l0,0v.06h.13l.18,0,.16,0a.35.35,0,0,0,.24.12h.12c0-.07.07-.17.19-.3a.19.19,0,0,0-.19-.13l-.09,0V7.75l.07-.06h.09l.15.12L20,7.69h.09l0,0h0l0,0v.06a.34.34,0,0,1,.06.22h.12c.11,0,.17,0,.19-.1V7.84s0-.08-.16-.09V7.69h0l.12,0,.28,0h.12l.27,0,.22,0,.06.06.06-.06h.22c.06,0,.09.08.09.19v.61a.29.29,0,0,0-.21.06h-.13l-.24-.06L21,8.55h-.27l-.1,0-.15,0h-.46l-.13-.09-.12.09h-.18l-.16,0-.18,0H19.1L19,8.61l0,0-.09,0v0l0,0h-.22v0l.13.31h0l0,0V9L18.7,9l-.15-.37V8.55h-.19l0,0,0,0h-.18V8.7l.06.1h-.06V9l.06.09-.06.07v.73c0,.07-.05.1-.16.1V10H18l0,0h0l0,0v.58c.05,0,.1.05.16.15v0h-.07v0l.07.09v0c-.09,0-.13-.09-.13-.16h0V11l.09.12h0q-.12,0-.12-.12H18l0,.15.07.07v-.1h.09v0l0,0,.06.21,0,0h.21v0l0,0,0,.1h.07c0-.13.09-.19.27-.19,0,0,.13.07.37.09l.16,0s.06,0,.06.1h.06c0-.07,0-.1.06-.1h.5l0,0,0,0h1.36l.06.06a1,1,0,0,1,.4-.06l.06.06v.28h0l0,0-.28.12.09.12,0,.1.25-.18,0,0v0l-.28.31-.06-.07.06-.06,0,0v0a.18.18,0,0,0-.21.19h-.18v-.07H21l-.09.07H20l0,0,0,0h-.3l-.09-.07-.28.07-.16,0q0,.09-.06.09l-.18,0-.16,0c0,.05.05.08.16.1v0q-.09,0-.09.06v.28q.15,0,.15.09l0,0v0l0,.09c0,.09-.05.13-.15.13v.06H18.7l0,0h0l0,.09,0,0v0l-.09.09,0-.09,0,0v0l0-.09h0l-.19.05c0,.09-.05.13-.15.13v0l0-.1h0c.06,0,.09,0,.09-.05h-.06v0c0-.05,0-.09.12-.1s-.06-.07-.18-.12v-.06a.31.31,0,0,1,.18-.16l0,0v-.06l.24,0v-.15c-.08,0-.12,0-.12-.13h-.28l-.06-.06-.34.06.12.16-.06.06,0,.09,0,0h0l-.09-.21,0-.13v0H17.5l-.15,0,0,0v0q-.15,0-.15-.09v-.15c-.06,0-.1,0-.1-.07s.1,0,.1-.12l0,0v0l0-.12v0s0-.06.09-.06V11.5q0-.3-.09-.3v-.07l0-.15c-.17,0-.25-.09-.25-.24,0,0,.06,0,.06-.1h0c0,.06,0,.1.06.1h.07l0,0,0-.16V10c.16-.11.24-.2.24-.28l-.24-.16V5.17l0,0v0l.4.13.12-.06a.16.16,0,0,0-.18-.12h-.31L17.17,5V4L17.23,4H19ZM17,12.15h0v.06h0Zm.25-4.61v0h.09v0Zm0,.34h0l.06-.07h0Zm0,1.65h.06l.06,0h-.06Zm0,2.34h.06v-.06Zm.3-7.6c0,.06,0,.1-.05.1h0l0,0-.12,0v0a1.89,1.89,0,0,1,.56.31h.27s-.09-.11-.27-.19c0-.06-.07-.09-.19-.09l-.06-.16Zm-.24,6.34v.1s.06,0,.06.08l.18.07.07-.07-.15-.24Zm.06-4.52s.09.09.25.12h0V6.09l-.1,0Zm.1.19v0h.08v0Zm0,.89v.09h0V7.17Zm0,1.08v.08h.21V8.25h-.06v0Zm0-1.55v.07h0V6.7Zm.06,4.56v.06h0v-.06Zm.09,0a.08.08,0,0,1-.09.09v.09h0q.09,0,.09-.12v-.06Zm0-4.56,0,0v0h.09Zm0,3.54v.07h.06v-.07Zm0,.25v.06l.06.06,0-.12Zm0,.52v.06h0V11Zm0-3.94v.07h.13l.15-.07V7Zm0,2.9.06.06,0,0v0Zm0-.34v0h.07v0Zm0,2.83h.1v0l-.07.09h0l.08,0,0,0v0L18,12.7s0-.06-.12-.06Zm0-4v0h.07v0ZM18,10.64v0l0,.09h.15v0l-.15-.1Zm.21.68,0,0v.06h0l-.06-.06,0,0Zm0-2.74,0,.06,0,0h0l-.07-.06,0,0Zm-.07,1.82.07.06v0h-.07Zm0,.15h0v.06h0Zm0-3.45h0l0,.07h-.09Zm.19,4.1,0,0-.07.06v0l-.09-.09Zm-.15-3.79h0l0,.06Zm0,1.48h0V9h0Zm0,1.87h0l-.06.07h0Zm0,.28,0,.06v0h0ZM18.46,7V7L18.4,7l0,0Zm-.06.31h.09v0l-.06.06,0,0Zm.06.28v.09l-.06-.06,0,0Zm0,1.16,0,0v0l-.06.06,0,0v0Zm0,2.25.18.18-.06.07h-.06l-.06-.07h.06v0h-.06v0l-.09,0V11Zm-.09.74v0h.09l0,0v0h0ZM18.61,10l0,0v0l-.18,0V10Zm-.12-3.85h0l.06.06v0h0l-.06-.06Zm0,4.52h.06v.07h-.06Zm.06-3.57h.06v.07h-.06Zm0,.31h.06v0h-.06Zm0,3.88h0v.06h0Zm.09-.5v.07h-.06Zm0-4.82h.06V6h-.06Zm0,5.78v.06h0v-.06ZM18.77,9v0l0,0h.06l-.06.07,0,0v0l-.06.06h0v0l0,0v0l-.07-.07,0,0Zm0-4.92v0l.16,0s0-.06-.09-.06Zm0,7.72v.06h0v-.06Zm0-9.35h.06v.09H18.8Zm0,9.45,0,0h.06l0,0h0l0,0v-.06H19l0,0v-.06s0-.06.12-.06v0H19v0C19,11.63,18.9,11.73,18.83,11.94Zm0-3h0V9h0Zm0-6.62H19l0,.13,0,0h0ZM19,12.15v.06h0v-.06Zm.09-2.67h0l.06,0-.06.13H19V9.53Zm.1-6.9h0l.07.06-.19.16,0,0v0C19.15,2.69,19.2,2.64,19.2,2.58Zm-.13,5.33h.07v0h-.07Zm0,.86h.07v.12h-.07v0l0,0v0Zm0-4.37v.06h0V4.4Zm0,4.06.12,0v0l0-.06Zm0,3.48V12h.1V11.9Zm.12-6.59.13.12-.09.1-.09-.1v0Zm.07.25v0l-.07.06h0Zm-.07-1.94h.07l-.07.06Zm0,8.34v0h.06v0Zm.09-4.19h.06l-.06.07Zm0,4.13v0h.06v0Zm.19-7.2V4.8h0V4.74Zm0,1.35h.05v0h-.05Zm0,6v.06h.05v-.06Zm.18-.22V12h.09l0-.08,0,0Zm.24-.3v.12s0,.06.1.06.12-.06.12-.09v-.06l-.09-.1H20Zm.1.27v0h.06v0Zm.09.13v0h.06v0Zm.12-3.88v.06h0V8.12Zm0,3.88v.06h0l.1-.09h0Zm0,.15v.06h0v-.06Zm.16-9.07h0l.06.06,0,.12H20.4v0Zm0,.4.09.09-.06.06,0,0Zm.15,8.15v.12h0c.09,0,.13-.06.13-.09v0Zm.06.55.13,0,.09,0v-.12L20.77,12A.19.19,0,0,0,20.64,12.18Zm.15-4.34v.07l.07,0,.06-.08,0,0ZM21,4.24l0,0v0s.16.11.46.21h0V4.43A1.05,1.05,0,0,0,21,4.24Zm0,7.7.16.06c0-.11,0-.16.12-.16l0,0v0l0-.15h0C21,11.72,21,11.82,21,11.94Zm.31-7.76.06.06h0l-.06-.06Zm.06,4.19h.06V8.3Zm.06,3.5h0c.16-.08.25-.18.25-.27l0,0h0A.28.28,0,0,0,21.38,11.87Z"/><path class="cls-2" d="M21.4,6.59h.06v0H21.4Zm.22-2.7h1.8c1.61,0,2.58.27,2.93.8,0,0,.06.06.06.16s.28.25.44.75l0,.09c.13,0,.19.29.19.87a2.62,2.62,0,0,1-.84,1.9c-.37.4-1.23.59-2.58.59h-.1L23.42,9h0v.06h-.06l-.37,0,0,0v0l0,.24,0,.13,0,0h-.1V9.39s0-.06-.09-.06V9.27h.06V9.05h-.28v.22l0,0,0,0V10l-.06.09,0,.12,0,.1.06.06v1.93l-.06.06h-.87l-.06-.06V10.58l0-.19,0-.15v0l0,0,0,0V9.65l.06-.1-.06-.06V7.59l.09-.12c-.06,0-.09,0-.09-.07V6.66l-.13-.38.13,0V4Zm.06,4.32v.06l.09,0v0l-.06-.06Zm0,2.12v.15h.06l0-.15v-.06h0Zm0,.19v.06h0v-.06Zm.09-3-.06.12v0l0,.16h0l.1-.09V7.62Zm0-.72v.06l.06-.06Zm.09,2.34v0h.07v0Zm0,1.43v0l0,.15h0l0-.15v-.13Zm.07-1.22v.1h0v-.1Zm0-2.2.06,0h.06v0ZM22,6.75v.06h0V6.75Zm.06.69v0l.07.06,0,0V7.34Zm0,.65v.06h0V8.09Zm0,1.18v.16l.07.06,0-.16-.07-.06Zm0,.53v.25h0l.07-.06V9.7Zm.1-1.5v.1h.06V8.3Zm.06.26v0l.06.07,0,0v0Zm.13-.5-.07.09v.06h.07l.05-.06v0Zm0,.28v0h.07v0ZM22.61,8v.06h0L22.71,8Zm0,2h.07v0h-.07Zm.16-.19.06.07,0,0h0Zm.12,1.47H23s.06.08.06.24h0l0,.16V12L23,12,22.89,12Zm0-1.59H23l-.07.06ZM23,8.4v.06h0V8.4ZM23.17,12h0v.06h0Zm0-7.84v.06l.07-.06Zm0,5h.07v0H23.2Zm0-4.11h.19L23.51,5h-.09C23.29,5,23.23,5,23.23,5Zm0,8.21h0l.06.07,0,0h-.06Zm.09-1.46h0v.06l-.06.07h0v-.07Zm.06.81,0,0v0l-.07.07,0,0v0Zm.09-4.67v.13l.07.06h0V8Zm0-1.37h0l.06-.06h0Zm.24,4.27,0,.19,0,0v0l0,.12v.06h0l.07.44h0l.07.37-.07.07.07.12,0,.16h-.07l-.09-.1,0,0,0-.15v0l0,0,0,0V12a.54.54,0,0,0,.09-.28l-.12.18h-.06l-.06-.06.06-.06,0,0h0a.57.57,0,0,1,.1-.31l-.07-.31,0-.09,0-.19,0,0Zm0-6.45c0,.07,0,.1-.12.1l0,0v0l0,0h0s0-.06.09-.06l.1,0s0-.06.09-.06l0,0v0l-.22-.06Zm-.15.6V5l.18,0s0,0-.09,0Zm0,5.07h.06v0l0,.37H23.7l0-.21Zm0-5.79h.07V4.2Zm.22,3.14v.07h0V7.4Zm0,4.45H24l-.06.07,0,0Zm.13.16h.06v0h-.06Zm.21-3.83v0h.06v0Zm.13-1.68v0h.06v0Zm0,1.62v0h.06l.09-.09V8h-.06Zm.09-1.37v0h.06v0Zm.13.69h0c.12-.05.19-.1.19-.13v0C24.73,7.32,24.65,7.37,24.64,7.44Zm0,.21.06.06,0,0v0Zm0,.69v0h.09v0Zm.27-4.08.1.06a.36.36,0,0,0,.19-.15v0H25Zm.23,3.61,0,0v0h.1Zm.27-3.2v0h0l.09,0v0h0Zm.38.15.18,0c.09,0,.13-.06.13-.09v0h0C25.88,4.74,25.79,4.77,25.79,4.82Zm.06.56,0,0v0l0,0v0l0,0h0l0,0h0l0,0h0a1.91,1.91,0,0,1,.5.19q.13-.06.15-.12l0,0v0l-.09,0-.35-.06,0,0h0Zm.37,1.9v0h.07v0Zm.22-.59v.06h.06l.07-.06Zm.16.47h0c.08,0,.12-.07.12-.1V7h0Z"/><path class="cls-2" d="M26.75,6.15c.63.49.95.77.95.85l0,.12v.06h.06l-.06.09,0,.13,0,.12v.06h.06v0h-.06v.15l.12,0,0,0h.63l.1.06h.06l.09-.06a.37.37,0,0,1,.21.18V8s0,.06-.09.06v.1l.09.14,0,.13,0,0h0q-.09,0-.09.12l-.21.06,0,0h0l-.11,0,0,0-.21,0h-.24l-.09-.06q-.09,0-.09.18l-.15.06-.07-.15h-.06l0,0v0s-.06,0-.06.12h0l-.12,0-.09,0,0,0L27,8.88l-.15,0,0,0v0Q27,8.94,27,9V9h-.06v0h.27L27.42,9l.1,0v.05h0l-.1,0v0a.35.35,0,0,1,.28.16V10c0,.07,0,.1-.13.1v0s0,.06.1.06l0,0v0s0,.06-.1.06l0,0v0l.1,0v.12c-.06,0-.1,0-.1.06v0l.06.09,0,0v0c.07,0,.1,0,.1,0v.09l-.1.12c.07,0,.1,0,.1.07l0,0,0,.15v1l-.07.06h-.06l-.09-.06-.24.06h-.06v-.15h-.06a.41.41,0,0,0-.27.15h0l-.07-.06V11.22l0-.12,0-.12v-.4l.13-.15c-.08,0-.13-.06-.13-.09V9.79s0-.06.1-.06l0,0V9.64c-.08,0-.13,0-.13-.06V9.09l0,0,0,0V9l0,0,0,0V8.67l0-.12c0-.14.05-.22.09-.22s.08.1.18.1h.24l0-.18h0l-.12,0h-.27l0,0h0l0,0V7.48l.07-.08-.07-.06V7.21h.07A.45.45,0,0,0,27,7.3l.06-.09v0c0-.06-.12-.11-.37-.16V6.91l0-.12,0-.12,0,0v0l0-.11,0,0v0l0-.11,0-.13,0,0Zm0,2.4.07.06V8.55Zm0,.6.06.07H27v-.1h0Zm0,1.92v0l0,0v0c.1,0,.15-.07.15-.16h-.12Zm.06-3.22v.06l.18,0V7.88s0-.06-.09-.06Zm0,2.64v0h.06v0Zm0,.3v0h0l.12-.08,0,0Q26.88,10.75,26.88,10.79ZM27,4h.82l.06.06v.15s0,.06-.09.06a.32.32,0,0,0,.09.21V5.67l0,0,0,0v.12l0,0,0,0v.18h.06v0h-.06v.06l0,.13,0,.11v.07h.06v0h-.06v.15h.06v.06l-.12,0L26.94,6V5.64s0-.07.09-.07l0,0v0l-.12-.18V4.06Zm-.06,4.61v.06H27l.06-.06,0,0h0Zm0,.85.12.06.09,0V9.4l-.09,0Zm0,1.76h.06v-.06ZM27,12v0h0l.09,0v-.06h-.06Zm0-.73v0l.12.06a.18.18,0,0,0,.12-.12h0Zm0-7v.06h0V4.27Zm0,7.25h.06v-.06ZM27.12,6q0,.09.18.09l0,0q0,.09.12.09l0,0v0l.11,0V6.15l0,0v0l0,0h0L27.18,6Zm0,1.61h0l.06-.06h0Zm.09-2.43v.06l.09.09.06-.06-.09-.09Zm0,4.1v0h.06v0Zm.06-1.37,0,0V8h.09Zm.12-2,.07.06V5.91Zm.12,1.43c0,.06,0,.08-.12.08v0h.07v0l.11-.08Zm.06-1.85-.06.08.25.1h0v-.1S27.75,5.5,27.6,5.49Zm.16-.92v0h.06v0Zm0,2.49h0v.06h0Zm0,.21h0v.07h0Zm.09.1h0v0h0Zm.12.08,0,0v0h-.09Zm0-.18h0v.07h0Zm0,.4H28L28,7.73Zm0-1.09h.06L28,6.64Zm0,.18h0v.06h0Zm.06.82h.06v0h-.06Zm0-1.49h.06v0h-.06Zm0,.79h.06v0h-.06Zm.15,1.39c0,.07,0,.1-.12.1v0q.12,0,.12.15h0l0-.18,0-.1Zm-.09-.79h.06v0h-.06Zm0,.19h.06v0h-.06Zm0-1.09h.06v0h-.06Zm0,.39h.06V7h-.06Zm.16-.12v.06h-.07Zm-.07.21h.07v.06Zm0-.39h0v.06h0Zm.09.09h0v.06h0Zm0,.4h0v0h0Zm.06.42h0v.06h0Zm0-1.49h.06v0h-.06Zm0,1h.06v0h-.06Zm.06,1.13v0s0,.08.12.08.12-.05.12-.08Zm.12-1.13h.06v0h-.06Zm0,.18h0V7.3h0Zm.09-.08h0v0h0Zm.18.21H29v0H29Zm0,.27h.09l.06.06v0l-.06.06L29,7.67ZM29,8H29v.06H29Zm0,.3H29v0H29Zm.12-.18h.06v.1h-.06Zm.1-.42h.08v0l0,.15h0v0l0,0v0Zm0,.55h.06a.87.87,0,0,1,.31.27v0l-.06.06h0l0,0,0,0H29.4l-.06-.06,0-.09h0c-.06,0-.1-.08-.1-.19Zm.06-.58h.1v.27L29.34,8l0,0Zm.37,0h.09s.06.07.06.21h0q0-.18.06-.18l0,0V8s0,.06-.12.06V8.3l-.06.07-.3-.31q0-.21.12-.21Q29.58,7.64,29.67,7.64Zm-.21.85v.06h.06V8.49Zm.45-.43,0,.09,0,.28h-.06v0l0-.13,0-.12v0ZM30,7.64l.05.06v.63h0l0,0h0l0-.15v0L30,8V7.7ZM32,4h.78l.06.06V4.3l0,.12,0,0,0,.37V5l0,0,0,0v0l0,.12,0,0v0l0,.16,0,.21h0l0,0v0l0,0,0,.16v.15l0,0,0,0,0,1v.73l0,.12,0,.12.16,0s0,.06-.13.06l0,0v0l.07,0,0,0v0c.1,0,.16.05.16.1h0l-.13,0v.12h0l-.08-.06,0,.15v.7h.09v.18l0,.18,0,.15,0,0v0l0,0-.09.6v0h0v-.06l.06.06,0,0,0,0v.24h0a9.15,9.15,0,0,1-1.12-.93v0l.06-.1L31.7,9.7V9.55s0-.06.12-.06V8.67q-.12,0-.12-.18h-.36s-.06,0-.06-.09h-.1q0,.09-.06.09h-.05l-.13-.19h-.06l-.12.07.06.09,0,0h-.21l-.25-.12c0,.06,0,.09,0,.09a.21.21,0,0,1-.13-.21l0,0,0,0h0l0,0,0-.15V7.7l.06-.06h.25l0,0,0,0h.06q.33,0,.42.18c.19,0,.28-.05.28-.09s-.15,0-.15-.06l0,0h.1l.18,0,0,0h0l.18.12.06-.15v-.4l0-.15,0-.18V6.27s0-.06.12-.06v0l-.12,0,0,0,0-.15V5.64l.06-.1-.06-.08V4.12S31.78,4,32,4ZM30.22,7.85v0L30.3,8l.07-.06V7.85l-.07-.06h0Zm0,.4v0h.08v0Zm.54,0v0h.06v0Zm.67-.31,0,0V8l-.09.12.06.18-.06.06v0h.09l.15,0v0l-.06-.1.15-.15v0l-.21-.21,0,0Zm.21,2.25a8,8,0,0,1,1,.84l-.06.07.06.06v.06h-.06v0a.85.85,0,0,0,.3.3l0,0h0a.56.56,0,0,1,.11.31h0c0-.07,0-.1.06-.1l.06.49-.09.06,0,0h0l0,0-.12,0-.15,0-.19,0v0l-.09.09h-.82l-.06-.06v-.15h-.12V12q.09,0,.09-.06t-.12-.15c0-.11,0-.16.12-.16v0q-.09,0-.09-.06v0l.09-.12,0,0v0l.06-.21,0-.09,0-.28V10.7l0-.12,0,0v0q0-.15-.09-.15Zm.28-1.49v.06l0-.06Zm.08.12,0,0v0l0,0h.07v0Zm.4,0v0h0l.09,0,0,0V8.73h-.09Zm0,.06V9h.06V8.91Zm.06.46v.06h.06l.06-.06Zm0-4.28v0h.12V5Zm.21,6.43v.06h0v-.06Zm.09-1.61v.07h0V9.85ZM32.92,12l0,.09L33,12v0Z"/><path class="cls-2" d="M36.3,3.87h.87a23.38,23.38,0,0,1,.94,2.22h0l-.19,0-.09.09v0c.08,0,.12,0,.12.13h.25l.07.06L38,6.46v0l.22,0,0,0c.06.06.56,1.26,1.5,3.59a9.57,9.57,0,0,1,.59,1.45l0,.09c.1,0,.23.24.38.71l0,0h-.9a.33.33,0,0,0-.13-.22q0-.11-.15-.15a15.56,15.56,0,0,0-.63-1.45h0l0-.09-.09-.22,0-.12v0c-.09,0-.13,0-.13-.09h-.24l0,0h0l0,0V9.87l-.15-.07v.07l0,.09h-.1v0l0,0v0a.39.39,0,0,1-.31-.1c0,.15,0,.22-.09.22h-3a22.7,22.7,0,0,0-.87,2.1l0,0q0,.09-.06.09l-.34-.12-.28.06v.13l.18,0v.06h-.59l0,0h0c.06-.25.15-.37.28-.37l.25,0,.09,0,0,0v-.06l-.09,0L33,11.9l-.07-.09,1.32-3.1c.9-2.2,1.37-3.31,1.4-3.31l.41.13,0,0v0a1.08,1.08,0,0,0-.37-.09l0,0v0A7.9,7.9,0,0,1,36.3,3.87Zm-2.5,8.41v0l-.06.06h-.31v-.06Zm1-2.51v0l.1-.09h0Zm.1-1.21v0H35v0Zm.19,1.06h0c.11,0,.17,0,.19-.1v0A.19.19,0,0,0,35.12,9.62Zm.12-2.87v0h.09v0Zm.15,0v0c.23,0,.35-.07.35-.13h-.1Zm.38,1.53h0l.06-.07h0Zm.09-1.53.19,0v0H36v0C35.9,6.65,35.86,6.68,35.86,6.72ZM36,6l-.13.19v0l.1-.07.09,0q.15-.06.15-.12Zm-.1-.12v0H36v0Zm.57,4v0h.06v0Zm.15-.07v0h.06l.1-.09,0,0C36.69,9.74,36.64,9.77,36.64,9.8Zm.1-1.37v0h.06v0Zm.06-1.19v0h.06v0Zm.06,1.88h0c.13,0,.21-.1.22-.16h0C37,9,36.88,9.06,36.86,9.12Zm.1.21v0h0l.1-.09H37Zm0-4.68.07.06h.06l-.06-.06Zm.13,1.88v0h.06v0Zm.22,2.68v0h.09v0Zm.19.41v.06l.21.16h.07l.06-.13H37.8v0l0,0h-.09V9.62Zm.06.41h0v.05h0Zm.1-3.66h0l.06-.06h0Zm0,3.78h0v.06h0Zm.15-.12,0,0v0H37.8ZM38,9.87l.06.06V10H38l-.07-.06Zm0,.28h0v.06h0Zm.15-.12,0,0v0h-.09Zm.09.12h0v.06h0Zm0-3s.09.1.24.16,0,.09.07.09V7.34A.6.6,0,0,0,38.24,7.15ZM38.36,10l0,0v0H38.3Zm0,.24h0v.07h0Zm.15-.12,0,0v0h-.09Zm.13-.12,0,0v0h-.09Zm0,.24h0v.07h0Zm.16-.12,0,0v0h-.1Zm0,.25h0v.06h0Zm.18-1.63v0h0L39,8.74v0h0Zm.5,2.5v.1h.1l.06-.07v-.05ZM39.46,10V10l.06-.07Zm0,.91h0l.06-.06h0Zm.12-.47h0l.06-.06h0Zm0,1.25v.06h.06v-.06Zm.09-.66v0h.1v0Zm.35.94v0c0,.06.15.14.46.22,0,.07,0,.1.07.1h0v-.13c-.12,0-.19,0-.19-.1l.06-.05h0l-.15.05C40.27,12,40.18,12,40,11.93Zm0-.5v0h.06v0Z"/><path class="cls-2" d="M40.39,4.78h0a5.22,5.22,0,0,1,.89.86l-.09.15q.09,0,.09.06V7l0,.1,0,.15V8.67l-.06.24.06.06v.37s0,.06-.09.06l0,0v.09l.12.15v1.08l0,.12,0,.12v.31a.37.37,0,0,1-.09.21v.06l0,0h.06v.74l-.06.05h-.8l-.06-.05V10.71l.06-.09-.06-.09V9.74a.87.87,0,0,1,.1-.52c-.06,0-.1,0-.1-.07V5.52s.11-.08.31-.16l0,0V5.15l-.28-.09v.09l-.06-.06V5l0,0,0,0v0l0,0,0,0Zm.1,5.29v0l0,0v0l0,.08h0c.06,0,.09,0,.09.07h0v0l-.09-.21Zm0-3.54,0,0h.06a.19.19,0,0,0,.21-.13v0l-.06-.07A.23.23,0,0,0,40.52,6.53Zm0,3.14h.06l.06-.05V9.55Zm0-3.6v0h.09c.16,0,.24-.09.24-.15h-.09Zm0,1.92.06.07L40.67,8l-.06-.06Zm0,2.39.06.06v-.06ZM40.7,3.9v0l0,0h.4c.36,0,.58.08.64.24l.09.16s0,0-.09,0v0a.32.32,0,0,1,.31.22s0,.06-.13.09l0,0v0h.13l.08-.06,1.5,2.11-.05.09q.21,0,.21.15a1.5,1.5,0,0,1,.3.5L44,7.72l.09,0,.12,0c.09,0,.13.07.13.21h.06a.13.13,0,0,1,.15-.15.3.3,0,0,1,.09.18h0a.41.41,0,0,1,.22-.37H45v0l-.06.06,0,.15v0c-.06,0-.13.06-.21.19l-.19,0a1.49,1.49,0,0,0,.34.52l0,.13,0,0c.08,0,.21.13.4.39l0,0h0l-.48-.52,0-.09,0,0h-.07L43.08,7l.1-.08v0h-.1L43,7l-.54-.55.08-.13v0l-.08,0-.1,0,0,0v.06l-.21-.24c-.07,0-.19-.13-.37-.4l0,0v0l0,0v0s-.11-.1-.22-.31h0V5.4l0,0v0l0,0h0l-.74-.74q.24,0,.24-.12v0l0-.06h-.13l-.15.12-.06-.09V4Zm-.09,4.43,0,.09s.08-.05.09-.15h-.06Zm.06-1.16h0l.09-.09h0Zm0,.12h.06V7.23Zm0,1.35.06.06h.06v0l0-.1h0Zm0,1.31V10h.06Zm.12-2.57.06.06h0L41,7.35l0,0h-.1Zm0,2.69v.06h0v-.06Zm0,1.26v.09h0v-.09Zm0-3v.12a.29.29,0,0,1,.22.07c0-.05,0-.07.09-.07l0-.15.06-.06-.16,0a.22.22,0,0,0-.12.13Zm.13.85h0V9.09Zm0,.28,0,.06V9.43Zm0,1.1.07.09.12-.09-.06-.06h0Zm0-1.71.07.06V8.82ZM41.1,10c0,.08,0,.12-.1.12v.07l.1,0c0-.13.07-.19.15-.19v0Zm0-.46v.1h.06l0-.1Zm.09-1.86v0l.09,0V7.69Zm0,2,0,0v0l0,0h0l0,0v0l0,0Zm0-3.7V6h.06V6Zm.24.21,0,0v0h-.1Zm-.06.25h.1v0h-.1Zm0,.24h0v.06h0Zm.15-.37,0,0v0l0,0h0l0,0v0l0,0Zm0,.21,0,0v0l0,0h0l0,0v0l0,0Zm0-.45h0V6.1h0Zm0,.73h0v.06h0Zm.09-.61h0l.06.06,0,0h0l0,0Zm.06.22,0,0v0l-.06.06h0V6.43Zm0,.27h0v.06h0Zm.12-.37.06.06,0,0h0l-.06-.07,0,0Zm0-.21h.06l-.06.06Zm0,.42h0l.06.07,0,0h-.06ZM41.83,5l0,0v0C42,5.06,42,5,42,5V4.93h-.1Zm.06,1.13,0,0v0l0,0h0l0,0v0l0,0Zm0,.22.06,0-.06.06-.06-.06Zm0,.27h0v.06h0ZM42,6.31h0l.06.07v0h0l-.07,0Zm.07.18,0,0v0l0,0h0l0,0v0l0,0Zm0,.28,0,0v0H42ZM42,8.24h.07v0H42Zm.15-.7.13.18c0,.14-.07.21-.13.21h-.05L42,7.87v0C42,7.64,42.08,7.54,42.13,7.54Zm-.05-2.42v.09l.12.06q.12,0,.12-.09v0h0l-.16,0Zm0,.76V6h0l.06-.07v0Zm0-.42h.06V5.4Zm.09,1L45,9.25v0h0s-.06,0-.06-.09l-.13.12v.06l.19,0,0-.12h0l.12.15-.09,0a.33.33,0,0,1,.06.21h0l.1-.05h0l.18.24v0h-.06V10h.06V9.92h.06V10s0,.06-.09.06v0l.12.13v0l0-.1,0,0h0a.67.67,0,0,1,.18.46h0c0-.12,0-.18.1-.18l-.06-.15,0,0h.06a.36.36,0,0,1,.18.28l-.18.06v0l.27.37V10.5l.07-.06.85.89v1l-.15,0,0,0,0-.16V12h0l-.06.06v.06l0,.16,0,0h-.64l-1.32-1.8-.13,0,.07-.09a1.64,1.64,0,0,1-.34-.49l0,0h0l-.09-.15h0l-.06-.18h0l.12,0,.06.16.16-.09h0v0h0l0,0V9.62h.06l0,0v0c.09,0,.13-.06.13-.09l-.31-.09v0q0,.12-.06.12h-.12l-.15,0c0,.09,0,.13-.09.13l0,0h0l0,0,0,0,0-.09A.5.5,0,0,0,44,9.15L44,9.07,44,9h0l0,0,.1,0v0s0-.06-.1-.06L43.91,9h-.09V8.88q.12,0,.12-.06l-.15-.06-.06.06c-.2-.29-.33-.43-.4-.43s-.27-.11-.34-.33h0V8q.12,0,.12-.06l-.21-.3v0L43,7.47h0l-.15,0L42.45,7l0,0s-.06-.06-.09-.16h-.09v0l0,0,0-.09,0,0h-.09l.06-.06,0,0V6.56Zm-.09.92h.06l-.06.06Zm0-.52h0V7h0Zm.37,1v.06l0,.06-.07-.09,0,0Zm0,.58h.06v.06h-.06Zm0-2.38v0h.06v0Zm.06-.43V5.7h0V5.64Zm.19.67v.07h.09l-.06-.07Zm.15,0,0,.1H43v-.1ZM43,8.49h.06v0L43,8.6l-.06-.06Zm.09-.74h.07l.06-.06h-.06Zm0,.64h.07v0h-.07Zm.1.1h.12l-.06,0h-.06Zm.06-1.87.09.09v0l-.06-.06Zm.21-.21h0v0h0Zm.34,3,.06.18,0,0h0l-.18-.13v0h0l0,0h0Q43.73,9.4,43.79,9.4Zm.06-.73v.06h0V8.67Zm0-.22v.06l0,0h0l0,0h0l0,0v-.1h-.09Zm0,1.22h.06v0h-.06Zm.31-.7,0,0v.07l-.05.08,0,.16h0c0-.06.06-.14.16-.24L44.21,9Zm.45-2.66.07.07,0,0h-.09v0Zm0,2.78,0,.13h0l.07-.07V9.09Zm0-.94h.06v0h-.06Zm.12-1.53h.09v.06l-.06.06h-.07l0-.06ZM44.74,10l.12-.09,0-.09Q44.74,9.86,44.74,10Zm0,1h0l.06.06v0l-.09,0Zm0,.12h.06v.07l-.06,0Zm0-4.67h.07v0h-.07Zm.1.73h0V7.2h-.06l0,0v.06h0l-.07-.06Zm0,1.13,0,0v0l0,0h0l0,0v0l0,0Zm-.07,2.32c.09,0,.13.06.13.09v0h0l-.1-.09Zm0-.52v.06l.06-.06Zm.06-2.17H45L45,8,45,8,44.89,8Zm0-.52H45v0h-.06Zm.15-.24.09.09v.06l-.06.06H45l0-.12ZM45,10l0,0h0V10Zm.06.34-.06.09v.09H45s0-.06.12-.06v0H45.1Q45.1,10.35,45,10.35Zm.06-.58v.09l0,0h0v0l0-.09ZM45.22,7l0,0v.07h-.1V7Zm0,3v0l.16-.12v0ZM45.32,8l.06.1,0,0h0l-.06-.06Zm.09-.7.06.06-.06.06Zm.39,3.3c-.06.2-.11.3-.15.31h-.12V11h0l.09,0,.06.06.22-.24C45.89,10.68,45.85,10.63,45.8,10.62Zm.07-3.48v0l-.25.3h-.06V7.38C45.64,7.22,45.74,7.14,45.87,7.14Zm-.28,3.45v.06h.06Zm.15-2.17.1.09.09,0,0,0v0l0,0h0l0,0h0l-.15.1-.07-.07V8.45Zm-.05-1.56h.05v0h-.05Zm.11,4.19v.06l.07-.06Zm0-4.19h.06v0h-.06Zm0,4.44v0h.06v0ZM46,7.81l.06.06L46,7.93l-.06-.06Zm-.06,3.06.06.06v-.06Zm.06-.16v0H46v0Zm0,.37v0h.06v0Zm.15-1.1h.18l.07.06v0l-.1.1L46.14,10Zm.34-6.05h.79l.06.06V5.06l-.06.09.06.1V7l0,.13,0,.12v.92s0,.06-.09.06l.09.12v.25h-.12V8.7q.12,0,.12.06v1.65l0,.12,0,.12v.5h0c-.59-.52-.88-.83-.88-1v-.1l0-.09,0-.18v0l0-.13,0-.18,0,0h0l-.06-.06V9.4h0l.1.06v0l-.07-.21h.07v-.1l0-.12,0-.21V7.84l.09-.12v0a.37.37,0,0,0-.09-.22V7.38l0-.18,0-.16c.12,0,.18,0,.18-.08v0h-.09l0,0h0l0,0V6.77l0-.18,0-.16v0h0l0,0h0l.09,0,.18,0,0-.15-.07-.06h0l-.27.06,0,0V5.91l.06-.08-.06-.07V5.7h0l.12.09h.09l.06-.06v0a.41.41,0,0,1-.15-.21l0,0h-.06l-.06-.06V4.93q.27-.13.27-.21l-.06-.27h-.09l0,0h0l-.06-.18V4Zm0,5.5v.06l.06-.06Zm.06.43,0,0v0l0,0h.06v0Zm0,2,0,.15v.12h0a.38.38,0,0,1,.12-.21l-.06-.06Zm0-7.68v.1h.09v0l-.06-.07Zm0,4.71,0,0,.12.28.06-.07Q46.6,8.91,46.54,8.91Zm0,2.17v.07l.12,0,0,0v0l0,0Zm0,.31v.06l.06.06,0,0v-.15h0Zm0-4.1v0l.15,0v0l-.06-.06Zm.12.34a.32.32,0,0,0-.09.21l0,0h.06l.09-.21h0l0,0Zm-.06,2v.07h0V9.58Zm.09-2,.06,0v0Zm0,1.37v0l.19.06h0V9l-.08-.09Zm0,.55v.06h.06l.07-.06V9.4Zm0,.61v.06l.1,0v0Zm0,1.74V12l.1-.09v-.13Zm0,.25v.06h0v-.06Zm.13-.28h0l.06,0v0Zm0-7.15h.06V4.57ZM47,6.49v0s.05.07.15.09,0-.06.09-.06v0l-.06-.07h0ZM47,9,47,9.15l0,.16h.09l0-.16V9.09ZM47,9.67v0l.06.07h0Zm0-5.32v0l.12,0,.09,0-.06,0Zm0,4v.06l.06-.06Zm.06-4.1v0h.06v0Zm0,3.49v.06h0V7.69Zm0,2.9v0h.06v0Zm.06.24.06.07v-.12Zm.33-3.51,0,0v0l0,0h0l0,0v0l0,0Zm.28-.49.06.06,0,0h0Z"/><path class="cls-2" d="M48.62,3.94h.19l.12,0,.12,0h0a.34.34,0,0,0,.27.12l0,0v.25s-.07.07-.21.09v0l.06.06h.15v1.7l-.06.09v.07l.09.12,0,.22v.55h0l0,0h0c-.08,0-.18.08-.31.24v.07a.7.7,0,0,0,.4-.22l0,0,0,.15v.62l-.06.09v0h.06v0l0,.12,0,.31v3.57H48.5l-.06-.06.24-.15v0l-.15,0h-.09V10.91c0-.06,0-.09.12-.1v-.09h0l0,0h0l0,0v-.58l.09-.13V10q-.09,0-.09-.06V9.61l0,0,0,0V9.39l0-.12,0-.12.06-.06-.06-.25V4.89q.21-.12.21-.24l-.21-.15V4.06A.3.3,0,0,0,48.62,3.94ZM48.5,5.17v.25h0l0-.25Zm0,1.82h.09V6.93h0Zm0-2.53.06.06h0l.16,0V4.37h-.16Zm0,2.34h.06c.09,0,.13-.06.13-.08v0h-.07Zm0,5h.06l.1-.09v-.06h0S48.63,11.74,48.59,11.83Zm.06-3.7v0h.06v0Zm.06,1,0,0v0l.07.06.09-.09Zm.07-4.53.15.21s0-.06.09-.06l0,0V4.68a.31.31,0,0,1-.21-.13Zm0,5h.06V9.55Zm.06-.18.06.06,0,0v-.1h0Zm0-5.37v0H49v0Zm0,5.25v0q.15,0,.15-.09v0H49Zm0,.3v.06h0V9.61Zm0,2.56v.06h0v-.06Zm0-6.72v.06h0L49,5.45ZM49,4.21h.19v0l-.06,0C49,4.15,49,4.18,49,4.21Zm0,1.92v.06h.1l.09-.1-.06,0h0Zm0,4.78h.06v-.06Zm.1-5.06v0q.15,0,.15-.09v0h-.06Zm0,5.64v0l.09-.09v0Zm0-7.43v0h.06v0Zm.09,2.16v.06l.06.06V6.22Zm0,.83,0,0,.09,0V7h-.06Zm0,1.51v0h.06v0Zm.06-2v.06l.06-.06Z"/><path class="cls-2" d="M50.09,12h0v.07h0ZM52.53,3.9s.22.1.67.19L53.29,4H55L55,4v.73l0,.07H53.81s-.05,0-.05-.09h-.07q0,.09-.06.09l0,.15-.06.07h0V4.83H51.35V5.5l0,0,0,0v1l0,.12c0,.09-.07.13-.12.13v0s.1,0,.15.15l-.07.06v.1l0,.12,0,.12v.13l0,0,0,0v.1h1V7.63h.06v.06h.22v.06H52.5l-.1.09,0,0h-.09c-.1.13-.19.19-.28.19l0,0v.06h.12l.19,0,.15,0a.39.39,0,0,0,.25.12h.12c0-.07.06-.17.19-.3a.2.2,0,0,0-.19-.13l-.09,0V7.75l.06-.06h.1l.15.12.21-.12h.09l0,0h0l0,0v.06a.34.34,0,0,1,.06.22h.12c.1,0,.17,0,.19-.1V7.84s-.06-.08-.16-.09V7.69h0l.13,0,.27,0h.12l.28,0,.22,0,.06.06.06-.06H55c.06,0,.08.08.08.19v.61a.33.33,0,0,0-.21.06h-.12l-.25-.06-.18.06H54l-.09,0-.15,0h-.47l-.12-.09-.12.09h-.18l-.16,0-.18,0h-.19l-.09.06,0,0-.08,0v0l0,0h-.21v0l.12.31h0l0,0V9L51.94,9l-.15-.37V8.55H51.6l0,0,0,0h-.19V8.7l.07.1h-.07V9l.07.09-.07.07v.73c0,.07-.05.1-.15.1V10h.07l0,0h0l0,0v.58s.11.05.16.15v0h-.06v0l.06.09v0a.18.18,0,0,1-.12-.16h0V11l.1.12h0c-.08,0-.13-.06-.13-.12h-.06l0,.15.07.07v-.1h.08v0l0,0,.07.21,0,0h.22v0l0,0,0,.1h.06c0-.13.1-.19.28-.19,0,0,.12.07.37.09l.15,0s.07,0,.07.1h0c0-.07,0-.1.07-.1h.49l0,0,0,0h1.35l.07.06a1,1,0,0,1,.4-.06l0,.06v.28h0l0,0-.28.12.09.12,0,.1.25-.18,0,0v0l-.27.31-.06-.07.06-.06,0,0v0a.2.2,0,0,0-.22.19h-.18v-.07h-.06l-.1.07h-1l0,0,0,0h-.3l-.1-.07-.27.07-.16,0q0,.09-.06.09l-.19,0-.15,0c0,.05.05.08.15.1v0q-.09,0-.09.06v.28c.11,0,.16,0,.16.09l0,0v0l0,.09c0,.09,0,.13-.16.13v.06h-.06l0,0h0l0,.09,0,0v0l-.09.09,0-.09,0,0v0l0-.09h0l-.18.05c0,.09,0,.13-.15.13v0l0-.1h0c.06,0,.09,0,.09-.05h-.06v0c0-.05,0-.09.12-.1s-.06-.07-.19-.12v-.06a.33.33,0,0,1,.19-.16l0,0v-.06l.25,0v-.15a.12.12,0,0,1-.13-.13h-.28l-.06-.06-.33.06.12.16-.06.06,0,.09,0,0h0l-.08-.21,0-.13v0h-.19l-.15,0,0,0v0c-.1,0-.16-.05-.16-.09v-.15c-.06,0-.09,0-.09-.07s.09,0,.09-.12l0,0v0l0-.12v0s0-.06.09-.06V11.5q0-.3-.09-.3v-.07l0-.15q-.24,0-.24-.24s.06,0,.06-.1h0c0,.06,0,.1.06.1h.06l0,0,0-.16V10c.17-.11.25-.2.25-.28l-.25-.16V5.17l0,0v0l.4.13L51,5.17c0-.08-.08-.12-.19-.12h-.31L50.4,5V4L50.46,4h1.82Zm-2.28,8.25h0v.06h0Zm.24-4.61v0h.1v0Zm0,.34h0l.06-.07h0Zm0,1.65h.06l.06,0h-.06Zm0,2.34h.06v-.06Zm.3-7.6c0,.06,0,.1-.06.1h0l0,0-.12,0v0a1.82,1.82,0,0,1,.55.31h.28s-.1-.11-.28-.19c0-.06-.06-.09-.19-.09l0-.16Zm-.24,6.34v.1s.06,0,.06.08l.18.07.07-.07-.16-.24Zm.06-4.52s.08.09.25.12h0V6.09l-.1,0Zm.09.19v0h.09v0Zm0,.89v.09h0V7.17Zm0,1.08v.08H51V8.25H51v0Zm0-1.55v.07h0V6.7Zm.07,4.56v.06h0v-.06Zm.08,0c0,.06,0,.09-.08.09v.09h0q.09,0,.09-.12v-.06Zm0-4.56,0,0v0H51Zm0,3.54v.07h0v-.07Zm0,.25v.06l.06.06,0-.12ZM51,11v.06h0V11ZM51,7.1v.07h.12l.15-.07V7Zm0,2.9.06.06,0,0v0Zm0-.34v0h.06v0Zm0,2.83h.09v0l-.06.09h0l.09,0,0,0v0l-.07.06s0-.06-.12-.06Zm0-4v0h.06v0Zm.16,2.15v0l0,.09h.16v0l-.16-.1Zm.21.68,0,0v.06h0l-.06-.06,0,0Zm0-2.74.06.06,0,0h0l-.06-.06,0,0Zm-.06,1.82.06.06v0h-.06Zm0,.15h0v.06h0Zm0-3.45h0l.06.07h-.09Zm.18,4.1,0,0-.06.06v0l-.09-.09Zm-.15-3.79h.06l-.06.06Zm0,1.48h0V9h0Zm.06,1.87h0l-.06.07h0Zm-.06.28.06.06v0h-.06ZM51.69,7V7L51.63,7l0,0Zm-.06.31h.09v0l-.06.06,0,0Zm.06.28v.09l-.06-.06,0,0Zm0,1.16,0,0v0l-.06.06,0,0v0Zm0,2.25.19.18-.06.07h-.06l-.07-.07h.07v0h-.07v0l-.09,0V11Zm-.09.74v0h.09l0,0v0h0ZM51.85,10l0,0v0l-.19,0V10Zm-.13-3.85h0l.06.06v0h0l-.07-.06Zm0,4.52h.07v.07h-.07Zm.07-3.57h.06v.07h-.06Zm0,.31h.06v0h-.06Zm0,3.88h0v.06h0Zm.09-.5v.07h-.06Zm0-4.82H52V6h-.06Zm0,5.78v.06h0v-.06ZM52,9v0l0,0h.06L52,9.11l0,0v0L52,9.23h0v0l0,0v0l-.06-.07,0,0Zm0-4.92v0l.16,0s0-.06-.1-.06Zm0,7.72v.06h0v-.06Zm0-9.35h.06v.09H52Zm0,9.45,0,0h.07l0,0h0l0,0v-.06h.06l0,0v-.06s0-.06.13-.06v0h-.06v0C52.21,11.63,52.14,11.73,52.06,11.94Zm0-3h0V9h0Zm0-6.62h.06l0,.13,0,0h0Zm.12,9.88v.06h0v-.06Zm.09-2.67h0l.06,0-.06.13h-.09V9.53Zm.09-6.9h0l.07.06-.19.16,0,0v0C52.39,2.69,52.43,2.64,52.43,2.58Zm-.12,5.33h.06v0h-.06Zm0,.86h.06v.12h-.06v0l0,0v0Zm0-4.37v.06h0V4.4Zm0,4.06.12,0v0L52.4,8.4Zm0,3.48V12h.09V11.9Zm.12-6.59.12.12-.08.1-.1-.1v0Zm.07.25v0l-.07.06h0Zm-.07-1.94h.07l-.07.06Zm0,8.34v0h0v0Zm.08-4.19h.07l-.07.07Zm0,4.13v0h.07v0Zm.19-7.2V4.8h0V4.74Zm0,1.35h.06v0h-.06Zm0,6v.06h.06v-.06ZM53,11.9V12h.1l0-.08,0,0Zm.25-.3v.12s0,.06.09.06.13-.06.13-.09v-.06l-.1-.1h-.06Zm.09.27v0h.07v0Zm.1.13v0h.06v0Zm.12-3.88v.06h0V8.12Zm0,3.88v.06h0l.09-.09h0Zm0,.15v.06h0v-.06Zm.15-9.07h0l.07.06,0,.12h-.1v0Zm0,.4.1.09-.07.06,0,0Zm.15,8.15v.12h0q.12,0,.12-.09v0Zm.07.55.12,0,.1,0v-.12L54,12A.2.2,0,0,0,53.88,12.18ZM54,7.84v.07l.07,0,0-.08,0,0Zm.19-3.6,0,0v0a1.25,1.25,0,0,0,.47.21h0V4.43A1.1,1.1,0,0,0,54.22,4.24Zm0,7.7.16.06c0-.11,0-.16.12-.16l0,0v0l0-.15h0C54.27,11.72,54.18,11.82,54.18,11.94Zm.31-7.76.06.06h0l-.07-.06Zm.06,4.19h.07V8.3Zm.07,3.5h0c.16-.08.24-.18.24-.27l0,0h0A.28.28,0,0,0,54.62,11.87Z"/><path class="cls-2" d="M31,18.28h.7l.06.06V19l0,0-.21,0h0l0,0,.07.06h.21v.06h-1l0,.1h0l0,0v0l0,0h-.19l0,.13-.05-.06v0l0,0h-.19v.1h-.09v-.07l0,0H30l0,.13s-.06,0-.06-.13h-.18v0l0,0-.06.09v.06l.06.09s-.06.08-.16.12h0v0l0,0v-.09h-.06l-.09.06q0-.11-.21-.15a.08.08,0,0,0-.09.09h-.1l0,0v.06H29v-.06q-.12,0-.12.09v0l.18.18c0,.09.05.13.16.13l.21-.16h0l0,0v0l.15,0h.1v.65l0,.15.06.16,0,.15,0,.12,0,.13,0,.12,0,.12,0,.12,0,.12,0,.13-.06.34,0,.12v1.59a1,1,0,0,0,.06.4l0,0v.22q.09,0,.12.15l-.06.09v0l.18,0,0,0,0,.12-.21.18v.1h.09l.25.24v0l0,0h0l0,0H30v0l0,0v.07a.44.44,0,0,1-.09.27v.15l0,.16,0,0h0c0,.17,0,.25-.09.25h-.06l0,0,0,.25a1,1,0,0,1-.4.12l.09.12v.06l0,0,0,0,0,0h0l0,0-.07.12h0c0-.05-.1-.11-.31-.19l-.06.1,0,0v.09l0,0L29,27V26.8h-.06v.06h0c-.14-.1-.21-.17-.22-.21l.07-.06v0l0,0v-.07l.07-.08V22.85l0-.15,0,0,0-.12.09-.31-.06-.09v-.31l0,0,0,0v-.59l0,0,.15,0,0-.09s.06,0,.06.09h0c0-.06,0-.09.13-.09s-.15-.17-.43-.34v-.12s0-.07.09-.07v-.08s0-.07-.12-.1v0l0,0v-.55l0-.16,0-.09,0-.15.24-.15v0l0,0c-.06,0-.09,0-.09-.07l-.09.07h0v0l0,0h-.13l-.15,0,0,0-.12.13a.29.29,0,0,0-.22-.13h-.74l-.15,0-.09,0h-.43l0,0s.07-.07.22-.09l.24-.09v0l0,0h0l0,0h0v0s0-.06.12-.1a.4.4,0,0,0,.28.1h.21v0h-.06v0s.06-.07.18-.09v0a.62.62,0,0,1-.33-.07l-.12,0h-.1l-.06-.06v0l0,0h-.12l-.06.06-.09,0-.16.06-.06-.06v-.18q.12,0,.12-.06h.9l0,0v0l0,0h.05c0-.06,0-.09.07-.09h1.62l.22,0,.09,0,.12,0,.12,0,.13,0,.12,0,.12,0,.12,0,.13,0h0l0,0,.15,0Zm-3.93.12v.06l.06-.06Zm.43-.06h0l-.06.06.15,0v0Zm.09.55h0l0,0,.06.06h.1l.05-.06Zm.18-.21v0h.07v0Zm0,.12v0h.1v0Zm.34-.37h-.21l-.09.09c0,.09.11.13.33.13,0,.1.06.15.1.15h.12l.06-.07v0l-.18-.06v0q0-.08.12-.09C28.36,18.46,28.28,18.43,28.12,18.43Zm.18.46v0h.07v-.09Zm.19,2.42-.06.06h0v-.09l0,0Zm.06,1.81,0,0,0,.15h-.06l-.06-.05v-.07l.06-.06Zm0-2.7-.06-.06h.06Zm0,2h0v-.07h0Zm.1,3.49,0,0h0v0l0,0L28.52,26v0l.07-.06h0Zm0-7.36h-.05l0,0v0l0,0,.11,0Zm0,6.84h-.05v0h.05ZM29,25v0h.06l0,0v0l0,0Zm.09-6.53-.06.06v0l.1,0,.12,0v-.09Zm.59.49-.15,0,0,0-.13,0-.16.09L29.1,19,29,19a.51.51,0,0,1,.31.12h.16l.11-.15.16,0,.12,0v-.06Zm-.62,6.69v0h.07v0Zm.1-6.11H29.1v0h.07Zm-.07,1.35v0h.07v0Zm0,1.9v0h.07v0Zm.07,1.47h0l.27.34v-.15S29.33,24.35,29.17,24.25Zm0-5.45v.06h0V18.8Zm.12.64H29.2v-.06h.09Zm-.09,2.15q0,.15.09.15l0-.15Zm0,4,0,.09q.12,0,.12.06l.06-.06v-.06Zm0-3.56h0v.06h.1Zm.15-3,0,0-.06.06h0l0,0,.06-.06Zm0,.52,0,0-.06-.07h.09Zm-.09.83v0h.06v0Zm0,.95.06.06h.06v-.06ZM29.38,20V20h.09V20Zm0,.49v0l.09,0v-.07Zm0,2.43v.06q0,.09.18.09v-.09Zm0-4.3v0h.12v0Zm.12,2.09h-.12v0l.1.09.08-.06Zm.1,4.17v0h.09v0Zm0,.33v.07h.09v-.1Zm.06-.7v.07h0v-.07Zm0,1.35v.28l.15-.09-.09-.1,0,0,0-.12Zm.06.31v.09h0l0,0Zm.12-2.46v.07h0l-.06-.07v0Zm-.09,1v.06l.06-.06Zm0,.15v0h.09v0Zm0,.36v.13h0l0-.09v0Zm0,.22v0h.06v0Zm.09-7.3h-.06v0h.06Zm0,1.23h-.06v0h.06ZM30,24.9l0,0s0,.06-.12.09L29.84,25v0h.06l0,0v0l0,0Zm-.15.58v.06h0v-.06ZM30,18.21h0v-.06h0Zm0,1.23h0v-.06h0Zm.15-1.35h-.05V18Zm.13.71h-.06l-.12.06q0,.12.09.12l0-.12.09.09.09,0v-.06Zm-.15.52h0v-.06h0Zm.15-1.11h-.09v0l0,0Zm.37,6.2-.06.15-.37.13h0l.09-.25q.27,0,.27-.15h.07Zm-.37-5.95v0h.12v0Zm.06,7.3h0V25.7h0Zm.06-7.67h-.06v0h.06Zm.12.12h-.08v0l0,0Zm.13-.12h-.1v0l0,0Zm-.1.52v0l.07.06h.06l0-.1Zm.07.71h0v-.06h0Zm.12-1.11h0v-.06h0Zm0,.47v0h.06v0Z"/><path class="cls-2" d="M31.57,20.45c.63.49,1,.77,1,.85l0,.12v.06h.06l-.06.09,0,.12,0,.13v.06h.06v0h-.06v.16l.12,0,0,0h.63l.1.06h.06l.09-.06a.37.37,0,0,1,.21.18v.09s0,.06-.09.06v.09l.09.15,0,.12,0,0h0c-.06,0-.09.05-.09.13l-.21.06,0,0h0l-.11,0,0,0-.21,0h-.24l-.09-.06q-.09,0-.09.18l-.15.06-.07-.15h-.06l0,0v0s-.06,0-.06.12h0l-.12,0-.09,0,0,0-.12.09-.15,0,0,0v0q.18,0,.18.09v0h-.06v0H32l.24-.06.1,0v.06h0l-.1,0v.06a.36.36,0,0,1,.28.15v.7c0,.06,0,.1-.12.1v0s0,.06.09.06l0,0v0s0,.06-.1.06l0,0v0l.09,0v.13q-.09,0-.09.06v0l.05.09,0,0v0c.07,0,.1,0,.1.06v.09l-.1.12c.07,0,.1,0,.1.07l0,0,0,.15v1l-.07.06h-.05l-.1-.06-.24.06H32v-.15h-.06a.41.41,0,0,0-.27.15h0l-.07-.06V25.51l0-.11,0-.13v-.39l.13-.15c-.08,0-.13-.06-.13-.1v-.54s0-.06.1-.06l0,0v-.06c-.08,0-.13,0-.13-.06v-.49l0,0,0,0v-.06l0,0,0,0V23l0-.11c0-.15.05-.22.09-.22s.08.09.18.09H32l0-.18h0l-.12,0h-.27l0,0h0l0,0v-.73l.07-.09-.07-.06v-.12h.07a.45.45,0,0,0,.24.09l.06-.09v-.06c0-.05-.12-.1-.37-.15v-.09l0-.13,0-.11,0,0v0l0-.11,0,0v0l0-.12,0-.12,0,0Zm0,2.4.07.06v-.06Zm0,.6.06.07h.12v-.1h0Zm0,1.92v0l0,0v0a.16.16,0,0,0,.15-.16h-.12Zm.06-3.22v.06l.18,0v-.06s0-.06-.09-.06Zm0,2.64v0h.06v0Zm0,.3v0h0l.12-.09,0,0Q31.7,25,31.7,25.09Zm.12-6.8h.82l.06.06v.16s0,.06-.09.06a.32.32,0,0,0,.09.21V20l0,0,0,0v.13l0,0,0,0v.18h.06v0H32.7v.06l0,.12,0,.12v.07h.06v0H32.7V21h.06V21l-.12,0-.88-.75v-.36c0-.05,0-.07.09-.07l0,0v0l-.12-.18V18.35Zm-.06,4.62V23h.09l.06-.05,0,0h0Zm0,.85.12,0,.09,0V23.7l-.09,0Zm0,1.75h.06v-.05Zm0,.77v0h0l.09,0v-.06h-.06Zm0-.73v0l.12.06a.18.18,0,0,0,.12-.13h0Zm0-7v.06h0v-.06Zm0,7.25h.06v-.06Zm.06-5.49q0,.09.18.09l0,0q0,.09.12.09l0,0v0l.11,0v-.06l0,0v0l0,0h0L32,20.27Zm0,1.6h0l.06-.05h0ZM32,19.51v.06l.09.09.06-.06-.09-.09Zm0,4.09v0h.06v0Zm.06-1.36,0,0v0h.09Zm.12-2,.07.06v-.06Zm.13,1.42c0,.06,0,.09-.13.09v0h.07v0l.11-.09Zm.05-1.85-.05.09.24.09h0v-.09C32.64,19.82,32.57,19.79,32.42,19.78Zm.16-.91v0h.06v0Zm0,2.49h0v.06h0Zm0,.21h0v.06h0Zm.09.09h0v.06h0Zm.12.09,0,0v0h-.09Zm0-.18h0v.06h0Zm0,.4h.06l-.06.06Zm0-1.1h.06l-.06.07Zm0,.18h0v.07h0Zm.06.83h.06v0h-.06Zm0-1.49H33v0h-.06Zm0,.79H33v0h-.06Zm.15,1.39c0,.06,0,.1-.12.1v0q.12,0,.12.15h0l0-.18,0-.1ZM33,21.78H33v0H33ZM33,22H33v0H33Zm0-1.1h.06v0H33Zm0,.4h.06v0H33Zm.16-.12v.06h-.07Zm-.07.21h.07v.06Zm0-.39h0V21h0Zm.09.08h0v.07h0Zm0,.4h0v.06h0Zm.06.43h0v.05h0Zm0-1.49h.06v0h-.06Zm0,1h.06v0h-.06Zm.06,1.12v0q0,.09.12.09t.12-.09Zm.12-1.12h.06v0h-.06Zm0,.18h0v.06h0Zm.09-.09h0v.06h0Zm.18.21h.06v0h-.06Zm0,.27h.09l.06.07v0l-.06.06L33.79,22Zm0,.37h.06v.06h-.06Zm0,.3h.06v0h-.06Zm.12-.18H34v.09h-.06ZM34,22h.08v0l0,.15H34v0l0,0v0Zm.05.54h.06c.19.13.29.22.31.28v0l-.06.06h0l0,0,0,0h-.06l-.06-.06,0-.1h0c-.06,0-.1-.08-.1-.18Zm.06-.57h.1v.27l-.06.06,0,0Zm.37,0h.09s.06.08.06.22h0q0-.18.06-.18l0,0v.27s0,.06-.12.06v.27l-.06.07-.3-.31q0-.21.12-.21C34.4,22,34.43,21.93,34.49,21.93Zm-.21.85v.07h.06v-.07Zm.45-.42,0,.09,0,.27h-.06v0l0-.13,0-.12v0Zm.13-.43,0,.07v.63h0l0,0h0l0-.15v0l-.07-.09V22Zm1.91-3.64h.78l.07.06v.25l0,.12,0,0,0,.37v.21l0,0,0,0v0l0,.12,0,0v0l0,.15,0,.21h0l0,0v0l0,0,0,.16v.15l0,0,0,0,0,1v.73l0,.12,0,.12.16,0s0,.06-.13.06l0,0v0l.07.06,0,0v0c.1,0,.16.05.16.09h0l-.13,0v.12h0l-.08-.07,0,.16v.69h.08v.19l0,.18,0,.15,0,0v0l0,0-.08.61v0h0v-.06l.06.06,0,0,0,0v.24h0a9,9,0,0,1-1.12-.94v0l.06-.09L36.52,24v-.15s0-.06.12-.06V23q-.12,0-.12-.18h-.36s-.06,0-.06-.08H36c0,.05,0,.08,0,.08h-.06l-.13-.18h0l-.13.07.06.08,0,0H35.4l-.25-.11s0,.08,0,.08a.19.19,0,0,1-.13-.21l0,0,0,0h0l0,0,0-.15V22l.06-.07h.25l0,0,0,0h.06c.22,0,.36.06.42.19.19,0,.28-.05.28-.09s-.15,0-.15-.06l0,0H36l.18,0,0,0h0l.18.13.06-.16v-.39l0-.15,0-.18v-.61s0-.06.12-.06v0l-.12,0,0,0,0-.15v-.33l.06-.1-.06-.09V18.42C36.52,18.36,36.6,18.32,36.77,18.29ZM35,22.15v0l.08.09.07-.06v-.06l-.07-.06h0Zm0,.39v0h.08v0Zm.54,0v0h.06v0Zm.67-.3,0,0v0l-.09.12.06.18-.06.06v0h.09l.15,0v0l-.06-.1.15-.15v0l-.21-.21,0,0Zm.21,2.24a7.61,7.61,0,0,1,1,.85l-.06.07.06.06v.05H37.4v0a.87.87,0,0,0,.3.31l0,0h0a.55.55,0,0,1,.11.3h0q0-.09.06-.09l.06.49-.09.05,0,0h0l0,0-.12,0-.15,0-.19,0v0l-.09.1h-.82l-.06-.06v-.15h-.12v-.1c.06,0,.09,0,.09,0s-.12-.06-.12-.16,0-.15.12-.15v0q-.09,0-.09-.06v0l.09-.12,0,0v0l.06-.21,0-.09,0-.28V25l0-.12,0,0v0c0-.11,0-.16-.09-.16ZM36.74,23V23l0-.07Zm.08.13,0,0v0l0,0h.07v0Zm.4,0v0h0l.09,0,0,0V23h-.09Zm0,.06v.12h.06v-.06Zm.06.45v.07h.06l.06-.07Zm0-4.27v0h.12V19.3Zm.21,6.43v.06h0v-.06Zm.1-1.61v.06h0v-.06Zm.12,2.13,0,.08.06-.06v0Z"/><path class="cls-2" d="M37,24.77l.06.06-.09.06-.06-.06Zm.38-.83,0,0v0c0,.05-.07.09-.2.11l0,0v0A.37.37,0,0,1,37.33,23.94Zm.21-3.06h.09l-.06.06,0,0Zm4.15-2.57h.21a4,4,0,0,1,2.82,1.12l0,0h0l0,0h0l0,0v0l0,0v0l0,0h.06v0l0,0v0l.06.06,0,0h.08s0,.06-.08.06a2.68,2.68,0,0,1,.41.56l.18-.06.06.06-.12.06v.06l.2.56v0h-.17v0l.15,0,0,0h0l.09.21v.06l0,0v0c.08,0,.15.35.21,1v.09l-.12,1H46v.06q-.12,0-.15.3a4.17,4.17,0,0,1-2,2.37,5,5,0,0,1-1.93.48v.06h-.06v-.06a4.15,4.15,0,0,1-3.7-2.11v-.06a.08.08,0,0,1,.09.09c.07,0,.11-.06.11-.09s-.06,0-.06-.12h0v.06h-.13a2.42,2.42,0,0,1-.41-1.09l0,0h0s.1.06.29.06l.45.47h0l0,0v-.18h.18q.09,0,.09.12l0,0h.06l.06-.15v-.12c0-.1,0-.16-.09-.17s-.15.06-.15.2l-.09.06h-.12l0,0h0l0,0v-.06c-.06,0-.09,0-.09-.11s0-.06-.11-.06l0,0v-.1h0v.07a.3.3,0,0,0,.15-.24l-.3-.36c0,.1,0,.15-.11.15v.06l.08,0L38,23h0q0-.12-.09-.12l-.18,0v0a.11.11,0,0,1,.12.12l0,0h0q-.11,0-.15-.36v-.18A4,4,0,0,1,39,19.29h.07c0,.07,0,.11,0,.11l0,0,0,0v-.15A4,4,0,0,1,41.69,18.31Zm-3.85,2.93v0H38v0ZM38,23.05v.08l-.06-.05,0,0Zm.32.8v0h.09v0Zm0-2.67v.06l0,.15.18-.12.12,0h0v-.06h-.21s-.06,0-.06-.12h0ZM38.52,24l0,0v.05c0,.13,0,.19.09.19h0v0l0-.13,0-.08h0l0,0Zm0,.3v0h.06v0Zm.3-.27a1.48,1.48,0,0,0-.24.44v.06h.12v-.15a.49.49,0,0,0,.18-.3Zm-.21-1.75v.23h0l0-.23Zm0,.71c0,.14,0,.2.09.2l.12-.17-.09-.09Zm.12,1.39v.06h0v-.06Zm.06-2.87v.06h.06v-.06Zm.06.17v.06a.34.34,0,0,1,.08.18H39l.1-.09v-.05a.32.32,0,0,1-.19-.1Zm.21,1s-.06.11-.19.21l0,.21,0,0h0l0,0v0l0,0c.12-.05.19-.12.19-.21l0,0,0-.06v-.06Zm-.19,1.9,0,.12,0,.12,0,0h0l0-.18,0-.09Zm0-.77,0,0v.06l.06.06h0l0-.15Zm0-2.91L39,21h0L39,20.91Zm.09,1.4v0l.07.06h0Zm0,1.07v0h.07v0Zm0,.5v0l.07.06h.05v-.09l-.05-.06Zm.07-.83.05.06,0,0,0-.09Zm.05-.65.09.06h0l.06-.06v-.06l-.06-.06h0S39.2,22.32,39.17,22.4Zm.15,2.28-.06.09.06.06h0l.06-.06v-.06Zm.15-9v0q-.11.24-.15.24l0,0v0s.06-.07.09-.21Zm0,2.7,0,0v0l0,0h0l0,0v0l0,0Zm-.06,3.77h.06v-.06Zm.12.94,0,0v0h.08Zm.32-5.42,0,0,0,.09h0v-.06Zm0,4.63,0,0v0c-.06,0-.08.07-.08.17h0l.21-.29v0A.32.32,0,0,1,39.82,22.34Zm0,2.49v0h.15v0Zm.09-9.61,0,0v0l0,0h0l0,0v0l0,0Zm-.06,5.58v0c0,.11,0,.17.09.17v-.06l0-.14Zm0,2.72v.15q.18,0,.18-.09v0l-.15,0Zm.06-4.45v.06h0v-.06Zm.06-.05v0l.06.06h.09S40,19,39.94,19Zm0,2.9v0H40v0Zm0-.44.09.08h0L40,21.48ZM40,18.87,40,19l.12-.12Zm0,4.71v.06h.06v-.06Zm0-.65v0l.06.06,0,0v0l0,0Zm.18-3v0s0,.07.15.08S40.36,20,40.27,19.91Zm.09,1v0h.14l0-.05Zm.11,3.59v0l.06.06v-.09Zm0,.21v0h.07v0Zm0-1.1v0h.07l.23-.06v0h-.06Zm.07-4.06.06.06h0l-.06-.06Zm.2,2.64,0,.09h0l.06-.06,0,0Zm0,.5v.06h.06v-.06Zm0,2v.06H41q.22,0,.24-.09v0h-.12Zm0-6.05h0l.09-.09v0Zm0,4v0h.06v0Zm0,.48v.05h0v-.05Zm.12,3.14H41q.23,0,.24-.09h-.06Q40.94,26.13,40.92,26.22Zm0-5.69v0H41v0Zm0,5.34v0h0l.15,0v0h-.09Zm0-3.12v0h.06v0Zm.12-2.11h-.06v.06h.15l.5.07.06-.1-.17-.05Zm0-3.19h.09v0l-.06.06h0Zm0,1.27v.06l.15,0h.14v0Zm0,4.8v0h.09v0Zm.12-6.67,0,0v0l0,0h0l0,0v0l0,0Zm0,2.82v0h.06v0Zm.12-2.25,0,0v0l0,0h0l0,0v0l0,0Zm-.06,4.79v.1h.09Zm.09-.05v.05l.05-.05Zm0,1.33v.06l.05-.06Zm0,6.2h.05v0h-.05Zm0,.45h.05v.08h-.05Zm.08-13.32h.06v0h-.06Zm0,13.11.1.05,0,.1h-.06Zm0-10.59v.06h.1a.5.5,0,0,1,.29.09l.12,0V19.4l-.15,0h-.29l0,0Zm.07-.5a.35.35,0,0,0,.32.15l.06-.06q0-.09-.18-.09Zm0,3.62v.05h.05v-.05Zm.2,7.76.06.06-.15.12h-.06v0Zm-.12-8.09s0,.06.12.08v0l-.06-.06Zm.15-3.56v.06H42v0ZM42,21.48v0l.06,0h.06l-.09-.08ZM42.26,24V24h.27l0-.15Zm.05.38v0h.06v0Zm.15,0v0h.21l.06-.06h-.06Zm.15-3.62v0l.15.07.12,0-.06-.07Zm.15-4.65,0,0v0l0,0H42.7v0Zm.2,2.61v0H43v0Zm.1,7v0h.15v0ZM43.23,24v0h.06v0Zm.15-3.39v0h.06v0Zm.09-2.75h0V18h0Zm.09-2.79,0,0v0l0,0h0l0,0v0l0,0Zm0,10.29v.06l.09,0v0Zm.06.36v0h.09v0Zm.12,1.8,0,0v0l0,0h0l0,0v0l0,0Zm0-8.59v0h.06v0Zm.3,6.28v0h.11v-.06Zm.08-.92v0h.09v0Zm0-4.18v.06q0,.09.18.09h.12v0c0-.08-.11-.12-.27-.12Zm.06,2.2q0,.09.24.09h.06l.09-.09-.18-.06Zm0,2.16h.12l.09-.09h0Q44.21,24.44,44.21,24.5Zm.18-4.68.06.06h.09l.06-.06Zm.24-2.26v0l-.06.06,0,0v0l0,0Zm-.09,1.6h.06l-.06.06Zm.09,1.16.06.06h.09v-.06Zm.15-1.16h0v0h0Zm.11.13h0v.05h0Zm.1,2.1v0h0v0Zm0-2h0v.06h0Zm.11.12h0v.06h0Zm0,.23h.06l-.06.07Zm0,4.22v0h.18v-.06h0Zm.09-4.33h0v.06h0Zm0,3.29v0h.06v0Zm0,.53v0h.06v0Zm.06-.62,0,0v0l.18,0v-.06h-.06Zm.06-3.09h0v.07h0Zm0,.24h0v.06h0Zm0,2.29,0,0v0l0,0h.06l0-.09Zm.09-.12v0l.15,0,.09,0v0l-.15,0Zm0-2.52h0v.06h0Zm0,.24h0v.06h0Zm0,.23h0v.06h0Zm.15-.12,0,0v0h-.09Zm0,2.05v0h.06v0Zm.06-1.93h0v.06h0Zm0,2.17v.06h0v-.06Zm.14,3.23h0l.06.06,0,0h-.06Zm.27-.36,0,0v0l0,0h0l0,0v0l0,0Zm.09-6.49.06.06-.09.06,0,0v0Zm.09-.39.06.07,0,0H46.2v0Zm.09,3.35,0,0v0l0,0h0l0,0v0l0,0Zm-.06,1.1h0l.06.06v0h-.09Zm1,1.63.36.12v.06h-.06l-.05-.06,0,0h0q-.21,0-.21-.09l0,0Zm.48-3.11.06.06,0,0h0l-.06-.06,0,0Zm0,2.67h.09l-.06.06,0,0Z"/><path class="cls-2" d="M41.25,27.09l0,0v0c0,.05-.09.1-.25.16l-.09,0s-.09.08-.25.1l0,0v0a1.43,1.43,0,0,0,.46-.19Zm.62-4.82h.19v.07l-.16,0,0,0Zm.5,3.76.06.06-.13.1-.12,0-.06.06-.06-.06S42.16,26.07,42.37,26Zm.06-3.79h.09l.06.06v.07l-.15,0c-.17,0-.25,0-.25-.1Zm.21,1,0,0v0l-.35.06V23.3Zm1.15,1h0v.06h0Zm.87.9v0l-.06.07,0,0v0l0,0Zm0-1.4h0l.07.07,0,0h-.07ZM45,27.37v0l-.08.09h0V27.4Zm.07-1.18,0,0v0l-.1.06h0v0Zm.16-2.52h.05l.07.06c0,.05-.1.08-.31.1l0,0v0Zm.15,3.48v.09c0,.06-.1.1-.28.13v0A.31.31,0,0,1,45.41,27.15Zm8.2-8.91.15,0h.87l.07.06v.15c0,.06-.05.1-.13.1v.06h.13v2.73l0,.12,0,0v0l0,0v0l0,.1,0,0v0l0,.09,0,0v0l0,0v0l0,0v0l0,.09,0,0v0l0,.13h0l0,.09,0,0v0l0,.09,0,0,0,.16v.56l0,0,0,0V24l-.07.1.07.06v.52l0,0,0,0v1a1,1,0,0,0-.41.38h0l.35-.13,0,0v.25l-.07.09.07.1v.09c0,.06-.12.09-.34.09h-.07s-.06,0-.06-.12l-.4.12-.07-.09v-.19l0-.12,0-.12v-.07c0-.06.12-.1.34-.12v0L54,25.91l-.21.09-.07-.09v-.56l0-.43,0,0,0-.22V23.14c.16,0,.24,0,.25-.09v0h0l-.22,0,0,0v0l0,0v0l0,0v0l0-.1,0,0v0l0,0v0l0,0v0l0-.09,0,0v0l0-.09,0,0v0l0,0v0l0-.09,0,0v0l0,0,0-.16v-.59s.07-.08.19-.13-.06-.09-.19-.12v-.34l0,0v0l.15,0h.12V20.6l-.31-.28v-.94l-.4.81s-.08.15-.15.44L53,21h0l0,0h0s-.07.06-.19.06v0H53a1.23,1.23,0,0,1-.31.65l0,0v0a4.67,4.67,0,0,0-.38.94l.07.06-.1.09,0,0h0l-.28.67,0,0h.06l.07.06v0l-.07.06H52l-.09-.06-.34.84.06.06c-.09,0-.2.17-.31.49l-.15.07s0,.06.09.06v.1c-.09,0-.19.24-.31.65l-.16.18,0,0a2.09,2.09,0,0,1-.27.62H50l-.09-.09v-.24c0-.05,0-.07.09-.07v0c-.1,0-.15-.07-.15-.22h0v.22h-.06a1.12,1.12,0,0,0-.16-.4v-.07s0-.06.09-.06v-.09q-.09,0-.09-.12l0,0h0v.1h-.06v0l0,0v0c-.06,0-.15-.14-.27-.43h-.09v0c0-.15.1-.22.15-.22v-.09l-.15.06v0l0-.1,0,0v0l0,0H49l-.09-.34v-.15c.06,0,.09,0,.09-.1l0-.12c.06,0,.1,0,.1-.06v0c-.09,0-.13,0-.13-.1l0,0h-.07v-.34h.07v.07l.06-.07-.06-.19-.19.19h0v0c.06,0,.09,0,.09.07V24h-.06c0-.22-.1-.34-.15-.34l-.1.1h-.06l-.06-.07.22-.06c0-.15-.1-.25-.28-.31l-.07.06h-.09v0s.08-.07.25-.09v0l-.4-1q.09,0,.09-.18v0h-.16a.66.66,0,0,1-.21-.47c-.06,0-.12-.13-.19-.38.18-.18.29-.27.34-.27s.16,0,.16-.1l-.1-.06-.18.12h-.13l-.12-.06-.15,0-.5-1.17,0,0h0a.44.44,0,0,0,.31.13l.13-.28c-.05,0-.09-.06-.13-.19-.23,0-.34-.05-.34-.15v0h-.1l.07.1-.1,0,0,0v0l-.15.07-.09,0-.25.06-.09,0,0,0v0c.15,0,.22,0,.22.1l0,0c.23,0,.34,0,.34.06v.16l-.06.09.06.06V20l-.06.09.06.06v1.56l-.06.06h0l-.13-.1a.58.58,0,0,1-.4.16v0l.19,0c0,.05.06.11.18.16v0l.1,0-.07-.1s.08-.08.22-.12v0l0,0,0,0v.62s0,.06-.15.06-.07.16-.22.19a.4.4,0,0,0-.12.22h0l.09,0,.25-.18.06.05V23l0,.09h0l.06.06v.38l-.06.06h-.34c-.13,0-.19,0-.19.09h0l.53,0,0,.19-.06.15.06.06v.31h-.06l-.06-.06-.1,0v.1c.15,0,.22,0,.22.09v.09l-.37.06v0h.22v0s0,.06-.1.06l.07.09v0l-.07,0-.09,0-.09.08v.1l.09,0s.16-.1.31-.31l0,0h0c0,.21-.05.31-.12.31h-.06v.07s.06.05.06.15l.09,0v.28s0,.06-.09.06l0,0v0c.08,0,.12,0,.12.07v.77l-.06.06H46.4s-.06,0-.06-.09l0,0h0a.22.22,0,0,1-.22.12h-.22l-.06-.06v-.56s.06-.08.16-.12a.18.18,0,0,0,.18.15V26l-.18-.12-.06.06h-.07v0l.1-.09,0,0h0v-.07l-.05-.06-.1,0,0,0v-.13l0,0v0l0,0h.07l-.13-.22,0,0h0v.06h.07l-.07-.1,0,0h0a.3.3,0,0,1,.09.18l.19-.09.06.06v0l0,0v0q.08,0,.09-.12h.06v0l-.31-.12c0,.12,0,.19-.1.19h-.12l-.06-.07V25h0l.1,0v0l0-.16,0,0c-.09,0-.13,0-.13-.07v0l0-.21,0,0-.47.09v-.09l.38-.13v0c.06,0,.11-.08.15-.25L45.78,24v-.28l0,0,0,0v-.75l0-.27,0-.13,0,0v0l0-.12c.1-.05.15-.09.16-.13v0h-.06l0,0h0l0,0v-.62s0-.07.1-.07v0c-.07,0-.1,0-.1-.07v-.9l0-.34,0-.09c.15-.05.22-.09.22-.13s-.07-.06-.22-.09v-.37s.09-.07.25-.09l.06-.1v0c0-.06-.09-.09-.28-.09l0,0v-.62l0,0v0l.19.06,0,0v0c0-.06-.08-.09-.22-.09v-.06h.44v0l0,0v0l.21,0v0l0,0v0l0,0h.65a6.08,6.08,0,0,1,.69,1.45h0l-.19,0h-.21v0a.85.85,0,0,0,.37.13l.09,0,.06.09,0,.19h0l0,0h0l.35.77-.13.13s.07.06.22.06l.1.25-.1.09a.23.23,0,0,1,.25.25l-.1,0a.66.66,0,0,1,.31.44l.63,1.43h0c-.07,0-.1,0-.1.06l.15.09,0,0,.71,1.62h.06a6.22,6.22,0,0,1,.66-1.43h0l0,0v0l.37-.93q-.09,0-.15-.12s.11-.12.34-.25l1.33-3c.23.09.34.16.34.22l.19-.16c0-.08-.09-.15-.28-.18l-.06.05h0v-.05a.07.07,0,0,1-.08-.07l.18-.37,0,0h0l.07-.06v0l-.07-.13c.12-.31.22-.46.31-.46Zm-8,8,0,0v0l-.12.06,0,0v0Zm.22-7.73v0h.07v0Zm0,7.64v0H46v0Zm0-7.43v0l.05.07.19,0a.8.8,0,0,0,.41.09l.06-.06V18.7l-.19,0Zm0,5.47v0l.12-.09v0h0ZM46,26.38h0l.12-.13v-.06h-.06C46,26.21,46,26.27,46,26.38Zm0-6.84v0h.09v-.06Zm0,5.31c.06,0,.09,0,.09.07s.07-.07.1-.19h-.1S46.06,24.77,46,24.85Zm.06-.4,0,.09h0l.1-.09Zm0-4.29v0l.07.06.06-.09Zm0,.78V21l.1,0v0Zm0-1.93v.06h.07Zm0,2.64.1,0,.09,0v-.12h-.09Zm0-2v.07h.18v0l-.06-.07Zm0,6.12.18-.15v-.06h-.06A.2.2,0,0,0,46.19,25.75Zm.06-1.21,0,0v0l0,0h0l0,0v0l0,0Zm0-3.2h.09l.09-.09h-.09Zm0,4.85.06.06h0l-.06-.06Zm.06-7.12v.07h.16v-.07Zm0,3.05v.06h0v-.06Zm0,3.23v.06h0v-.06Zm0,.4v0h.06v0Zm0-5.84v0l.06.07.16,0v0l-.06-.06Zm0,2.61v.06l.1,0v-.09h0Zm0,1.52h.06V24Zm0,1.71h.07v-.06Zm.07.31-.07.22h.07l.06-.12v0Zm0-2.33h.06v-.06Zm0,1.77v0l.06.06v0Zm.21,1.9h.07l.06.06-.31.16h0v-.1A.38.38,0,0,0,46.77,27.4Zm-.09-9v.06h.06v-.06Zm.13,8.42,0,0v0l0,0h0l0,0v0l0,0Zm0-7.36.09,0v.06h-.06l-.07-.06Zm0,4.41h0l.06.06,0,0h-.07Zm.07,2.2.06.07,0,0h-.1v0Zm.31.53,0,0v0a.26.26,0,0,1-.25.15h0v0C47,26.68,47.07,26.62,47.15,26.62Zm0-6.61v.06l.06-.06Zm0-.94h.06V19Zm0,1.09v0h.06v0Zm.12,4v0l-.06.06-.06-.06,0,0Zm0,2h0v.06h0Zm.06-6,0,0v0a1.35,1.35,0,0,1,.47.09l.09,0v-.06l-.15,0h-.31l0,0Zm.53.9a.45.45,0,0,0-.15.29l.12.15H48v-.07l-.1-.12s0-.06.1-.06l0,0v0A.22.22,0,0,0,47.83,21.12Zm0,2.86h0V24l-.06.07L47.71,24Zm0,1.71v.09h-.06v0Zm0-1h0v.07h0Zm.06-3v.06h0v-.06Zm.12,2.82,0,0v0l0,0h0l0,0v0l0,0Zm0-1.12h0v.07h0Zm.44.65h0l.06.07a.2.2,0,0,1-.19.12l-.15,0-.09,0v0C48,24.18,48.1,24.13,48.33,24.07Zm-.25-2.58v.07l.06-.07Zm.19.78v0h.12v0Zm.12,1.22.07.05,0,0h0l-.06-.06,0,0Zm.15,3.13.07.07,0,0h-.1v0Zm.07-3.6v.06l.06-.06Zm0,1.9h.09l.06,0-.06.07h-.06Zm.18-4.32h0l.1.09-.1.06q-.15,0-.18-.09v0Zm-.09,3.57.06.06,0,0h0l-.06-.06,0,0Zm0-3.79h.19v.09h-.13l-.06-.06Zm0,2.73v.07h0l0-.07Zm.19.41v.06h0v-.06ZM49,26.4h.07v.07H49ZM49.23,24v.16l0,0h0l0-.12Zm0,.25v.06h0V24.2Zm0,.22v.09c.19,0,.28-.09.28-.16h-.06Zm0-.81v.06h0v-.06Zm0,.19v.06h0V23.8Zm.13-.75h0l.06.06-.06.07-.1,0v0Zm.15,3.33.06.05v0l-.09.09,0,0c0,.06,0,.11-.12.16l0,0v0s.07-.1.22-.19Zm-.06-6,0,0,0,0h0l.06.06-.15.09h0l0-.06Zm.68,2.45h.06l.07.06c0,.09-.14.14-.41.16l0,0-.06.09.06.07s-.06.08-.18.12v0l-.16,0h0l0,0h0l0,0v0l.31-.19,0,0v0C49.7,23,49.86,22.9,50.19,22.83Zm-.62,5.65v0l-.06.07h0v-.07Zm0-4.06v0h.06v0ZM49.76,21h.12l.06.06-.09.09q-.15,0-.15-.09Zm0,4v0h.06v0Zm.09-2.62.06.07-.06.06h-.06v-.06Zm0,2.74v.62l0,0v0h.12l0-.12,0-.13-.06-.09v-.07l0-.18,0-.09Zm0-4.69h.09l.06.06,0,0h-.06l-.06-.06Zm0,5.53h.06v-.07Zm0-2h.06v0h-.06Zm.16-.4h0l.06.06v0l-.06.06h-.16v0Zm0,2.88v0h.16v0Zm0-3.13h0v.06h0Zm0,2v0l0,.21h0l0,0h0q0-.21-.09-.21Zm.12.36h.16l.06-.05v0C50.23,25.56,50.16,25.59,50.16,25.62Zm.38-2.54h.18v.1s0,.07-.16.09l-.12-.09Zm.12-2.17.06.06-.06.06h-.07l-.09-.09,0,0Zm.19,6.3v0l-.07.07,0,0v0l0,0Zm.34-.28.15,0,.13,0v0l-.19.19h.12v0l-.06.13,0,.15s-.06,0-.06.09h-.06v-.21l0,0h0a.14.14,0,0,0-.16-.16h0v-.16A.2.2,0,0,1,51.19,26.93Zm0-1.93h.05V25Zm0-1.14v0h.06v0Zm.06.12v0h.06v0Zm.06,0h.09l.16,0-.06-.06C51.37,23.87,51.31,23.9,51.31,24Zm.06-.65,0,0v0l0,0h.06l0-.09Zm.1-.12v0l.21,0v-.05Zm.09-4.45,0,0v0l0,0h0l0,0v0l0,0Zm.12,6.37,0,0v0l-.09.07,0,0v0Zm0,1.59,0,0v0l0,0h-.06v0Zm0-.91h.06v.07h-.06Zm.09,2.64,0,0v0l-.1.1h0v0Zm.1-6.15.06.07h0l-.06-.07Zm0,2H52v0l-.09,0Zm0,.56h.06v0h-.06Zm.22-.56h.06v.09c0,.07-.09.1-.19.1h0v0A.31.31,0,0,1,52.09,24.29Zm.15,1h0l0,.06-.12.12h0l0,0h0C52.16,25.35,52.2,25.29,52.24,25.29Zm-.09-4.11v.07h.13v0Zm0,.88v0a.3.3,0,0,1,.21.09l.13,0v0s-.06-.06-.19-.06l0-.1Zm.13,5.4v.09h-.07v0Zm.18-4.54.06.07v0l-.06.06H52.4V23Zm0,.29,0,0v0l0,0h0l0,0v0l0,0Zm0,2.54,0,0v0l-.06.07,0,0v0Zm.1-1.3h0v0l-.15.12h0C52.5,24.51,52.54,24.46,52.59,24.45Zm-.07-3.79v.09s.07,0,.07-.09a.23.23,0,0,0,.24-.16v-.06h0ZM52.71,25h0v.07l-.07.06-.05-.06Zm.09-.71,0,0v0l0,0h0l0,0v0l0,0Zm.1-2.76H53v0H52.9Zm.12.37h0l.06.06v0c0,.05-.07.09-.21.13V22Zm-.09-.49h0l0,.08,0,0h0Zm0,1.55h0v0l0,.09h0Zm.12-.41h.09l.07.06-.13.13H53L53,22.68v0Zm.16,1.74h.06l.06.06v.07l-.22.21h0L53,24.57C53.1,24.39,53.16,24.3,53.21,24.29Zm-.1-2.42h0v.06h0ZM53.29,24h0l.06.06v0l-.12.15-.13,0v0Zm0-3.66v.06h0v-.06Zm0-.41h.06v-.06Zm.06,1.81.06.05v-.05h0l.06.05h-.06c0,.07,0,.1-.06.1l-.09-.12,0,0Zm.12,1.14.13,0,0,0v0h.12v.06l-.06.06s-.06,0-.06-.09h0c0,.08-.06.12-.19.12L53.27,23A.17.17,0,0,1,53.45,22.89Zm0-1.4v0l.1,0c.09.05.14.09.15.13v.06c0,.06-.08.1-.18.1l-.07-.13h-.19v-.06A.19.19,0,0,1,53.48,21.49Zm-.19.41.1.09,0,0h0Zm0-.18h.06v0h-.06Zm.12,2h.1l-.07.06,0,0Zm0-6.34.07.07h-.07Zm0,1.06,0,0v.1h0l.06-.07Zm0,1.15v.06l.06-.06Zm.06,4h.06v.07h-.06Zm.15-4.93v.09l.1-.09Zm.07,7.67v0H54v0Zm0-1.8v0h.06v0Zm.12,2h.09l.07-.13h-.07S54,26.38,54,26.47Zm.16-8,0,.1h.07v-.1Zm0,5.75v0l.1,0,0-.09h0Zm0,1.43h.12v-.06H54.2Zm.06-2.73v0h.09v0Zm0,.36.15.16h.07l0-.12-.07-.06Zm.09-1.77s0,.07.13.1v-.1Zm.06,3.36h.1l.06-.06v0h-.06Zm0,1v0h.07v0Zm.1-3.35v.06h0l.09,0v0Zm0,1.06h.06v-.07Zm.09-2.12v.07h0v-.07Zm0-2.95v0h.07v0Zm.16,5.07.06.05,0,0h0Zm.06-1.62h.06L55,22l-.07.07h-.06l0,0h0ZM55,24h0V24l-.06.06,0,0v0Zm.18-1.27.06.06-.06.06-.06-.06Zm.06.15v.09l-.06-.05,0,0Zm0,2.67h.07v.07h-.07Zm.35-4h0l.06.07v.06l-.06.06-.1-.09v0ZM56.06,24l0,0v0l-.07.07,0,0v0Zm.81-.78H57v0l-.06.06h0Z"/><path class="cls-2" d="M54.37,20.89h.07v0h-.07Zm.22-2.71h1.8c1.61,0,2.59.27,2.93.81,0,0,.06.05.06.16s.28.25.44.74l0,.1q.18,0,.18.87a2.62,2.62,0,0,1-.83,1.9,3.84,3.84,0,0,1-2.59.59h-.09l-.07-.06h0v.06H56.3l-.37,0,0,0v0l0,.24,0,.13,0,0h-.09v-.16s0-.06-.1-.06v-.06h.06v-.22h-.27v.22l0,0,0,0v.65l-.07.1,0,.12,0,.09.07.07v1.93l-.07.06h-.87l-.06-.06V24.88l0-.19,0-.15v0l0,0,0,0v-.5l.06-.09-.06-.06v-1.9l.09-.13q-.09,0-.09-.06V21l-.13-.38.13,0v-2.3Zm.06,4.33v.06l.1,0v0l-.07-.06Zm0,2.12v.15h.06l0-.15v-.07h0Zm0,.19v.06h0v-.06Zm.1-3-.07.12v0l0,.16h0l.09-.1v-.12Zm0-.72v.06l.07-.06Zm.1,2.34v0h.06v0Zm0,1.43v0l0,.16h0l0-.16v-.12Zm.06-1.22v.1h0v-.1Zm0-2.21.06.06H55v-.06Zm.09-.4v.06h0v-.06Zm.07.68v0l.06.07,0,0v-.15Zm0,.65v.07h0v-.07Zm0,1.19v.16l.06.06,0-.16-.06-.06Zm0,.53v.25h0l.06-.07V24Zm.09-1.5v.1h.06v-.1Zm.06.25v0l.07.07,0,0v0Zm.13-.49-.06.09v.06h.06l.06-.06v0Zm0,.28v0h.06v0Zm.22-.31v.05h0l.06-.05Zm0,2h.06v0h-.06Zm.15-.19.06.06,0,0h0Zm.13,1.46h.06s.06.09.06.25h0L56,26v.22l-.06.06-.06-.06Zm0-1.58H56l-.06.06ZM56,22.7v.06h0V22.7Zm.16,3.64h0v.06h0Zm0-7.85v.07l.06-.07Zm0,5h.06v0h-.06Zm0-4.11h.18l.1-.1h-.1C56.27,19.26,56.21,19.29,56.21,19.34Zm0,8.21h0l.07.07,0,0h-.06Zm.1-1.46h0v.06l-.07.07h0v-.07Zm0,.81,0,0v0l-.06.07,0,0v0Zm.1-4.67v.13l.06.05h0v-.08Zm0-1.37h0l.07-.06h0Zm.25,4.27,0,.18,0,0v0l0,.13v.06h0l.06.43h0l.06.38-.06.06.06.13,0,.15h-.06l-.09-.09,0,0,0-.16v0l0,0,0,0v-.09a.55.55,0,0,0,.09-.29l-.12.19h-.07l-.06-.06.06-.06,0,0h0a.64.64,0,0,1,.09-.31l-.06-.31,0-.1,0-.18,0,0Zm0-6.45c0,.06,0,.1-.12.1l0,0v0l0,0h0s0-.07.09-.07l.09,0s0-.06.1-.06l0,0v0l-.22-.06Zm-.15.59v.07l.18,0s0-.06-.09-.06Zm0,5.08h.06v0l0,.37h-.06l0-.21Zm0-5.79h.06v-.07Zm.21,3.14v.06h0V21.7Zm0,4.45H57l-.06.07,0,0Zm.13.16h.06v0H57Zm.22-3.83v0h.06v0Zm.12-1.68v0h.07v0Zm0,1.61v0h.07l.09-.09v0h-.07Zm.09-1.36v0h.07v0Zm.13.68h0c.13-.05.19-.09.19-.12v0C57.7,21.62,57.63,21.67,57.61,21.73Zm0,.22.06.06,0,0v0Zm0,.69v0h.09v0Zm.28-4.08.09.06a.31.31,0,0,0,.19-.16v0H58Zm.22,3.61,0,0v0h.09ZM58.39,19v0h0l.1,0v0h0Zm.37.16.19,0q.12,0,.12-.09v0h0C58.86,19,58.76,19.07,58.76,19.12Zm.07.56,0,0v0l0,0v0l0,0h0l0,0h0l0,0h0a1.67,1.67,0,0,1,.5.19q.15-.06.15-.12l0,0v0l-.09,0-.34-.06,0,0h0Zm.37,1.9v0h.06v0Zm.22-.6v.07h.06l.06-.07Zm.15.47h0q.12,0,.12-.09v0h0Z"/><path class="cls-2" d="M62.32,18.21a2.19,2.19,0,0,1,2.2,1.41l.08.24s0,.06-.08.06V20l0,0h0q.09,0,.09.33l-.06.06h-.08l-.16,0-.18,0h-.39l-.27-.69s-.06,0-.06-.12l.09,0v0l0,0v0l-.15,0a1.35,1.35,0,0,0-1-.42h-.12a1.38,1.38,0,0,0-1.38,1l-.06.27-.1,0a.34.34,0,0,0-.26.15l0,.06.31-.09q0,.88,1.14,1.32v0H62A4.84,4.84,0,0,1,64,22.6v0l0,0h0v.63h0L64,23l0,0,0-.15v-.13H64v.16h0c0-.13,0-.19.06-.19a2,2,0,0,1,.72,1.51h0l0,0v.12a2.26,2.26,0,0,1-.59,1.53h0l0-.45h-.07v.48l-.06.06h0l0-.36v-.09l0-.3,0,0h0v.9h0L63.94,26v-.21l0,0,0,0V25.6l0,0,0,0v0L64,25h-.06V26c0,.33-.43.54-1.29.66h0l0,0-.06.07h0l-.15,0-.15,0a2.94,2.94,0,0,1-1.23-.34v0l0,0v0h0l0,0h0a2.27,2.27,0,0,1-1.15-2l0,0h.88l.15.57a1.56,1.56,0,0,0,1.47,1.05h.09a1.56,1.56,0,0,0,1.5-1.08v0h.06V25h0l0-.3H64v.06h0l.06-.15-.06-.06v-.21h0v.24H64v-.18L63.91,24s.06,0,.06-.09H64V24l0,.12,0,.09h0c0-.07.07-.11.22-.12l.08-.09L64.18,24l0,.09h-.06l0-.12.27-.09v-.06h0l-.18.09-.08,0,0,0v-.09l0,0h0v-.06q-.09,0-.09-.36l0,0h0v.36l0,0,.06.18h-.09q0-.44-.81-.9l-.06.06,0,0v0l0,0a.53.53,0,0,1-.3-.15q0-.07.12-.09v-.1h-.09a.24.24,0,0,1-.12.19h-.06a10.77,10.77,0,0,1-1.26-.48V22.3l-.12,0a2,2,0,0,1-1.23-2v-.09a1.94,1.94,0,0,1,1.2-1.77l.39-.18ZM60,20.58H60l.07-.06H60Zm0,.12v.06l.06-.06Zm.06,4.3h.07v-.06Zm0-4.3.11,0,.22-.09v0l-.06-.06h0A.25.25,0,0,0,60.1,20.7Zm.17,6.89h0l.1.06.11-.06,0,0v0a.57.57,0,0,1-.39.24l0,0v-.13Zm-.08-6.68v0l.32,0,0,.09v0h.12l.06-.07,0-.09,0-.09,0,0h0Zm.08-.42h.1l.06-.06v0h0C60.31,20.43,60.27,20.46,60.27,20.49Zm0,.78v0h.07v0Zm.07-1.41h.09V19.8h0Zm0,8.06h.06l0,.21h0l-.06-.06Zm.06-.12,0,.06,0,0h0Zm0-6.56v0h.24v-.06h0Zm.29,5.26h.07v.06h-.07Zm.76-4.75v.07h.06Zm0,.63h0l.06-.05h0ZM61.87,25l0,0v0l0,0h0l0,0v0l0,0Zm.06-3.1h0l.15,0v0H62ZM62,20.61h0l.06.06-.06.06,0,0Zm0,.18h.09v.06l0,.21H62Zm0,1.38v0h.15v0Zm.39,4.28v.14a.15.15,0,0,0,.12-.12Zm.45-7.67v.06l.06.06h0Q62.91,18.78,62.86,18.78Zm0,4.35h0v.07h0Zm.12.13h0v.06h0Zm.09-.93v.05l.06-.05Zm0,.8h0v.07h0Zm0,3.29v0h.06v0Zm.09-5.24,0,0v.13l-.06.05,0,0v0l0,0,0,0v0Zm-.06.27h.06v.16h-.06Zm0,1v.07l.06-.07Zm.09,3.64v.06h0v-.06Zm.12-6.88,0,0v0l0,0h.06l0-.09Zm.09-.12v0l.21,0v-.06Zm.33,0v0q.18,0,.18.06l0,0,.12,0,.09,0v-.06L64,19h-.16ZM64,23.44v.24l0,0h0l0-.21Zm0,1.32v.18h0v-.18Zm.14.12v.3h0c0-.16,0-.26.07-.3v-.06Zm.1.57h0v-.06Zm0,0v.12h0v-.12Zm0-5.35v.06h0v-.06Zm.19,0v.06h0v-.06Z"/><path class="cls-2" d="M64.13,24.77l.06.06-.08.06-.06-.06Zm.39-.83,0,0v0c0,.05-.07.09-.2.11l0,0v0A.37.37,0,0,1,64.52,23.94Zm.21-3.06h.09l-.06.06,0,0Zm4.15-2.57h.21a3.94,3.94,0,0,1,2.81,1.12l0,0h0l0,0h0l0,0v0l0,0v0l0,0h.06v0l0,0v0l.06.06,0,0h.09s0,.06-.09.06a2.34,2.34,0,0,1,.41.56l.19-.06,0,.06-.11.06v.06l.2.56v0h-.17v0l.14,0,0,0h0l.09.21v.06l0,0v0c.08,0,.15.35.21,1v.09l-.12,1h.06v.06q-.12,0-.15.3a4.19,4.19,0,0,1-2,2.37,4.9,4.9,0,0,1-1.92.48v.06H69v-.06a4.18,4.18,0,0,1-3.71-2.11v-.06a.08.08,0,0,1,.09.09q.12,0,.12-.09s-.06,0-.06-.12h-.06v.06h-.12a2.42,2.42,0,0,1-.41-1.09l0,0h0s.1.06.29.06l.45.47h0l0,0v-.18h.18q.09,0,.09.12l0,0h0l.06-.15v-.12c0-.1,0-.16-.09-.17s-.14.06-.14.2l-.1.06h-.11l0,0h0l0,0v-.06c-.06,0-.09,0-.09-.11s0-.06-.12-.06l0,0v-.1h.06v.07a.3.3,0,0,0,.15-.24l-.3-.36q0,.15-.12.15v.06l.09,0-.09.12h0c0-.08,0-.12-.08-.12l-.18,0v0a.11.11,0,0,1,.12.12l0,0h0q-.1,0-.15-.36v-.18a4,4,0,0,1,1.45-3.25h.06c0,.07,0,.11.06.11l0,0,0,0v-.15A4,4,0,0,1,68.88,18.31ZM65,21.24v0h.17v0Zm.11,1.81v.08l-.06-.05,0,0Zm.33.8v0h.09v0Zm0-2.67v.06l0,.15.18-.12.12,0h0v-.06h-.21s-.06,0-.06-.12h0ZM65.71,24l0,0v.05c0,.13,0,.19.09.19h0v0l0-.13,0-.08h0l0,0Zm0,.3v0h.06v0ZM66,24a1.6,1.6,0,0,0-.23.44v.06h.12v-.15a.52.52,0,0,0,.17-.3Zm-.2-1.75v.23h0l0-.23Zm0,.71c0,.14,0,.2.09.2L66,23,66,22.9ZM66,24.35v.06h0v-.06Zm0-2.87v.06h.06v-.06Zm.06.17v.06a.3.3,0,0,1,.09.18h.06l.09-.09v-.05a.33.33,0,0,1-.18-.1Zm.21,1s-.06.11-.18.21l0,.21,0,0h0l0,0v0l0,0q.18-.07.18-.21l0,0,.06-.06v-.06Zm-.18,1.9,0,.12,0,.12,0,0h.06l0-.18,0-.09Zm0-.77,0,0v.06l.06.06h0l0-.15Zm0-2.91.06.06h0l-.06-.06Zm.09,1.4v0l.06.06h0Zm0,1.07v0h.06v0Zm0,.5v0l.06.06h.06v-.09l-.06-.06Zm.06-.83.06.06,0,0,0-.09Zm.06-.65.09.06h0l.06-.06v-.06l-.06-.06h0S66.39,22.32,66.36,22.4Zm.15,2.28-.06.09.06.06h0l.06-.06v-.06Zm.14-9v0c-.06.16-.11.24-.14.24l0,0v0s.06-.07.09-.21Zm0,2.7,0,0v0l0,0h0l0,0v0l0,0Zm-.05,3.77h.05v-.06Zm.11.94,0,0v0h.09ZM67,17.71l0,0,0,.09H67v-.06Zm0,4.63,0,0v0c-.06,0-.09.07-.09.17H67l.21-.29v0A.32.32,0,0,1,67,22.34Zm0,2.49v0h.15v0Zm.09-9.61,0,0v0l0,0h0l0,0v0l0,0ZM67,20.8v0c0,.11,0,.17.09.17v-.06l0-.14Zm0,2.72v.15q.18,0,.18-.09v0l-.15,0Zm.06-4.45v.06h0v-.06Zm.06-.05v0l.06.06h.09S67.23,19,67.13,19Zm0,2.9v0h.06v0Zm0-.44.09.08h0l-.09-.08Zm.06-2.61,0,.12.12-.12Zm0,4.71v.06h.06v-.06Zm0-.65v0l.06.06,0,0v0l0,0Zm.18-3v0s.05.07.14.08S67.55,20,67.46,19.91Zm.08,1v0h.15l-.06-.05Zm.12,3.59v0l.06.06v-.09Zm0,.21v0h.07v0Zm0-1.1v0h.07l.23-.06v0H68Zm.07-4.06,0,.06h0l-.06-.06Zm.2,2.64,0,.09h0l.06-.06,0,0Zm0,.5v.06H68v-.06Zm0,2v.06h.18q.23,0,.24-.09v0h-.12Zm0-6.05h0l.09-.09v0Zm0,4v0h.06v0Zm0,.48v.05h0v-.05Zm.12,3.14h.06q.21,0,.24-.09h-.06Q68.13,26.13,68.11,26.22Zm0-5.69v0h.09v0Zm0,5.34v0h0l.15,0v0h-.09Zm0-3.12v0h.06v0Zm.12-2.11h-.06v.06h.15l.5.07.06-.1-.18-.05Zm0-3.19h.09v0l-.06.06h0Zm0,1.27v.06l.15,0h.14v0Zm0,4.8v0h.09v0Zm.12-6.67,0,0v0l0,0h0l0,0v0l0,0Zm0,2.82v0h0v0Zm.11-2.25,0,0v0l0,0h0l0,0v0l0,0Zm-.06,4.79v.1h.09Zm.09-.05v.05l.06-.05Zm0,1.33v.06l.06-.06Zm0,6.2h.06v0h-.06Zm0,.45h.06v.08h-.06Zm.09-13.32h.06v0h-.06Zm0,13.11.09.05,0,.1h-.06Zm0-10.59v.06h.09a.53.53,0,0,1,.3.09l.11,0V19.4l-.14,0h-.3l0,0Zm.06-.5a.37.37,0,0,0,.33.15l.06-.06q0-.09-.18-.09Zm0,3.62v.05h.06v-.05ZM69,30.22l.06.06-.15.12h-.06v0Zm-.12-8.09s0,.06.12.08v0l-.06-.06ZM69,18.57v.06h.14v0Zm.21,2.91v0l.06,0h.06l-.09-.08ZM69.44,24V24h.27l0-.15Zm.06.38v0h.06v0Zm.15,0v0h.21l.06-.06h-.06Zm.15-3.62v0l.15.07.11,0,0-.07ZM70,16.05l0,0v0l0,0h-.06v0Zm.2,2.61v0h.07v0Zm.1,7v0h.14v0ZM70.42,24v0h.06v0Zm.15-3.39v0h.06v0Zm.09-2.75h0V18h0Zm.09-2.79,0,0v0l0,0h0l0,0v0l0,0Zm0,10.29v.06l.09,0v0Zm.06.36v0h.09v0Zm.12,1.8,0,0v0l0,0h0l0,0v0l0,0Zm0-8.59v0h0v0Zm.29,6.28v0h.12v-.06Zm.09-.92v0h.09v0Zm0-4.18v.06q0,.09.18.09h.11v0c0-.08-.11-.12-.26-.12Zm.06,2.2c0,.06.09.09.23.09h.07l.09-.09-.18-.06Zm0,2.16h.12l.09-.09h0Q71.4,24.44,71.4,24.5Zm.18-4.68,0,.06h.1l.06-.06Zm.24-2.26v0l-.06.06,0,0v0l0,0Zm-.09,1.6h.06l-.06.06Zm.09,1.16.06.06H72v-.06ZM72,19.16H72v0H72Zm.12.13h0v.05h0Zm.09,2.1v0h.06v0Zm0-2h0v.06h0Zm.12.12h0v.06h0Zm0,.23h.06l-.06.07Zm0,4.22v0h.18v-.06h0Zm.09-4.33h0v.06h0Zm0,3.29v0h.06v0Zm0,.53v0h.06v0Zm.06-.62,0,0v0l.18,0v-.06h-.06Zm0-3.09h0v.07h0Zm0,.24h0v.06h0Zm0,2.29,0,0v0l0,0h.06l0-.09Zm.1-.12v0l.14,0,.09,0v0l-.14,0Zm0-2.52h0v.06h0Zm0,.24h0v.06h0Zm0,.23h0v.06h0Zm.14-.12,0,0v0h-.08Zm0,2.05v0h.06v0Zm.06-1.93h.06v.06h-.06Zm0,2.17v.06h0v-.06ZM73,25.51h0l.06.06,0,0H73Zm.27-.36,0,0v0l0,0h0l0,0v0l0,0Zm.09-6.49.06.06-.09.06,0,0v0Zm.09-.39,0,.07,0,0h-.08v0Zm.08,3.35,0,0v0l0,0h0l0,0v0l0,0Zm-.06,1.1h0l.06.06v0h-.09Zm1,1.63.36.12v.06h-.06l-.06-.06,0,0h0q-.21,0-.21-.09l0,0ZM75,21.24l.06.06,0,0h0l-.06-.06,0,0Zm0,2.67h.08L75,24l0,0Z"/><path class="cls-2" d="M72.87,19.08h0a5.22,5.22,0,0,1,.89.86l-.09.15q.09,0,.09.06v1.16l0,.1,0,.15V23l-.06.25.06.06v.37s0,.06-.09.06l0,0v.09l.12.15V25l0,.13,0,.12v.31a.37.37,0,0,1-.09.21v.06l0,0h.06v.73l-.06.06h-.8l-.06-.06V25l.06-.09-.06-.09V24a.9.9,0,0,1,.09-.52c-.06,0-.09,0-.09-.07V19.82s.1-.09.31-.16l0,0v-.18l-.28-.09v.09l-.06-.07V19.3l0,0,0,0v0l0,0,0,0ZM73,24.37v0l0,0v0l0,.09h0c.07,0,.1,0,.1.07h0v0l-.1-.21Zm0-3.54,0,0h.07a.2.2,0,0,0,.21-.13v0l-.06-.06A.25.25,0,0,0,73,20.83ZM73,24h.06l.07-.06v-.06Zm0-3.61v0h.1q.24-.06.24-.15h-.09Zm0,1.93.07.07.06-.07-.06-.06Zm0,2.39.07.06v-.06Zm.13-6.48v0l0,0h.39c.37,0,.58.08.65.24l.09.15s0,.06-.09.06v0a.29.29,0,0,1,.3.22s0,.06-.12.09l0,0v0h.12l.09-.06,1.5,2.11-.06.09q.21,0,.21.15a1.47,1.47,0,0,1,.31.49l-.09.19.09,0,.12,0q.12,0,.12.21h.06a.14.14,0,0,1,.16-.15.3.3,0,0,1,.09.18h0a.41.41,0,0,1,.22-.37h0v0l0,.06,0,.15v0s-.12.06-.21.19l-.18,0a1.45,1.45,0,0,0,.34.52l0,.12,0,0c.07,0,.21.14.39.4l0,0h0l-.49-.52,0-.09,0,0h-.06l-1.56-1.53.09-.09v0h-.09l-.09.06-.55-.55.09-.12v0l-.09,0-.09,0,0,0v.06l-.21-.24c-.07,0-.19-.13-.37-.4l0,0v0l0,0v0s-.12-.11-.22-.31H74v.07l0,0v0l0,0h0l-.73-.73q.24,0,.24-.12v0l-.06-.06H73.3l-.15.12-.06-.09v-.58Zm-.09,4.43,0,.09s.07,0,.09-.15h-.06Zm.06-1.17h0l.09-.08h0Zm0,.13h.06v-.06Zm0,1.35.06,0h.06v0l0-.09h0Zm0,1.31v.06h.06Zm.12-2.57.06.06h0l.09-.09,0,0h-.09Zm0,2.69v.06h0v-.06Zm0,1.25v.09h0v-.09Zm0-3v.12a.34.34,0,0,1,.22.06s0-.06.08-.06l0-.15.06-.06-.15,0a.17.17,0,0,0-.12.13Zm.12.85h.06v-.06Zm0,.28.06.06v-.06Zm0,1.1.07.09.11-.09-.06-.06h0Zm0-1.71.06.06v-.06Zm.09,1.19q0,.12-.09.12v.06l.09,0c0-.12.07-.18.16-.18v0Zm0-.46v.09h.06l0-.09ZM73.63,22v0l.1,0V22Zm0,2,0,0v0l0,0h0l0,0v0l0,0Zm0-3.69v0h.06v0Zm.24.21,0,0v0h-.09Zm-.06.24h.09v.06h-.09Zm0,.25h0V21h0Zm.15-.37,0,0v0l0,0h0l0,0v0l0,0Zm0,.21,0,0v0l0,0h0l0,0v0l0,0Zm0-.46h0v.07h0Zm0,.74h0v.06h0Zm.1-.61h0l.06.06,0,0h0l0,0Zm.05.21,0,0v0l-.06.06h0v-.06Zm0,.28h0V21h0Zm.13-.37.06.06,0,0h0l-.07-.06,0,0Zm0-.22h.06l-.06.07Zm0,.43h0l.06.07,0,0h-.06Zm.09-1.46,0,0v0c.1,0,.15-.05.15-.08v-.07H74.4Zm.06,1.13,0,0v0l0,0h0l0,0v0l0,0Zm0,.21.06.06-.06.06-.06-.06Zm0,.28h0V21h0Zm.12-.34h0l.06.06v.06h0l-.06-.06Zm.06.18,0,0v0l0,0h0l0,0v0l0,0Zm0,.28,0,0v0h-.09Zm-.06,1.47h.06v0h-.06Zm.15-.71.12.19q0,.21-.12.21h-.06l-.06-.06v0C74.52,21.94,74.56,21.83,74.61,21.83Zm-.06-2.41v.09l.13.06q.12,0,.12-.09v0h0l-.15,0Zm0,.76v.07h0l.07-.07v0Zm0-.43h.07V19.7Zm.1,1,2.81,2.75v0h0a.07.07,0,0,1-.07-.08l-.12.11v.07l.19,0,0-.13h0l.12.16-.09,0a.33.33,0,0,1,.06.21h0l.09-.06h0l.19.24v0h-.06v.09H78v-.06H78v.06s0,.06-.09.06v0l.12.12v0l0-.09,0,0h0a.65.65,0,0,1,.18.46h0q0-.18.09-.18l-.06-.16,0,0h.06a.35.35,0,0,1,.19.28l-.19.06v0l.28.37V24.8l.06-.06.86.88v1l-.15,0,0,0,0-.15v-.12h0l-.07.06v.06l0,.15,0,0h-.64l-1.32-1.8-.12,0,.07-.09a1.47,1.47,0,0,1-.34-.49l0,0h0l-.1-.15h0l-.06-.19h0l.13,0L77,24l.15-.1h0V24h.06l0,0v-.06h.07l0,0v0q.12,0,.12-.09l-.3-.09v0q0,.12-.06.12h-.12l-.15,0c0,.08,0,.12-.1.12l0,0h0l0,0,0,0,0-.09a.49.49,0,0,0-.12-.34l.06-.09,0-.09h0l0,0,.09,0v0s0-.06-.09-.06l-.15.09h-.1v-.09c.09,0,.13,0,.13-.06l-.16-.06-.05.06c-.2-.29-.33-.43-.4-.43s-.27-.11-.34-.33h0v-.07q.12,0,.12-.06l-.21-.3v0l.09-.12h0l-.15,0-.34-.49,0,0s-.07-.05-.09-.15h-.09v0l0,0,0-.09,0,0h-.1l.07-.06,0,0v-.05Zm-.1.92h.07l-.07.06Zm0-.52h0v.06h0Zm.37,1v.06l-.06.06-.06-.09,0,0Zm0,.58H75v.06H75Zm0-2.39v0H75v0Zm.06-.42V20h0v-.06Zm.19.67v.06h.08l0-.06Zm.15,0,0,.09h.09v-.09Zm.09,2.2h.06v.06l-.06.06-.06-.06Zm.09-.74h.06l.06-.05h-.06Zm0,.65h.06v0h-.06Zm.09.09h.13l-.07.06h-.06Zm.06-1.87.1.1v0l-.07-.07Zm.22-.21h0v.06h0Zm.33,3,.07.18,0,0h0l-.18-.12v0h.06l0,0h0C76.21,23.73,76.22,23.7,76.26,23.7Zm.07-.74V23h0V23Zm0-.21v.06l0,0h0l0,0h0l0,0v-.09h-.09Zm0,1.22h.06v0h-.06Zm.3-.7,0,0v.06l-.06.09,0,.15h0q0-.08.15-.24l-.15-.09Zm.46-2.66.06.06,0,0h-.09v0Zm0,2.78,0,.13h0l.06-.07v-.06Zm0-.95h.06v0h-.06Zm.13-1.53h.08V21l0,.06h-.07L77.21,21Zm-.1,3.4.13-.09,0-.1C77.24,24.14,77.21,24.21,77.21,24.31Zm0,1h0l.07.06v0l-.1,0Zm0,.12h.07v.06l-.07.06Zm0-4.68h.07v0h-.07Zm.1.74h0v0h0l0,0v.06h0l-.07-.06Zm0,1.13,0,0v0l0,0h0l0,0v0l0,0Zm-.07,2.32q.12,0,.12.09v0h0l-.1-.09Zm0-.52v.06l.06-.06Zm.06-2.17h0l.07.06-.07.06,0-.06Zm0-.52h.07v0h-.07Zm.16-.24.09.09v.06l-.06.06h-.12l0-.12Zm-.09,2.87,0,0h0v-.09Zm.06.34-.06.09v.09h.06s0-.06.12-.06v0h-.06Q77.58,24.65,77.52,24.65Zm.06-.58v.08l0,0h0v0l0-.08Zm.12-2.79,0,0v.07h-.09v0Zm0,3v0l.15-.13v0Zm.12-1.93.06.09,0,0h0l-.06-.06Zm.1-.7.06.06-.06.06Zm.39,3.3c-.06.2-.11.3-.15.31H78v.06h0l.09,0,.06.06.21-.25Q78.34,24.94,78.28,24.92Zm.06-3.48v0l-.24.31H78v-.09A.33.33,0,0,1,78.34,21.44Zm-.27,3.45V25h.06Zm.15-2.17.09.09.09,0,0,0v0l0,0h0l0,0h0l-.15.1-.06-.07v-.12Zm-.06-1.56h.06v0h-.06Zm.12,4.19v.06l.06-.06Zm0-4.19h.06v0h-.06Zm0,4.44v0h.06v0Zm.13-3.49.06.06-.06.06-.07-.06Zm-.07,3.06.07.06v-.06Zm.07-.16v0h.06v0Zm0,.37v0h.06v0Zm.15-1.1h.18l.07.06v0l-.1.09-.15-.15ZM79,18.22h.8l.06.07v1.07l-.06.09.06.09v1.8l0,.12,0,.13v.92s0,.06-.09.06l.09.12v.25h-.12v0c.08,0,.12,0,.12.07v1.65l0,.12,0,.12v.49h0c-.59-.51-.89-.82-.89-1V24.4l0-.09,0-.19v0l0-.13,0-.18,0,0h0l-.06-.06V23.7h0l.09.06v0l-.06-.21h.06v-.1l0-.12,0-.21v-.95L79,22v0a.37.37,0,0,0-.09-.22v-.09l0-.19,0-.15c.13,0,.19-.05.19-.09v0H79l0,0h0l0,0v-.15l0-.19,0-.15v-.06h0l0,0h0l.1,0,.18.06,0-.15-.06-.06h0l-.28.06,0,0v-.34l.06-.09-.06-.06V20h0l.13.09h.09L79.2,20v0c-.09-.08-.15-.15-.15-.22l0,0H79l-.06-.07v-.52c.19-.1.28-.17.28-.21l-.06-.27H79l0,0h0l-.06-.19v-.3Zm0,5.51v.06l.06-.06Zm.06.42,0,0v0l0,0h.07v0Zm0,2,0,.15v.12h0c0-.05,0-.12.13-.22l-.06-.05Zm0-7.68v.09h.1v0L79,18.5Zm0,4.71,0,0,.13.28.06-.07Q79.07,23.21,79,23.21Zm0,2.17v.06l.13,0,0,0v0l0,0Zm0,.3v.07l.07.06,0,0v-.16h0Zm0-4.09v0l.15,0v0l-.06-.07Zm.12.34a.32.32,0,0,0-.09.21l0,0h.06l.09-.21h0l0,0Zm-.06,1.95v.06h0v-.06Zm.09-2.05.06.06v-.06Zm0,1.38v0l.18.06h0v0l-.09-.09Zm0,.55v.06h.06l.06-.06V23.7Zm0,.61v.06l.09,0v0Zm0,1.74v.22l.09-.1v-.12Zm0,.25v.06h0v-.06Zm.12-.28h0l.07-.06v0Zm0-7.15h.07v-.06Zm.1,1.86v0s0,.07.15.08,0-.05.09-.05v0l-.06-.07h0Zm0,2.51,0,.15,0,.15h.1l0-.15v-.06Zm0,.67v0l0,.07h0Zm0-5.32v0l.13,0,.09,0-.06-.06Zm0,4v.06l.06-.06Zm.06-4.1v0h.07v0Zm0,3.49V22h0V22Zm0,2.9v0h.06v0Zm.06.24.06.07v-.13ZM80,21.62l0,0v0l0,0h0l0,0v0l0,0Zm.28-.49.06.06,0,0h0Z"/><rect class="cls-3" x="97.79" y="19.5" width="7.41" height="19"/><rect class="cls-3" x="88.5" y="30.5" width="10" height="8"/><rect class="cls-3" x="88.5" y="38" width="8" height="5"/><rect class="cls-3" x="55" y="40" width="37" height="3"/></svg>