<svg id="Layer_1" data-name="Layer 1" xmlns="http://www.w3.org/2000/svg" viewBox="0 0 78 33"><defs><style>.cls-1{fill:#fff;}.cls-2{fill:#fdf517;}</style></defs><path class="cls-1" d="M8.65,3,9,3.21A1.94,1.94,0,0,1,10.24,5v.09A2,2,0,0,1,9,7L8.89,7v.06a10.77,10.77,0,0,1-1.26.48H7.57a.24.24,0,0,1-.12-.18H7.36v.09c.08,0,.11,0,.11.09a.53.53,0,0,1-.29.15l0,0v0l0,0-.06-.06c-.55.31-.82.61-.82.9H6.21l.06-.18,0,0V8.05h0l0,0c0,.24,0,.36-.1.36V8.5h0l0,0v.09l0,0-.1,0-.18-.09h0v.06l.27.09,0,.12H6l0-.09-.18.09.09.09q.21,0,.21.12h0l0-.09,0-.12V8.62h.06c0,.06,0,.09,0,.09l0,.36v.18H6.13V9H6.06v.21L6,9.28l.06.15h.07V9.37h.06l0,.3h0V9.43H6.3v0a1.58,1.58,0,0,0,1.51,1.08H7.9a1.56,1.56,0,0,0,1.47-1l.15-.58h.87l0,0a2.27,2.27,0,0,1-1.14,2h0l0,0h0v0l0,0v0A2.8,2.8,0,0,1,8,11.36l-.15,0-.15,0h0l-.06-.07,0,0h0c-.86-.11-1.3-.33-1.3-.65V9.74h0l0,.48v0l0,0,0,0v.13l0,0,0,0v.21l0,.05h0v-.9h0l0,0,0,.31v.08l0,.36H6L6,10.57v-.48h0l0,.45h0A2.17,2.17,0,0,1,5.31,9V8.89l0,0h0A1.93,1.93,0,0,1,6,7.36s.06.06.06.18h0V7.39h.06v.12l0,.15,0,0,0,.24h0V7.3h0l0,0v0a5,5,0,0,1,2-.85H8.2v0C9,6.13,9.34,5.69,9.34,5.11l.3.08.06-.05A.33.33,0,0,0,9.43,5L9.34,5l-.06-.27a1.38,1.38,0,0,0-1.38-1H7.78a1.39,1.39,0,0,0-1,.42l-.14,0v0l0,0v0l.09,0q0,.12-.06.12L6.37,5H6L5.79,5,5.64,5H5.55L5.49,5c0-.22,0-.32.09-.32h0l0,0V4.62q-.09,0-.09-.06l.09-.24a2.17,2.17,0,0,1,2.2-1.41ZM5.58,4.86v.06h.06V4.86Zm.21,0V4.9h0V4.83Zm0,5.26v.06h.06Zm0,.1v.11h0v-.11Zm.06-.67v.06a.46.46,0,0,1,.07.3H6v-.3Zm.42-5.8H6.16L6,3.84V3.9l.09,0,.12,0,0,0s.06-.06.18-.06v0ZM6.09,8.14l0,.21h0l0,0V8.14Zm0,1.32v.18h.07V9.46Zm.42-5.71v.06l.22,0v0Zm.22.12,0,.09h.06l0,0v0l0,0Zm.18,6.88v.06h0v-.06ZM7,5.94V6L7,6,7,6v0l0,0,0-.06V5.92l0,0ZM6.94,7.12l0,.06V7.12ZM7,6.31H7V6.16H7Zm0,4.81v0h.07v0ZM7,7l.07.06V7Zm0,.87H7V7.84h0ZM7.18,8h0V8h0Zm0-4.42h0l.07-.06V3.48S7.24,3.52,7.21,3.6ZM7.3,7.9h0V7.84h0Zm.33,3.28a.15.15,0,0,0,.12.11v-.14ZM8,6.88v0h.15v0Zm.15-1.47,0,0-.06,0,.06-.07h0Zm0,.35H8.08l0-.21V5.49h.09Zm0,.79H8.05v.06l.15,0h0Zm.18,3.19,0,0v0l0,0h0l0,0v0l0,0ZM8.59,7h0l.06.06h0Zm0-.51h.06V6.45Zm.81,4.74H9.34v0H9.4Zm.09-5.34h0V6H9.7v0Zm.09-.4h0l0,0,0,.1,0,.08.06.07H9.7v0l-.06-.09.33,0v0ZM10,12.44v.12l0,0a.57.57,0,0,1-.39-.24v0l0,0,.12.06.09-.06h0Zm-.3.15h0l0,0,.06-.06Zm.06.18-.06.06h0l0-.21h.06Zm0-8.27h0v.06h.09Zm0,.61h0v0l.06.05h.09S9.84,5.13,9.76,5.11Zm.06.14h0l-.06.06v0l.21.08.12,0A.25.25,0,0,0,9.82,5.25Zm0,.72V6h.06V6ZM10,9.64V9.7h.06Zm.12-4.42h-.09l.06.06h.09Zm-.06.19.06,0v0Z"/><path class="cls-1" d="M11.22,3l.15,0,0,0h0l.12,0,.12,0,.12,0,.13,0,.12,0,.12,0,.12,0,.09,0,.22,0h1.62s.07,0,.07.09h.06l0,0V3l0,0h.89s0,.06.12.06v.19l-.06,0-.16,0-.09,0L15,3.2h-.12l0,0v0l-.06.06h-.09l-.13,0a.54.54,0,0,1-.33.07v0q.18,0,.18.09v0h-.06v0h.21a.45.45,0,0,0,.28-.09q.12,0,.12.09v0h0l0,0h0l0,0v0l.24.09c.15,0,.22,0,.22.1l0,0H14.9l-.09,0-.16,0h-.73a.33.33,0,0,0-.22.12l-.12-.12,0,0-.15,0h-.12l0,0v0h0l-.1-.06s0,.06-.09.06l0,0v0l.24.15,0,.15,0,.1,0,.15V5l0,0v0c-.08,0-.12.07-.12.1v.09c.06,0,.1,0,.1.06v.12c-.29.18-.43.29-.43.34s.12,0,.12.09h0q0-.09.06-.09l0,.09.16,0,0,0v.59l0,0,0,0v.3l-.07.09.09.31,0,.12,0,0,0,.15v3.53l.05.09v.06l0,0v0l.07.06c0,.05-.08.12-.22.21h0V11.5h-.06v.22l-.06.06,0,0v-.09l0,0-.06-.1c-.21.08-.31.14-.31.19h0l-.06-.12,0,0h0l0,0,0,0,0,0v0l.09-.13q-.39-.07-.39-.12l0-.25,0,0H12.2s-.08-.08-.09-.24h0l0,0,0-.16v-.15a.44.44,0,0,1-.09-.27v-.07l0,0v0H12l0,0h0l0,0v0l.24-.24h.09V9.67l-.21-.19,0-.12,0,0,.18,0v0l-.06-.1q0-.15.12-.15V8.8l0,0a1,1,0,0,0,.07-.39V6.78l0-.12-.07-.34,0-.12,0-.13,0-.11,0-.13,0-.12,0-.12,0-.13,0-.15.07-.16,0-.15V4.36h.08l.16,0v0l0,0h0l.22.15q.15,0,.15-.12l.18-.19v0s0-.07-.12-.1v.07H13V4.05l0,0h-.09c0-.06,0-.09-.1-.09s-.21.09-.21.16l-.09-.07h-.07v.09l0,0v0h0c-.09,0-.14-.07-.15-.11l.07-.1V4l-.07-.09,0,0v0h-.18q0,.12-.06.12l0-.12h-.19l0,0V3.9h-.09V3.81h-.18l0,0v0l-.06.06,0-.12h-.19l0,0v0l0,0h0l0-.09h-1V3.75h.22l.05-.07,0,0h0l-.22,0,0,0V3L10.33,3H11Zm0,.43v0h.06v0Zm.09-.52h0v.06h0Zm0,.45,0,.1h.07l.05-.06v0Zm.12-.58,0,0v0h-.08Zm0,6.26h.05c0,.07.1.12.28.15l.09.25h0l-.37-.12-.05-.16Zm0-5h0V4h0Zm.15-1.1,0,0v0h-.09Zm.06-.1h.06v0h-.06Zm0,.4v0h.12v0Zm0,.4v.06l.09,0,.09-.09,0,.12s.07,0,.1-.12l-.13-.06h-.06Zm.06,6.84h0v.06h0Zm.12-7.54,0,0v0h-.09ZM12,2.73v.06h-.07Zm0,1.23h0V4h0Zm.15,5.64,0,0v0l0,0h.06v0l-.06.05c-.08,0-.12-.06-.12-.08l0,0Zm0-6.74h0v.06h0Zm0,1.22h0v.07h0Zm.09-1.32h.06v0h-.06Zm0,.86v.06l.12,0,.15,0,.13.15h.15A.51.51,0,0,1,13,3.71l-.06-.06-.13.06-.15-.09-.12,0,0,0-.15,0Zm0,.37h.06V4h-.06Zm.09,4.36v0l-.06.06h0V8.38Zm-.09,1.16v0h.09v0Zm0-.15.06.06V9.36Zm0,.52v0l0,.09h0V9.88Zm0,.21v0h.06v0Zm0,.1v.06h0v-.06Zm.09.27,0,.12,0,0-.09.1.16.09v-.28Zm-.06.43,0,0h0v-.09Zm.09-1.72v.07h0V9.17Zm0,.37v0h.09v0Zm0,.31v.09h.09V9.88Zm.12-4.42.1.06.09-.09v0h-.12Zm0,2.21v.09c.1,0,.17,0,.18-.09V7.58Zm0-4.36v0h.12v0Zm.09,1.39v.06h.09V4.67Zm0,.48v.07l.09,0v0Zm.09-1.44.06.07,0,0h0l-.06-.06,0,0ZM12.6,6v.06h.06L12.72,6Zm0-1.81h.09l-.06.07,0,0Zm0,4.94V9.3L12.91,9h0C12.71,9.05,12.63,9.11,12.63,9.14Zm0-4.07v0h.06v0Zm0,5.24v.06l.06.06s0-.06.13-.06l0-.09Zm.06-4,0,.15s.07-.05.1-.15Zm0,.49h.09V6.72h0Zm0-2.7h.1v.07h-.1Zm0-.92v.09l.13,0,.09,0v0l-.06-.07Zm0,.34v.06h.07V3.5Zm.07.7h.06v0h-.06Zm0,1.39v0h.06v0Zm0,1.9v0h.06v0Zm0,2.85v0H13v0Zm.06-.7,0,0v0l0,0H13v0Zm.36-6.29.13,0,0,0v0l0,0H13.4Zm.07,6.74h.06v0H13.4Zm0,.49h0l.06.06v0l-.06.06,0,0v0h0l0,0Zm.12-2.75.06,0V8L13.55,8h-.06l0-.16,0,0Zm-.06-2.76h.06l-.06,0Zm0,2h0v.06h0ZM13.61,6l0,0v.08h0L13.55,6Zm.06-2.73c.09,0,.13,0,.13.08v0l-.19.06v0l.06.06h.13s.06,0,.09-.15q.33,0,.33-.12l-.09-.1h-.21C13.77,3.13,13.69,3.16,13.67,3.23Zm0,.3v.09h.06v0Zm.5,0v0h.08v0Zm0-.12v0h.05v0Zm.09.24.06.06h.09l.06-.06,0,0h0Zm.18-.52v0l.15,0L14.56,3h0Zm.43,0,.06.06V3.1Z"/><path class="cls-1" d="M14.86,11h0v.07h0ZM17.29,2.9s.22.1.67.19l.1-.12h1.69l.06.06v.73l-.06.07H18.58s-.06,0-.06-.09h-.06q0,.09-.06.09l0,.15-.06.07h0V3.83H16.12V4.5l0,0,0,0v1l0,.12c0,.09-.06.13-.12.13v0s.1,0,.15.15l-.06.06v.1l0,.12,0,.12v.13l0,0,0,0v.1h1V6.63h.06v.06h.21v.06h-.15l-.09.09,0,0H17c-.1.13-.19.19-.27.19l0,0v.06h.13l.18,0,.16,0a.35.35,0,0,0,.24.12h.12c0-.07.07-.17.19-.3a.19.19,0,0,0-.19-.13l-.09,0V6.75l.07-.06h.09l.15.12L18,6.69h.09l0,0h0l0,0v.06a.34.34,0,0,1,.06.22h.12c.11,0,.17,0,.19-.1V6.84s0-.08-.16-.09V6.69h0l.12,0,.28,0h.12l.27,0,.22,0,.06.06.06-.06h.22c.06,0,.09.08.09.19v.61a.29.29,0,0,0-.21.06h-.13l-.24-.06L19,7.55h-.27l-.1,0-.15,0h-.46l-.13-.09-.12.09h-.18l-.16,0-.18,0H17.1L17,7.61l0,0-.09,0v0l0,0h-.22v0l.13.31h0l0,0V8L16.7,8l-.15-.37V7.55h-.19l0,0,0,0h-.18V7.7l.06.1h-.06V8l.06.09-.06.07v.73c0,.07-.05.1-.16.1V9H16l0,0h0l0,0v.58c.05,0,.1.05.16.15v0h-.07v0l.07.09v0c-.09,0-.13-.09-.13-.16h0V10l.09.12h0q-.12,0-.12-.12H16l0,.15.07.07v-.1h.09v0l0,0,.06.21,0,0h.21v0l0,0,0,.1h.07c0-.13.09-.19.27-.19,0,0,.13.07.37.09l.16,0s.06,0,.06.1h.06c0-.07,0-.1.06-.1h.5l0,0,0,0h1.36l.06.06a1,1,0,0,1,.4-.06l.06.06v.28h0l0,0-.28.12.09.12,0,.1.25-.18,0,0v0l-.28.31-.06-.07.06-.06,0,0v0a.18.18,0,0,0-.21.19h-.18v-.07H19l-.09.07H18l0,0,0,0h-.3l-.09-.07-.28.07-.16,0q0,.09-.06.09l-.18,0-.16,0c0,.05.05.08.16.1v0q-.09,0-.09.06v.28q.15,0,.15.09l0,0v0l0,.09c0,.09-.05.13-.15.13v.06H16.7l0,0h0l0,.09,0,0v0l-.09.09,0-.09,0,0v0l0-.09h0l-.19.05c0,.09-.05.13-.15.13v0l0-.1h0c.06,0,.09,0,.09-.05h-.06v0c0-.05,0-.09.12-.1s-.06-.07-.18-.12v-.06a.31.31,0,0,1,.18-.16l0,0v-.06l.24,0v-.15c-.08,0-.12,0-.12-.13h-.28l-.06-.06-.34.06.12.16-.06.06,0,.09,0,0h0l-.09-.21,0-.13v0H15.5l-.15,0,0,0v0q-.15,0-.15-.09v-.15c-.06,0-.1,0-.1-.07s.1,0,.1-.12l0,0v0l0-.12v0s0-.06.09-.06V10.5q0-.3-.09-.3v-.07l0-.15C15,10,15,9.89,15,9.74c0,0,.06,0,.06-.1h0c0,.06,0,.1.06.1h.07l0,0,0-.16V9c.16-.11.24-.2.24-.28l-.24-.16V4.17l0,0v0l.4.13.12-.06a.16.16,0,0,0-.18-.12h-.31L15.17,4V3L15.23,3H17ZM15,11.15h0v.06h0Zm.25-4.61v0h.09v0Zm0,.34h0l.06-.07h0Zm0,1.65h.06l.06,0h-.06Zm0,2.34h.06v-.06Zm.3-7.6c0,.06,0,.1,0,.1h0l0,0-.12,0v0a1.89,1.89,0,0,1,.56.31h.27s-.09-.11-.27-.19c0-.06-.07-.09-.19-.09l-.06-.16Zm-.24,6.34v.1s.06,0,.06.08l.18.07.07-.07-.15-.24Zm.06-4.52s.09.09.25.12h0V5.09l-.1,0Zm.1.19v0h.08v0Zm0,.89v.09h0V6.17Zm0,1.08v.08h.21V7.25h-.06v0Zm0-1.55v.07h0V5.7Zm.06,4.56v.06h0v-.06Zm.09,0a.08.08,0,0,1-.09.09v.09h0q.09,0,.09-.12v-.06Zm0-4.56,0,0v0h.09Zm0,3.54v.07h.06V9.27Zm0,.25v.06l.06.06,0-.12Zm0,.52v.06h0V10Zm0-3.94v.07h.13l.15-.07V6Zm0,2.9.06.06,0,0V9Zm0-.34v0h.07v0Zm0,2.83h.1v0l-.07.09h0l.08,0,0,0v0L16,11.7s0-.06-.12-.06Zm0-4v0h.07v0ZM16,9.64v0l0,.09h.15v0l-.15-.1Zm.21.68,0,0v.06h0l-.06-.06,0,0Zm0-2.74,0,.06,0,0h0l-.07-.06,0,0ZM16.21,9.4l.07.06v0h-.07Zm0,.15h0v.06h0Zm0-3.45h0l0,.07h-.09Zm.19,4.1,0,0-.07.06v0l-.09-.09Zm-.15-3.79h0l0,.06Zm0,1.48h0V8h0Zm0,1.87h0l-.06.07h0Zm0,.28,0,.06v0h0ZM16.46,6V6L16.4,6l0,0Zm-.06.31h.09v0l-.06.06,0,0Zm.06.28v.09l-.06-.06,0,0Zm0,1.16,0,0v0l-.06.06,0,0v0Zm0,2.25.18.18-.06.07h-.06l-.06-.07h.06v0h-.06v0l-.09,0V10Zm-.09.74v0h.09l0,0v0h0ZM16.61,9l0,0v0l-.18,0V9Zm-.12-3.85h0l.06.06v0h0l-.06-.06Zm0,4.52h.06v.07h-.06Zm.06-3.57h.06v.07h-.06Zm0,.31h.06v0h-.06Zm0,3.88h0v.06h0Zm.09-.5v.07h-.06Zm0-4.82h.06V5h-.06Zm0,5.78v.06h0v-.06ZM16.77,8v0l0,0h.06l-.06.07,0,0v0l-.06.06h0v0l0,0v0l-.07-.07,0,0Zm0-4.92v0l.16,0s0-.06-.09-.06Zm0,7.72v.06h0v-.06Zm0-9.35h.06v.09H16.8Zm0,9.45,0,0h.06l0,0h0l0,0v-.06H17l0,0v-.06s0-.06.12-.06v0H17v0C17,10.63,16.9,10.73,16.83,10.94Zm0-3h0V8h0Zm0-6.62H17l0,.13,0,0h0ZM17,11.15v.06h0v-.06Zm.09-2.67h0l.06,0-.06.13H17V8.53Zm.1-6.9h0l.07.06-.19.16,0,0v0C17.15,1.69,17.2,1.64,17.2,1.58Zm-.13,5.33h.07v0h-.07Zm0,.86h.07v.12h-.07v0l0,0v0Zm0-4.37v.06h0V3.4Zm0,4.06.12,0v0l0-.06Zm0,3.48V11h.1V10.9Zm.12-6.59.13.12-.09.1-.09-.1v0Zm.07.25v0l-.07.06h0Zm-.07-1.94h.07l-.07.06Zm0,8.34v0h.06v0Zm.09-4.19h.06l-.06.07Zm0,4.13v0h.06v0Zm.19-7.2V3.8h0V3.74Zm0,1.35h.05v0h-.05Zm0,6v.06h.05v-.06Zm.18-.22V11h.09l0-.08,0,0Zm.24-.3v.12s0,.06.1.06.12-.06.12-.09v-.06l-.09-.1H18Zm.1.27v0h.06v0Zm.09.13v0h.06v0Zm.12-3.88v.06h0V7.12Zm0,3.88v.06h0l.1-.09h0Zm0,.15v.06h0v-.06Zm.16-9.07h0l.06.06,0,.12H18.4v0Zm0,.4.09.09-.06.06,0,0Zm.15,8.15v.12h0c.09,0,.13-.06.13-.09v0Zm.06.55.13,0,.09,0v-.12L18.77,11A.19.19,0,0,0,18.64,11.18Zm.15-4.34v.07l.07,0,.06-.08,0,0ZM19,3.24l0,0v0s.16.11.46.21h0V3.43A1.05,1.05,0,0,0,19,3.24Zm0,7.7.16.06c0-.11,0-.16.12-.16l0,0v0l0-.15h0C19,10.72,19,10.82,19,10.94Zm.31-7.76.06.06h0l-.06-.06Zm.06,4.19h.06V7.3Zm.06,3.5h0c.16-.08.25-.18.25-.27l0,0h0A.28.28,0,0,0,19.38,10.87Z"/><path class="cls-1" d="M19.4,5.59h.06v0H19.4Zm.22-2.7h1.8c1.61,0,2.58.27,2.93.8,0,0,.06.06.06.16s.28.25.44.75l0,.09c.13,0,.19.29.19.87a2.62,2.62,0,0,1-.84,1.9c-.37.4-1.23.59-2.58.59h-.1L21.42,8h0v.06h-.06l-.37,0,0,0v0l0,.24,0,.13,0,0h-.1V8.39s0-.06-.09-.06V8.27h.06V8.05h-.28v.22l0,0,0,0V9l-.06.09,0,.12,0,.1.06.06v1.93l-.06.06h-.87l-.06-.06V9.58l0-.19,0-.15v0l0,0,0,0V8.65l.06-.1-.06-.06V6.59l.09-.12c-.06,0-.09,0-.09-.07V5.66l-.13-.38.13,0V3Zm.06,4.32v.06l.09,0v0l-.06-.06Zm0,2.12v.15h.06l0-.15V9.27h0Zm0,.19v.06h0V9.52Zm.09-3-.06.12v0l0,.16h0l.1-.09V6.62Zm0-.72v.06l.06-.06Zm.09,2.34v0h.07v0Zm0,1.43v0l0,.15h0l0-.15V9.48Zm.07-1.22v.1h0v-.1Zm0-2.2.06,0h.06v0ZM20,5.75v.06h0V5.75Zm.06.69v0l.07.06,0,0V6.34Zm0,.65v.06h0V7.09Zm0,1.18v.16l.07.06,0-.16-.07-.06Zm0,.53v.25h0L20.18,9V8.7Zm.1-1.5v.1h.06V7.3Zm.06.26v0l.06.07,0,0v0Zm.13-.5-.07.09v.06h.07l.05-.06v0Zm0,.28v0h.07v0ZM20.61,7v.06h0L20.71,7Zm0,2h.07v0h-.07Zm.16-.19.06.07,0,0h0Zm.12,1.47H21s.06.08.06.24h0l0,.16V11L21,11,20.89,11Zm0-1.59H21l-.07.06ZM21,7.4v.06h0V7.4ZM21.17,11h0v.06h0Zm0-7.84v.06l.07-.06Zm0,5h.07v0H21.2Zm0-4.11h.19L21.51,4h-.09C21.29,4,21.23,4,21.23,4Zm0,8.21h0l.06.07,0,0h-.06Zm.09-1.46h0v.06l-.06.07h0v-.07Zm.06.81,0,0v0l-.07.07,0,0v0Zm.09-4.67v.13l.07.06h0V7Zm0-1.37h0l.06-.06h0Zm.24,4.27,0,.19,0,0v0l0,.12v.06h0l.07.44h0l.07.37-.07.07.07.12,0,.16h-.07l-.09-.1,0,0,0-.15v0l0,0,0,0V11a.54.54,0,0,0,.09-.28l-.12.18h-.06l-.06-.06.06-.06,0,0h0a.57.57,0,0,1,.1-.31l-.07-.31,0-.09,0-.19,0,0Zm0-6.45c0,.07,0,.1-.12.1l0,0v0l0,0h0s0-.06.09-.06l.1,0s0-.06.09-.06l0,0v0l-.22-.06Zm-.15.6V4l.18,0s0,0-.09,0Zm0,5.07h.06v0l0,.37H21.7l0-.21Zm0-5.79h.07V3.2Zm.22,3.14v.07h0V6.4Zm0,4.45H22l-.06.07,0,0Zm.13.16h.06v0h-.06Zm.21-3.83v0h.06v0Zm.13-1.68v0h.06v0Zm0,1.62v0h.06l.09-.09V7h-.06Zm.09-1.37v0h.06v0Zm.13.69h0c.12-.05.19-.1.19-.13v0C22.73,6.32,22.65,6.37,22.64,6.44Zm0,.21.06.06,0,0v0Zm0,.69v0h.09v0Zm.27-4.08.1.06a.36.36,0,0,0,.19-.15v0H23Zm.23,3.61,0,0v0h.1Zm.27-3.2v0h0l.09,0v0h0Zm.38.15.18,0c.09,0,.13-.06.13-.09v0h0C23.88,3.74,23.79,3.77,23.79,3.82Zm.06.56,0,0v0l0,0v0l0,0h0l0,0h0l0,0h0a1.91,1.91,0,0,1,.5.19q.13-.06.15-.12l0,0v0l-.09,0-.35-.06,0,0h0Zm.37,1.9v0h.07v0Zm.22-.59v.06h.06l.07-.06Zm.16.47h0c.08,0,.12-.07.12-.1V6h0Z"/><path class="cls-1" d="M24.75,5.15c.63.49.95.77.95.85l0,.12v.06h.06l-.06.09,0,.13,0,.12v.06h.06v0h-.06v.15l.12,0,0,0h.63l.1.06h.06l.09-.06a.37.37,0,0,1,.21.18V7s0,.06-.09.06v.1l.09.14,0,.13,0,0h0q-.09,0-.09.12l-.21.06,0,0h0l-.11,0,0,0-.21,0h-.24l-.09-.06q-.09,0-.09.18l-.15.06-.07-.15h-.06l0,0v0s-.06,0-.06.12h0l-.12,0-.09,0,0,0L25,7.88l-.15,0,0,0v0Q25,7.94,25,8V8h-.06v0h.27L25.42,8l.1,0v.05h0l-.1,0v0a.35.35,0,0,1,.28.16V9c0,.07,0,.1-.13.1v0s0,.06.1.06l0,0v0s0,.06-.1.06l0,0v0l.1,0v.12c-.06,0-.1,0-.1.06v0l.06.09,0,0v0c.07,0,.1,0,.1,0v.09l-.1.12c.07,0,.1,0,.1.07l0,0,0,.15v1l-.07.06h-.06l-.09-.06-.24.06h-.06v-.15h-.06a.41.41,0,0,0-.27.15h0l-.07-.06V10.22l0-.12,0-.12v-.4l.13-.15c-.08,0-.13-.06-.13-.09V8.79s0-.06.1-.06l0,0V8.64c-.08,0-.13,0-.13-.06V8.09l0,0,0,0V8l0,0,0,0V7.67l0-.12c0-.14.05-.22.09-.22s.08.1.18.1h.24l0-.18h0l-.12,0h-.27l0,0h0l0,0V6.48l.07-.08-.07-.06V6.21h.07A.45.45,0,0,0,25,6.3l.06-.09v0c0-.06-.12-.11-.37-.16V5.91l0-.12,0-.12,0,0v0l0-.11,0,0v0l0-.11,0-.13,0,0Zm0,2.4.07.06V7.55Zm0,.6.06.07H25v-.1h0Zm0,1.92v0l0,0v0c.1,0,.15-.07.15-.16h-.12Zm.06-3.22v.06l.18,0V6.88s0-.06-.09-.06Zm0,2.64v0h.06v0Zm0,.3v0h0L25,9.74l0,0Q24.88,9.75,24.88,9.79ZM25,3h.82l.06.06v.15s0,.06-.09.06a.32.32,0,0,0,.09.21V4.67l0,0,0,0v.12l0,0,0,0v.18h.06v0h-.06v.06l0,.13,0,.11v.07h.06v0h-.06v.15h.06v.06l-.12,0L24.94,5V4.64s0-.07.09-.07l0,0v0l-.12-.18V3.06Zm-.06,4.61v.06H25l.06-.06,0,0h0Zm0,.85.12.06.09,0V8.4l-.09,0Zm0,1.76h.06v-.06ZM25,11v0h0l.09,0v-.06h-.06Zm0-.73v0l.12.06a.18.18,0,0,0,.12-.12h0Zm0-7v.06h0V3.27Zm0,7.25h.06v-.06ZM25.12,5q0,.09.18.09l0,0q0,.09.12.09l0,0v0l.11,0V5.15l0,0v0l0,0h0L25.18,5Zm0,1.61h0l.06-.06h0Zm.09-2.43v.06l.09.09.06-.06-.09-.09Zm0,4.1v0h.06v0Zm.06-1.37,0,0V7h.09Zm.12-2,.07.06V4.91Zm.12,1.43c0,.06,0,.08-.12.08v0h.07v0l.11-.08Zm.06-1.85-.06.08.25.1h0v-.1S25.75,4.5,25.6,4.49Zm.16-.92v0h.06v0Zm0,2.49h0v.06h0Zm0,.21h0v.07h0Zm.09.1h0v0h0Zm.12.08,0,0v0h-.09Zm0-.18h0v.07h0Zm0,.4H26L26,6.73Zm0-1.09h.06L26,5.64Zm0,.18h0v.06h0Zm.06.82h.06v0h-.06Zm0-1.49h.06v0h-.06Zm0,.79h.06v0h-.06Zm.15,1.39c0,.07,0,.1-.12.1v0q.12,0,.12.15h0l0-.18,0-.1Zm-.09-.79h.06v0h-.06Zm0,.19h.06v0h-.06Zm0-1.09h.06v0h-.06Zm0,.39h.06V6h-.06Zm.16-.12v.06h-.07Zm-.07.21h.07v.06Zm0-.39h0v.06h0Zm.09.09h0v.06h0Zm0,.4h0v0h0Zm.06.42h0v.06h0Zm0-1.49h.06v0h-.06Zm0,1h.06v0h-.06Zm.06,1.13v0s0,.08.12.08.12,0,.12-.08Zm.12-1.13h.06v0h-.06Zm0,.18h0V6.3h0Zm.09-.08h0v0h0Zm.18.21H27v0H27Zm0,.27h.09l.06.06v0l-.06.06L27,6.67ZM27,7H27v.06H27Zm0,.3H27v0H27Zm.12-.18h.06v.1h-.06Zm.1-.42h.08v0l0,.15h0v0l0,0v0Zm0,.55h.06a.87.87,0,0,1,.31.27v0l-.06.06h0l0,0,0,0H27.4l-.06-.06,0-.09h0c-.06,0-.1-.08-.1-.19Zm.06-.58h.1v.27L27.34,7l0,0Zm.37,0h.09s.06.07.06.21h0q0-.18.06-.18l0,0V7s0,.06-.12.06V7.3l-.06.07-.3-.31q0-.21.12-.21Q27.58,6.64,27.67,6.64Zm-.21.85v.06h.06V7.49Zm.45-.43,0,.09,0,.28h-.06v0l0-.13,0-.12v0ZM28,6.64l.05.06v.63h0l0,0h0l0-.15v0L28,7V6.7ZM30,3h.78l.06.06V3.3l0,.12,0,0,0,.37V4l0,0,0,0v0l0,.12,0,0v0l0,.16,0,.21h0l0,0v0l0,0,0,.16v.15l0,0,0,0,0,1v.73l0,.12,0,.12.16,0s-.05.06-.13.06l0,0v0l.07,0,0,0v0c.1,0,.16,0,.16.1h0l-.13,0v.12h0l-.08-.06,0,.15v.7h.09v.18l0,.18,0,.15,0,0v0l0,0-.09.6v0h0V9.49l.06.06,0,0,0,0v.24h0a9.15,9.15,0,0,1-1.12-.93v0l.06-.1L29.7,8.7V8.55s0-.06.12-.06V7.67q-.12,0-.12-.18h-.36s-.06,0-.06-.09h-.1q0,.09-.06.09h-.05l-.13-.19h-.06l-.12.07.06.09,0,0h-.21l-.25-.12c0,.06,0,.09,0,.09a.21.21,0,0,1-.13-.21l0,0,0,0h0l0,0,0-.15V6.7l.06-.06h.25l0,0,0,0h.06q.33,0,.42.18c.19,0,.28-.05.28-.09s-.15,0-.15-.06l0,0h.1l.18,0,0,0h0l.18.12.06-.15v-.4l0-.15,0-.18V5.27s0-.06.12-.06v0l-.12,0,0,0,0-.15V4.64l.06-.1-.06-.08V3.12C29.7,3.07,29.78,3,30,3ZM28.22,6.85v0L28.3,7l.07-.06V6.85l-.07-.06h0Zm0,.4v0h.08v0Zm.54,0v0h.06v0Zm.67-.31,0,0V7l-.09.12.06.18-.06.06v0h.09l.15,0v0l-.06-.1.15-.15v0l-.21-.21,0,0Zm.21,2.25a8,8,0,0,1,1,.84l-.06.07.06.06v.06h-.06v0a.85.85,0,0,0,.3.3l0,0h0a.56.56,0,0,1,.11.31h0c0-.07,0-.1.06-.1l.06.49-.09.06,0,0h0l0,0-.12,0-.15,0-.19,0v0l-.09.09h-.82l-.06-.06v-.15h-.12V11q.09,0,.09-.06t-.12-.15c0-.11,0-.16.12-.16v0q-.09,0-.09-.06v0l.09-.12,0,0v0l.06-.21,0-.09,0-.28V9.7l0-.12,0,0v0q0-.15-.09-.15Zm.28-1.49v.06l0-.06Zm.08.12,0,0v0l0,0h.07v0Zm.4,0v0h0l.09,0,0,0V7.73h-.09Zm0,.06V8h.06V7.91Zm.06.46v.06h.06l.06-.06Zm0-4.28v0h.12V4Zm.21,6.43v.06h0v-.06Zm.09-1.61v.07h0V8.85ZM30.92,11l0,.09L31,11v0Z"/><path class="cls-1" d="M34.3,2.87h.87a23.38,23.38,0,0,1,.94,2.22h0l-.19,0-.09.09v0c.08,0,.12,0,.12.13h.25l.07.06L36,5.46v0l.22,0,0,0c.06.06.56,1.26,1.5,3.59a9.57,9.57,0,0,1,.59,1.45l0,.09c.1,0,.23.24.38.71l0,0h-.9a.33.33,0,0,0-.13-.22q0-.11-.15-.15a15.56,15.56,0,0,0-.63-1.45h0l0-.09-.09-.22,0-.12v0c-.09,0-.13,0-.13-.09h-.24l0,0h0l0,0V8.87l-.15-.07v.07l0,.09h-.1v0l0,0v0a.39.39,0,0,1-.31-.1c0,.15,0,.22-.09.22h-3a22.7,22.7,0,0,0-.87,2.1l0,0q0,.09-.06.09l-.34-.12-.28.06v.13l.18,0v.06h-.59l0,0h0c.06-.25.15-.37.28-.37l.25,0,.09,0,0,0v-.06l-.09,0L31,10.9l-.07-.09,1.32-3.1c.9-2.2,1.37-3.31,1.4-3.31l.41.13,0,0v0a1.08,1.08,0,0,0-.37-.09l0,0v0A7.9,7.9,0,0,1,34.3,2.87Zm-2.5,8.41v0l-.06.06h-.31v-.06Zm1-2.51v0l.1-.09h0Zm.1-1.21v0H33v0Zm.19,1.06h0c.11,0,.17,0,.19-.1v0A.19.19,0,0,0,33.12,8.62Zm.12-2.87v0h.09v0Zm.15,0v0c.23,0,.35-.07.35-.13h-.1Zm.38,1.53h0l.06-.07h0Zm.09-1.53.19,0v0H34v0C33.9,5.65,33.86,5.68,33.86,5.72ZM34,5l-.13.19v0l.1-.07.09,0q.15-.06.15-.12Zm-.1-.12v0H34v0Zm.57,4v0h.06v0Zm.15-.07v0h.06l.1-.09,0,0C34.69,8.74,34.64,8.77,34.64,8.8Zm.1-1.37v0h.06v0Zm.06-1.19v0h.06v0Zm.06,1.88h0c.13,0,.21-.1.22-.16h0C35,8,34.88,8.06,34.86,8.12Zm.1.21v0h0l.1-.09H35Zm0-4.68.07.06h.06l-.06-.06Zm.13,1.88v0h.06v0Zm.22,2.68v0h.09v0Zm.19.41v.06l.21.16h.07l.06-.13H35.8v0l0,0h-.09V8.62Zm.06.41h0v.05h0Zm.1-3.66h0l.06-.06h0Zm0,3.78h0v.06h0ZM35.86,9l0,0v0H35.8ZM36,8.87l.06.06V9H36l-.07-.06Zm0,.28h0v.06h0ZM36.11,9l0,0v0h-.09Zm.09.12h0v.06h0Zm0-3s.09.1.24.16,0,.09.07.09V6.34A.6.6,0,0,0,36.24,6.15ZM36.36,9l0,0v0H36.3Zm0,.24h0v.07h0Zm.15-.12,0,0v0h-.09ZM36.61,9l0,0v0h-.09Zm0,.24h0v.07h0Zm.16-.12,0,0v0h-.1Zm0,.25h0v.06h0Zm.18-1.63v0h0L37,7.74v0h0Zm.5,2.5v.1h.1l.06-.07v-.05ZM37.46,9V9L37.52,9Zm0,.91h0l.06-.06h0Zm.12-.47h0l.06-.06h0Zm0,1.25v.06h.06v-.06Zm.09-.66v0h.1v0Zm.35.94v0c0,.06.15.14.46.22,0,.07,0,.1.07.1h0v-.13c-.12,0-.19,0-.19-.1l.06-.05h0l-.15.05C38.27,11,38.18,11,38,10.93Zm0-.5v0h.06v0Z"/><path class="cls-1" d="M38.39,3.78h0a5.22,5.22,0,0,1,.89.86l-.09.15q.09,0,.09.06V6l0,.1,0,.15V7.67l-.06.24.06.06v.37s0,.06-.09.06l0,0v.09l.12.15V9.75l0,.12,0,.12v.31a.37.37,0,0,1-.09.21v.06l0,0h.06v.74l-.06.05h-.8l-.06-.05V9.71l.06-.09-.06-.09V8.74a.87.87,0,0,1,.1-.52c-.06,0-.1,0-.1-.07V4.52s.11-.08.31-.16l0,0V4.15l-.28-.09v.09l-.06-.06V4l0,0,0,0v0l0,0,0,0Zm.1,5.29v0l0,0v0l0,.08h0c.06,0,.09,0,.09.07h0v0l-.09-.21Zm0-3.54,0,0h.06a.19.19,0,0,0,.21-.13v0l-.06-.07A.23.23,0,0,0,38.52,5.53Zm0,3.14h.06l.06-.05V8.55Zm0-3.6v0h.09c.16,0,.24-.09.24-.15h-.09Zm0,1.92.06.07L38.67,7l-.06-.06Zm0,2.39.06.06V9.38ZM38.7,2.9v0l0,0h.4c.36,0,.58.08.64.24l.09.16s0,.05-.09.05v0a.32.32,0,0,1,.31.22s0,.06-.13.09l0,0v0h.13l.08-.06,1.5,2.11-.05.09q.21,0,.21.15a1.5,1.5,0,0,1,.3.5L42,6.72l.09,0,.12,0c.09,0,.13.07.13.21h.06a.13.13,0,0,1,.15-.15.3.3,0,0,1,.09.18h0a.41.41,0,0,1,.22-.37H43v0l-.06.06,0,.15v0c-.06,0-.13.06-.21.19l-.19,0a1.49,1.49,0,0,0,.34.52l0,.13,0,0c.08,0,.21.13.4.39l0,0h0l-.48-.52,0-.09,0,0h-.07L41.08,6l.1-.08v0h-.1L41,6l-.54-.55.08-.13v0l-.08,0-.1,0,0,0v.06l-.21-.24c-.07,0-.19-.13-.37-.4l0,0v0l0,0v0s-.11-.1-.22-.31h0V4.4l0,0v0l0,0h0l-.74-.74q.24,0,.24-.12v0l0-.06h-.13l-.15.12-.06-.09V3Zm-.09,4.43,0,.09s.08,0,.09-.15h-.06Zm.06-1.16h0l.09-.09h0Zm0,.12h.06V6.23Zm0,1.35.06.06h.06v0l0-.1h0Zm0,1.31V9h.06Zm.12-2.57.06.06h0L39,6.35l0,0h-.1Zm0,2.69v.06h0V9.07Zm0,1.26v.09h0v-.09Zm0-3v.12a.29.29,0,0,1,.22.07s0-.07.09-.07l0-.15.06-.06-.16,0a.22.22,0,0,0-.12.13Zm.13.85h0V8.09Zm0,.28,0,.06V8.43Zm0,1.1.07.09.12-.09-.06-.06h0Zm0-1.71.07.06V7.82ZM39.1,9c0,.08,0,.12-.1.12V9.2l.1,0c0-.13.07-.19.15-.19V9Zm0-.46v.1h.06l0-.1Zm.09-1.86v0l.09,0V6.69Zm0,2,0,0v0l0,0h0l0,0v0l0,0Zm0-3.7V5h.06V5Zm.24.21,0,0v0h-.1Zm-.06.25h.1v0h-.1Zm0,.24h0v.06h0Zm.15-.37,0,0v0l0,0h0l0,0v0l0,0Zm0,.21,0,0v0l0,0h0l0,0v0l0,0Zm0-.45h0V5.1h0Zm0,.73h0v.06h0Zm.09-.61h0l.06.06,0,0h0l0,0Zm.06.22,0,0v0l-.06.06h0V5.43Zm0,.27h0v.06h0Zm.12-.37.06.06,0,0h0l-.06-.07,0,0Zm0-.21h.06l-.06.06Zm0,.42h0l.06.07,0,0h-.06ZM39.83,4l0,0v0C40,4.06,40,4,40,4V3.93h-.1Zm.06,1.13,0,0v0l0,0h0l0,0v0l0,0Zm0,.22.06,0-.06.06-.06-.06Zm0,.27h0v.06h0ZM40,5.31h0l.06.07v0h0l-.07,0Zm.07.18,0,0v0l0,0h0l0,0v0l0,0Zm0,.28,0,0v0H40ZM40,7.24h.07v0H40Zm.15-.7.13.18c0,.14-.07.21-.13.21h-.05L40,6.87v0C40,6.64,40.08,6.54,40.13,6.54Zm-.05-2.42v.09l.12.06q.12,0,.12-.09v0h0l-.16,0Zm0,.76V5h0l.06-.07v0Zm0-.42h.06V4.4Zm.09,1L43,8.25v0h0s-.06,0-.06-.09l-.13.12v.06l.19,0,0-.12h0l.12.15-.09,0a.33.33,0,0,1,.06.21h0l.1-.05h0l.18.24v0h-.06V9h.06V8.92h.06V9s0,.06-.09.06v0l.12.13v0l0-.1,0,0h0a.67.67,0,0,1,.18.46h0c0-.12,0-.18.1-.18l-.06-.15,0,0h.06a.36.36,0,0,1,.18.28l-.18.06v0l.27.37V9.5l.07-.06.85.89v1l-.15,0,0,0,0-.16V11h0l-.06.06v.06l0,.16,0,0h-.64l-1.32-1.8-.13,0,.07-.09a1.64,1.64,0,0,1-.34-.49l0,0h0l-.09-.15h0l-.06-.18h0l.12,0,.06.16.16-.09h0v0h0l0,0V8.62h.06l0,0v0c.09,0,.13-.06.13-.09l-.31-.09v0q0,.12-.06.12h-.12l-.15,0c0,.09,0,.13-.09.13l0,0h0l0,0,0,0,0-.09A.5.5,0,0,0,42,8.15L42,8.07,42,8h0l0,0,.1,0v0s0-.06-.1-.06L41.91,8h-.09V7.88q.12,0,.12-.06l-.15-.06-.06.06c-.2-.29-.33-.43-.4-.43s-.27-.11-.34-.33h0V7q.12,0,.12-.06l-.21-.3v0L41,6.47h0l-.15,0L40.45,6l0,0s-.06-.06-.09-.16h-.09v0l0,0,0-.09,0,0h-.09l.06-.06,0,0V5.56Zm-.09.92h.06l-.06.06Zm0-.52h0V6h0Zm.37,1v.06l0,.06-.07-.09,0,0Zm0,.58h.06v.06h-.06Zm0-2.38v0h.06v0Zm.06-.43V4.7h0V4.64Zm.19.67v.07h.09l-.06-.07Zm.15,0,0,.1H41v-.1ZM41,7.49h.06v0L41,7.6l-.06-.06Zm.09-.74h.07l.06-.06h-.06Zm0,.64h.07v0h-.07Zm.1.1h.12l-.06,0h-.06Zm.06-1.87.09.09v0l-.06-.06Zm.21-.21h0v0h0Zm.34,3,.06.18,0,0h0l-.18-.13v0h0l0,0h0Q41.73,8.4,41.79,8.4Zm.06-.73v.06h0V7.67Zm0-.22v.06l0,0h0l0,0h0l0,0v-.1h-.09Zm0,1.22h.06v0h-.06Zm.31-.7,0,0v.07l-.05.08,0,.16h0c0-.06.06-.14.16-.24L42.21,8Zm.45-2.66.07.07,0,0h-.09v0Zm0,2.78,0,.13h0l.07-.07V8.09Zm0-.94h.06v0h-.06Zm.12-1.53h.09v.06l-.06.06h-.07l0-.06ZM42.74,9l.12-.09,0-.09Q42.74,8.86,42.74,9Zm0,1h0l.06.06v0l-.09,0Zm0,.12h.06v.07l-.06,0Zm0-4.67h.07v0h-.07Zm.1.73h0V6.2h-.06l0,0v.06h0l-.07-.06Zm0,1.13,0,0v0l0,0h0l0,0v0l0,0Zm-.07,2.32c.09,0,.13.06.13.09v0h0l-.1-.09Zm0-.52v.06l.06-.06Zm.06-2.17H43L43,7,43,7,42.89,7Zm0-.52H43v0h-.06Zm.15-.24.09.09v.06l-.06.06H43l0-.12ZM43,9l0,0h0V9Zm.06.34L43,9.44v.09H43s0-.06.12-.06v0H43.1Q43.1,9.35,43,9.35Zm.06-.58v.09l0,0h0v0l0-.09ZM43.22,6l0,0v.07h-.1V6Zm0,3V9l.16-.12v0ZM43.32,7l.06.1,0,0h0l-.06-.06Zm.09-.7.06.06-.06.06Zm.39,3.3c-.06.2-.11.3-.15.31h-.12V10h0l.09,0,.06.06.22-.24C43.89,9.68,43.85,9.63,43.8,9.62Zm.07-3.48v0l-.25.3h-.06V6.38C43.64,6.22,43.74,6.14,43.87,6.14Zm-.28,3.45v.06h.06Zm.15-2.17.1.09.09,0,0,0v0l0,0h0l0,0h0l-.15.1-.07-.07V7.45Zm-.05-1.56h.05v0h-.05Zm.11,4.19v.06l.07-.06Zm0-4.19h.06v0h-.06Zm0,4.44v0h.06v0ZM44,6.81l.06.06L44,6.93l-.06-.06ZM43.9,9.87l.06.06V9.87ZM44,9.71v0H44v0Zm0,.37v0h.06v0ZM44.14,9h.18l.07.06v0l-.1.1L44.14,9Zm.34-6.05h.79l.06.06V4.06l-.06.09.06.1V6l0,.13,0,.12v.92s0,.06-.09.06l.09.12v.25h-.12V7.7q.12,0,.12.06V9.41l0,.12,0,.12v.5h0c-.59-.52-.88-.83-.88-1V9.1l0-.09,0-.18v0l0-.13,0-.18,0,0h0l-.06-.06V8.4h0l.1.06v0l-.07-.21h.07v-.1l0-.12,0-.21v-1l.09-.12v0a.37.37,0,0,0-.09-.22V6.38l0-.18,0-.16c.12,0,.18,0,.18-.08v0h-.09l0,0h0l0,0V5.77l0-.18,0-.16v0h0l0,0h0l.09,0,.18,0,0-.15-.07-.06h0l-.27.06,0,0V4.91l.06-.08-.06-.07V4.7h0l.12.09h.09l.06-.06v0a.41.41,0,0,1-.15-.21l0,0h-.06l-.06-.06V3.93q.27-.14.27-.21l-.06-.27h-.09l0,0h0l-.06-.18V3Zm0,5.5v.06l.06-.06Zm.06.43,0,0v0l0,0h.06v0Zm0,2,0,.15v.12h0a.38.38,0,0,1,.12-.21l-.06-.06Zm0-7.68v.1h.09v0l-.06-.07Zm0,4.71,0,0,.12.28.06-.07Q44.6,7.91,44.54,7.91Zm0,2.17v.07l.12,0,0,0v0l0,0Zm0,.31v.06l.06.06,0,0v-.15h0Zm0-4.1v0l.15,0v0l-.06-.06Zm.12.34a.32.32,0,0,0-.09.21l0,0h.06l.09-.21h0l0,0Zm-.06,2v.07h0V8.58Zm.09-2,.06,0v0Zm0,1.37v0l.19.06h0V8l-.08-.09Zm0,.55v.06h.06l.07-.06V8.4Zm0,.61v.06l.1,0v0Zm0,1.74V11l.1-.09v-.13Zm0,.25v.06h0v-.06Zm.13-.28h0l.06,0v0Zm0-7.15h.06V3.57ZM45,5.49v0s.05.07.15.09,0-.06.09-.06v0l-.06-.07h0ZM45,8,45,8.15l0,.16h.09l0-.16V8.09ZM45,8.67v0l.06.07h0Zm0-5.32v0l.12,0,.09,0-.06,0Zm0,4v.06l.06-.06Zm.06-4.1v0h.06v0Zm0,3.49v.06h0V6.69Zm0,2.9v0h.06v0Zm.06.24.06.07V9.78Zm.33-3.51,0,0v0l0,0h0l0,0v0l0,0Zm.28-.49.06.06,0,0h0Z"/><path class="cls-1" d="M46.62,2.94h.19l.12,0,.12,0h0a.34.34,0,0,0,.27.12l0,0v.25s-.07.07-.21.09v0l.06.06h.15v1.7l-.06.09v.07l.09.12,0,.22v.55h0l0,0h0c-.08,0-.18.08-.31.24v.07a.7.7,0,0,0,.4-.22l0,0,0,.15v.62l-.06.09v0h.06v0l0,.12,0,.31v3.57H46.5l-.06-.06.24-.15v0l-.15,0h-.09V9.91c0-.06,0-.09.12-.1V9.72h0l0,0h0l0,0V9.14L46.53,9V9q-.09,0-.09-.06V8.61l0,0,0,0V8.39l0-.12,0-.12.06-.06-.06-.25V3.89q.21-.12.21-.24l-.21-.15V3.06A.3.3,0,0,0,46.62,2.94ZM46.5,4.17v.25h0l0-.25Zm0,1.82h.09V5.93h0Zm0-2.53.06.06h0l.16,0V3.37h-.16Zm0,2.34h.06c.09,0,.13-.06.13-.08v0h-.07Zm0,5h.06l.1-.09v-.06h0S46.63,10.74,46.59,10.83Zm.06-3.7v0h.06v0Zm.06,1,0,0v0l.07.06.09-.09Zm.07-4.53.15.21s0-.06.09-.06l0,0V3.68a.31.31,0,0,1-.21-.13Zm0,5h.06V8.55Zm.06-.18.06.06,0,0v-.1h0Zm0-5.37v0H47v0Zm0,5.25v0q.15,0,.15-.09v0H47Zm0,.3v.06h0V8.61Zm0,2.56v.06h0v-.06Zm0-6.72v.06h0L47,4.45ZM47,3.21h.19v0l-.06-.05C47,3.15,47,3.18,47,3.21Zm0,1.92v.06h.1l.09-.1-.06,0h0Zm0,4.78h.06V9.85Zm.1-5.06v0q.15,0,.15-.09v0h-.06Zm0,5.64v0l.09-.09v0Zm0-7.43v0h.06v0Zm.09,2.16v.06l.06.06V5.22Zm0,.83,0,0,.09,0V6h-.06Zm0,1.51v0h.06v0Zm.06-2v.06l.06-.06Z"/><path class="cls-1" d="M48.09,11h0v.07h0ZM50.53,2.9s.22.1.67.19L51.29,3H53L53,3v.73l0,.07H51.81s-.05,0-.05-.09h-.07q0,.09-.06.09l0,.15-.06.07h0V3.83H49.35V4.5l0,0,0,0v1l0,.12c0,.09-.07.13-.12.13v0s.1,0,.15.15l-.07.06v.1l0,.12,0,.12v.13l0,0,0,0v.1h1V6.63h.06v.06h.22v.06H50.5l-.1.09,0,0h-.09c-.1.13-.19.19-.28.19l0,0v.06h.12l.19,0,.15,0a.39.39,0,0,0,.25.12h.12c0-.07.06-.17.19-.3a.2.2,0,0,0-.19-.13l-.09,0V6.75l.06-.06h.1l.15.12.21-.12h.09l0,0h0l0,0v.06a.34.34,0,0,1,.06.22h.12c.1,0,.17,0,.19-.1V6.84s-.06-.08-.16-.09V6.69h0l.13,0,.27,0h.12l.28,0,.22,0,.06.06.06-.06H53c.06,0,.08.08.08.19v.61a.33.33,0,0,0-.21.06h-.12l-.25-.06-.18.06H52l-.09,0-.15,0h-.47l-.12-.09-.12.09h-.18l-.16,0-.18,0h-.19l-.09.06,0,0-.08,0v0l0,0h-.21v0l.12.31h0l0,0V8L49.94,8l-.15-.37V7.55H49.6l0,0,0,0h-.19V7.7l.07.1h-.07V8l.07.09-.07.07v.73c0,.07-.05.1-.15.1V9h.07l0,0h0l0,0v.58s.11.05.16.15v0h-.06v0l.06.09v0a.18.18,0,0,1-.12-.16h0V10l.1.12h0c-.08,0-.13-.06-.13-.12h-.06l0,.15.07.07v-.1h.08v0l0,0,.07.21,0,0h.22v0l0,0,0,.1h.06c0-.13.1-.19.28-.19,0,0,.12.07.37.09l.15,0s.07,0,.07.1h0c0-.07,0-.1.07-.1h.49l0,0,0,0h1.35l.07.06a1,1,0,0,1,.4-.06l0,.06v.28h0l0,0-.28.12.09.12,0,.1.25-.18,0,0v0l-.27.31-.06-.07.06-.06,0,0v0a.2.2,0,0,0-.22.19h-.18v-.07h-.06l-.1.07h-1l0,0,0,0h-.3l-.1-.07-.27.07-.16,0q0,.09-.06.09l-.19,0-.15,0c0,.05.05.08.15.1v0q-.09,0-.09.06v.28c.11,0,.16,0,.16.09l0,0v0l0,.09c0,.09,0,.13-.16.13v.06h-.06l0,0h0l0,.09,0,0v0l-.09.09,0-.09,0,0v0l0-.09h0l-.18.05c0,.09,0,.13-.15.13v0l0-.1h0c.06,0,.09,0,.09-.05h-.06v0c0-.05,0-.09.12-.1s-.06-.07-.19-.12v-.06a.33.33,0,0,1,.19-.16l0,0v-.06l.25,0v-.15a.12.12,0,0,1-.13-.13h-.28l-.06-.06-.33.06.12.16-.06.06,0,.09,0,0h0l-.08-.21,0-.13v0h-.19l-.15,0,0,0v0c-.1,0-.16-.05-.16-.09v-.15c-.06,0-.09,0-.09-.07s.09,0,.09-.12l0,0v0l0-.12v0s0-.06.09-.06V10.5q0-.3-.09-.3v-.07l0-.15q-.24,0-.24-.24s.06,0,.06-.1h0c0,.06,0,.1.06.1h.06l0,0,0-.16V9c.17-.11.25-.2.25-.28l-.25-.16V4.17l0,0v0l.4.13L49,4.17c0-.08-.08-.12-.19-.12h-.31L48.4,4V3L48.46,3h1.82Zm-2.28,8.25h0v.06h0Zm.24-4.61v0h.1v0Zm0,.34h0l.06-.07h0Zm0,1.65h.06l.06,0h-.06Zm0,2.34h.06v-.06Zm.3-7.6c0,.06,0,.1-.06.1h0l0,0-.12,0v0a1.82,1.82,0,0,1,.55.31h.28s-.1-.11-.28-.19c0-.06-.06-.09-.19-.09l0-.16Zm-.24,6.34v.1s.06,0,.06.08l.18.07.07-.07-.16-.24Zm.06-4.52s.08.09.25.12h0V5.09l-.1,0Zm.09.19v0h.09v0Zm0,.89v.09h0V6.17Zm0,1.08v.08H49V7.25H49v0Zm0-1.55v.07h0V5.7Zm.07,4.56v.06h0v-.06Zm.08,0c0,.06,0,.09-.08.09v.09h0q.09,0,.09-.12v-.06Zm0-4.56,0,0v0H49Zm0,3.54v.07h0V9.27Zm0,.25v.06l.06.06,0-.12ZM49,10v.06h0V10ZM49,6.1v.07h.12l.15-.07V6Zm0,2.9.06.06,0,0V9Zm0-.34v0h.06v0Zm0,2.83h.09v0l-.06.09h0l.09,0,0,0v0l-.07.06s0-.06-.12-.06Zm0-4v0h.06v0Zm.16,2.15v0l0,.09h.16v0l-.16-.1Zm.21.68,0,0v.06h0l-.06-.06,0,0Zm0-2.74.06.06,0,0h0l-.06-.06,0,0ZM49.45,9.4l.06.06v0h-.06Zm0,.15h0v.06h0Zm0-3.45h0l.06.07h-.09Zm.18,4.1,0,0-.06.06v0l-.09-.09Zm-.15-3.79h.06l-.06.06Zm0,1.48h0V8h0Zm.06,1.87h0l-.06.07h0Zm-.06.28.06.06v0h-.06ZM49.69,6V6L49.63,6l0,0Zm-.06.31h.09v0l-.06.06,0,0Zm.06.28v.09l-.06-.06,0,0Zm0,1.16,0,0v0l-.06.06,0,0v0Zm0,2.25.19.18-.06.07h-.06l-.07-.07h.07v0h-.07v0l-.09,0V10Zm-.09.74v0h.09l0,0v0h0ZM49.85,9l0,0v0l-.19,0V9Zm-.13-3.85h0l.06.06v0h0l-.07-.06Zm0,4.52h.07v.07h-.07Zm.07-3.57h.06v.07h-.06Zm0,.31h.06v0h-.06Zm0,3.88h0v.06h0Zm.09-.5v.07h-.06Zm0-4.82H50V5h-.06Zm0,5.78v.06h0v-.06ZM50,8v0l0,0h.06L50,8.11l0,0v0L50,8.23h0v0l0,0v0l-.06-.07,0,0Zm0-4.92v0l.16,0s0-.06-.1-.06Zm0,7.72v.06h0v-.06Zm0-9.35h.06v.09H50Zm0,9.45,0,0h.07l0,0h0l0,0v-.06h.06l0,0v-.06s0-.06.13-.06v0h-.06v0C50.21,10.63,50.14,10.73,50.06,10.94Zm0-3h0V8h0Zm0-6.62h.06l0,.13,0,0h0Zm.12,9.88v.06h0v-.06Zm.09-2.67h0l.06,0-.06.13h-.09V8.53Zm.09-6.9h0l.07.06-.19.16,0,0v0C50.39,1.69,50.43,1.64,50.43,1.58Zm-.12,5.33h.06v0h-.06Zm0,.86h.06v.12h-.06v0l0,0v0Zm0-4.37v.06h0V3.4Zm0,4.06.12,0v0L50.4,7.4Zm0,3.48V11h.09V10.9Zm.12-6.59.12.12-.08.1-.1-.1v0Zm.07.25v0l-.07.06h0Zm-.07-1.94h.07l-.07.06Zm0,8.34v0h0v0Zm.08-4.19h.07l-.07.07Zm0,4.13v0h.07v0Zm.19-7.2V3.8h0V3.74Zm0,1.35h.06v0h-.06Zm0,6v.06h.06v-.06ZM51,10.9V11h.1l0-.08,0,0Zm.25-.3v.12s0,.06.09.06.13-.06.13-.09v-.06l-.1-.1h-.06Zm.09.27v0h.07v0Zm.1.13v0h.06v0Zm.12-3.88v.06h0V7.12Zm0,3.88v.06h0l.09-.09h0Zm0,.15v.06h0v-.06Zm.15-9.07h0l.07.06,0,.12h-.1v0Zm0,.4.1.09-.07.06,0,0Zm.15,8.15v.12h0q.12,0,.12-.09v0Zm.07.55.12,0,.1,0v-.12L52,11A.2.2,0,0,0,51.88,11.18ZM52,6.84v.07l.07,0,0-.08,0,0Zm.19-3.6,0,0v0a1.25,1.25,0,0,0,.47.21h0V3.43A1.1,1.1,0,0,0,52.22,3.24Zm0,7.7.16.06c0-.11,0-.16.12-.16l0,0v0l0-.15h0C52.27,10.72,52.18,10.82,52.18,10.94Zm.31-7.76.06.06h0l-.07-.06Zm.06,4.19h.07V7.3Zm.07,3.5h0c.16-.08.24-.18.24-.27l0,0h0A.28.28,0,0,0,52.62,10.87Z"/><path class="cls-1" d="M7,15.28h.7l.06.06V16l0,0-.21,0h0l0,0,.07.06h.21v.06h-1l0,.1h0l0,0v0l0,0H6.51l0,.13-.05-.06v0l0,0H6.27v.1H6.18v-.07l0,0H6l0,.13s-.06,0-.06-.13H5.75v0l0,0-.06.09v.06l.06.09s-.06.08-.16.12h0v0l0,0v-.09H5.56l-.09.06q0-.11-.21-.15a.08.08,0,0,0-.09.09h-.1l0,0v.06H5v-.06q-.12,0-.12.09v0l.18.18c0,.09,0,.13.16.13l.21-.16h0l0,0v0l.15,0h.1v.65l0,.15.06.16,0,.15,0,.12,0,.13,0,.12,0,.12,0,.12,0,.12,0,.13L5.69,19l0,.12v1.59a1,1,0,0,0,.06.4l0,0v.22q.09,0,.12.15l-.06.09v0l.18,0,0,0,0,.12L5.78,22v.1h.09l.25.24v0l0,0h0l0,0H6v0l0,0v.07a.44.44,0,0,1-.09.27v.15l0,.16,0,0h0c0,.17,0,.25-.09.25H5.78l0,0,0,.25a1,1,0,0,1-.4.12l.09.12v.06l0,0,0,0,0,0h0l0,0L5.44,24h0c0-.05-.1-.11-.31-.19l-.06.1,0,0v.09l0,0L5,24V23.8H4.92v.06h0c-.14-.1-.21-.17-.22-.21l.07-.06v0l0,0v-.07l.07-.08V19.85l0-.15,0,0,0-.12.09-.31-.06-.09v-.31l0,0,0,0v-.59l0,0,.15,0,0-.09s.06,0,.06.09h0c0-.06,0-.09.13-.09s-.15-.17-.43-.34v-.12s0-.07.09-.07v-.08s0-.07-.12-.1v0l0,0v-.55l0-.16,0-.09,0-.15L5,16.23v0l0,0c-.06,0-.09,0-.09-.07l-.09.07h0v0l0,0H4.64l-.15,0,0,0-.12.13a.29.29,0,0,0-.22-.13H3.38l-.15,0-.09,0H2.71l0,0S2.75,16,2.9,16l.24-.09v0l0,0h0l0,0H3v0s0-.06.12-.1a.4.4,0,0,0,.28.1h.21v0H3.57v0s.06-.07.18-.09v0a.62.62,0,0,1-.33-.07l-.12,0H3.2l-.06-.06v0l0,0H3.05L3,15.55l-.09,0-.16.06-.06-.06v-.18q.12,0,.12-.06h.9l0,0v0l0,0h0c0-.06,0-.09.07-.09H5.44l.22,0,.09,0,.12,0,.12,0,.13,0,.12,0,.12,0,.12,0,.13,0h0l0,0,.15,0Zm-3.93.12v.06l.06-.06Zm.43-.06h0l-.06.06.15,0v0Zm.09.55h0l0,0L3.6,16h.1l0-.06Zm.18-.21v0h.07v0Zm0,.12v0h.1v0Zm.34-.37H3.91l-.09.09c0,.09.11.13.33.13,0,.1.06.15.1.15h.12l.06-.07v0l-.18-.06v0s0-.08.12-.09S4.28,15.43,4.12,15.43Zm.18.46v0h.07v-.09Zm.19,2.42-.06.06h0v-.09l0,0Zm.06,1.81,0,0,0,.15H4.49l-.06-.05v-.07l.06-.06Zm0-2.7-.06-.06h.06Zm0,2h0v-.07h0Zm.1,3.49,0,0h0v0l0,0L4.52,23v0l.07-.06h0Zm0-7.36h0l0,0v0l0,0,.11,0Zm0,6.84h0v0h0ZM5,22v0h.06l0,0v0l0,0Zm.09-6.53L5,15.52v0l.1,0,.12,0v-.09Zm.59.49-.15,0,0,0-.13,0L5.22,16,5.1,16,5,16a.51.51,0,0,1,.31.12h.16L5.62,16l.16,0,.12,0v-.06Zm-.62,6.69v0h.07v0Zm.1-6.11H5.1v0h.07ZM5.1,17.88v0h.07v0Zm0,1.9v0h.07v0Zm.07,1.47h0l.27.34v-.15S5.33,21.35,5.17,21.25Zm0-5.45v.06h0V15.8Zm.12.64H5.2v-.06h.09ZM5.2,18.59q0,.15.09.15l0-.15Zm0,4,0,.09q.12,0,.12.06l.06-.06v-.06Zm0-3.56h0v.06h.1Zm.15-3,0,0-.06.06h0l0,0L5.38,16Zm0,.52,0,0-.06-.07h.09Zm-.09.83v0h.06v0Zm0,.95.06.06h.06v-.06ZM5.38,17V17h.09V17Zm0,.49v0l.09,0v-.07Zm0,2.43v.06q0,.09.18.09v-.09Zm0-4.3v0h.12v0Zm.12,2.09H5.44v0l.1.09.08-.06Zm.1,4.17v0h.09v0Zm0,.33v.07h.09v-.1Zm.06-.7v.07h0v-.07Zm0,1.35v.28L5.87,23l-.09-.1,0,0,0-.12Zm.06.31v.09h0l0,0Zm.12-2.46v.07h0l-.06-.07v0Zm-.09,1v.06l.06-.06Zm0,.15v0H5.9v0Zm0,.36v.13h0l0-.09v0Zm0,.22v0h.06v0Zm.09-7.3H5.84v0H5.9Zm0,1.23H5.84v0H5.9ZM6,21.9l0,0S6,22,5.9,22L5.84,22v0H5.9l0,0v0l0,0Zm-.15.58v.06h0v-.06ZM6,15.21H6v-.06H6Zm0,1.23H6v-.06H6Zm.15-1.35h0V15Zm.13.71H6.21l-.12.06q0,.12.09.12l0-.12L6.3,16l.09,0v-.06Zm-.15.52h0v-.06h0Zm.15-1.11H6.18v0l0,0Zm.37,6.2-.06.15-.37.13h0l.09-.25q.27,0,.27-.15h.07Zm-.37-5.95v0h.12v0Zm.06,7.3h0V22.7h0Zm.06-7.67H6.33v0h.06Zm.12.12H6.43v0l0,0Zm.13-.12h-.1v0l0,0Zm-.1.52v0l.07.06h.06l0-.1Zm.07.71h0v-.06h0Zm.12-1.11h0v-.06h0Zm0,.47v0h.06v0Z"/><path class="cls-1" d="M7.57,17.45c.63.49.95.77.95.85l0,.12v.06h.06l-.06.09,0,.12,0,.13v.06h.06v0H8.49v.16l.12,0,0,0h.63l.1.06h.06l.09-.06a.37.37,0,0,1,.21.18v.09s0,.06-.09.06v.09l.09.15,0,.12,0,0h0c-.06,0-.09.05-.09.13l-.21.06,0,0h0l-.11,0,0,0-.21,0H8.67l-.09-.06q-.09,0-.09.18l-.15.06-.07-.15H8.21l0,0v0s-.06,0-.06.12h0l-.12,0-.09,0,0,0-.12.09-.15,0,0,0v0q.18,0,.18.09v0H7.73v0H8l.24-.06.1,0v.06h0l-.1,0v.06a.36.36,0,0,1,.28.15v.7c0,.06,0,.1-.12.1v0s0,.06.09.06l0,0v0s0,.06-.1.06l0,0v0l.09,0v.13q-.09,0-.09.06v0l.05.09,0,0v0c.07,0,.1,0,.1.06v.09l-.1.12c.07,0,.1,0,.1.07l0,0,0,.15v1l-.07.06H8.37l-.1-.06L8,23.64H8v-.15H7.91a.41.41,0,0,0-.27.15h0l-.07-.06V22.51l0-.11,0-.13v-.39l.13-.15c-.08,0-.13-.06-.13-.1v-.54s0-.06.1-.06l0,0v-.06c-.08,0-.13,0-.13-.06v-.49l0,0,0,0v-.06l0,0,0,0V20l0-.11c0-.15.05-.22.09-.22s.08.09.18.09H8l0-.18H8l-.12,0H7.64l0,0h0l0,0v-.73l.07-.09-.07-.06v-.12h.07a.45.45,0,0,0,.24.09l.06-.09v-.06c0-.05-.12-.1-.37-.15v-.09l0-.13,0-.11,0,0v0l0-.11,0,0v0l0-.12,0-.12,0,0Zm0,2.4.07.06v-.06Zm0,.6.06.07h.12v-.1h0Zm0,1.92v0l0,0v0a.16.16,0,0,0,.15-.16H7.67Zm.06-3.22v.06l.18,0v-.06s0-.06-.09-.06Zm0,2.64v0h.06v0Zm0,.3v0h0L7.85,22l0,0Q7.7,22,7.7,22.09Zm.12-6.8h.82l.06.06v.16s0,.06-.09.06a.32.32,0,0,0,.09.21V17l0,0,0,0v.13l0,0,0,0v.18h.06v0H8.7v.06l0,.12,0,.12v.07h.06v0H8.7V18h.06V18l-.12,0-.88-.75v-.36c0-.05,0-.07.09-.07l0,0v0l-.12-.18V15.35Zm-.06,4.62V20h.09l.06-.05,0,0h0Zm0,.85.12,0,.09,0V20.7l-.09,0Zm0,1.75h.06v-.05Zm0,.77v0h0l.09,0v-.06H7.88Zm0-.73v0l.12.06a.18.18,0,0,0,.12-.13h0Zm0-7v.06h0v-.06Zm0,7.25h.06v-.06Zm.06-5.49q0,.09.18.09l0,0q0,.09.12.09l0,0v0l.11,0v-.06l0,0v0l0,0h0L8,17.27Zm0,1.6H8L8,18.88H8ZM8,16.51v.06l.09.09.06-.06-.09-.09Zm0,4.09v0h.06v0Zm.06-1.36,0,0v0h.09Zm.12-2,.07.06v-.06Zm.13,1.42c0,.06,0,.09-.13.09v0h.07v0l.11-.09Zm.05-1.85-.05.09.24.09h0v-.09C8.64,16.82,8.57,16.79,8.42,16.78Zm.16-.91v0h.06v0Zm0,2.49h0v.06h0Zm0,.21h0v.06h0Zm.09.09h0v.06h0Zm.12.09,0,0v0H8.76Zm0-.18h0v.06h0Zm0,.4h.06L8.79,19Zm0-1.1h.06l-.06.07Zm0,.18h0v.07h0Zm.06.83h.06v0H8.88Zm0-1.49H9v0H8.91Zm0,.79H9v0H8.91Zm.15,1.39c0,.06,0,.1-.12.1v0q.12,0,.12.15h0l0-.18,0-.1ZM9,18.78H9v0H9ZM9,19H9v0H9Zm0-1.1h.06v0H9Zm0,.4h.06v0H9Zm.16-.12v.06H9.09Zm-.07.21h.07v.06Zm0-.39h0V18h0Zm.09.08h0v.07h0Zm0,.4h0v.06h0Zm.06.43h0v.05h0Zm0-1.49h.06v0H9.31Zm0,1h.06v0H9.31Zm.06,1.12v0q0,.09.12.09t.12-.09Zm.12-1.12h.06v0H9.49Zm0,.18h0v.06h0Zm.09-.09h0v.06h0Zm.18.21h.06v0H9.79Zm0,.27h.09l.06.07v0l-.06.06L9.79,19Zm0,.37h.06v.06H9.79Zm0,.3h.06v0H9.79Zm.12-.18H10v.09H9.91ZM10,19h.08v0l0,.15H10v0l0,0v0Zm.05.54h.06c.19.13.29.22.31.28v0l-.06.06h0l0,0,0,0h-.06l-.06-.06,0-.1h0c-.06,0-.1-.08-.1-.18Zm.06-.57h.1v.27l-.06.06,0,0Zm.37,0h.09s.06.08.06.22h0q0-.18.06-.18l0,0v.27s0,.06-.12.06v.27l-.06.07-.3-.31q0-.21.12-.21C10.4,19,10.43,18.93,10.49,18.93Zm-.21.85v.07h.06v-.07Zm.45-.42,0,.09,0,.27h-.06v0l0-.13,0-.12v0Zm.13-.43.05.07v.63h0l0,0h0l0-.15v0l-.07-.09V19Zm1.91-3.64h.78l.07.06v.25l0,.12,0,0,0,.37v.21l0,0,0,0v0l0,.12,0,0v0l0,.15,0,.21h0l0,0v0l0,0,0,.16v.15l0,0,0,0,0,1v.73l0,.12,0,.12.16,0s0,.06-.13.06l0,0v0l.07.06,0,0v0c.1,0,.16.05.16.09h0l-.13,0v.12h0l-.08-.07,0,.16v.69h.08v.19l0,.18,0,.15,0,0v0l0,0-.08.61v0h0v-.06l.06.06,0,0,0,0v.24h0a9,9,0,0,1-1.12-.94v0l.06-.09L12.52,21v-.15s0-.06.12-.06V20q-.12,0-.12-.18h-.36s-.06,0-.06-.08H12c0,.05,0,.08-.05.08h-.06l-.13-.18h0l-.13.07.06.08,0,0H11.4l-.25-.11s0,.08-.05.08a.19.19,0,0,1-.13-.21l0,0,0,0h0l0,0,0-.15V19l.06-.07h.25l0,0,0,0h.06c.22,0,.36.06.42.19.19,0,.28-.05.28-.09s-.15,0-.15-.06l0,0H12l.18,0,0,0h0l.18.13.06-.16v-.39l0-.15,0-.18v-.61s0-.06.12-.06v0l-.12,0,0,0,0-.15v-.33l.06-.1-.06-.09V15.42C12.52,15.36,12.6,15.32,12.77,15.29ZM11,19.15v0l.08.09.07-.06v-.06l-.07-.06h0Zm0,.39v0h.08v0Zm.54,0v0h.06v0Zm.67-.3,0,0v0l-.09.12.06.18-.06.06v0h.09l.15,0v0l-.06-.1.15-.15v0l-.21-.21,0,0Zm.21,2.24a7.61,7.61,0,0,1,1,.85l-.06.07.06.06v.05H13.4v0a.87.87,0,0,0,.3.31l0,0h0a.55.55,0,0,1,.11.3h0q0-.09.06-.09l.06.49-.09.05,0,0h0l0,0-.12,0-.15,0-.19,0v0l-.09.1h-.82l-.06-.06v-.15h-.12v-.1c.06,0,.09,0,.09,0s-.12-.06-.12-.16,0-.15.12-.15v0q-.09,0-.09-.06v0l.09-.12,0,0v0l.06-.21,0-.09,0-.28V22l0-.12,0,0v0c0-.11,0-.16-.09-.16ZM12.74,20V20l0-.07Zm.08.13,0,0v0l0,0h.07v0Zm.4,0v0h0l.09,0,0,0V20h-.09Zm0,.06v.12h.06v-.06Zm.06.45v.07h.06l.06-.07Zm0-4.27v0h.12V16.3Zm.21,6.43v.06h0v-.06Zm.1-1.61v.06h0v-.06Zm.12,2.13,0,.08.06-.06v0Z"/><path class="cls-1" d="M13,21.77l.06.06-.09.06-.06-.06Zm.38-.83,0,0v0c0,.05-.07.09-.2.11l0,0v0A.37.37,0,0,1,13.33,20.94Zm.21-3.06h.09l-.06.06,0,0Zm4.15-2.57h.21a4,4,0,0,1,2.82,1.12l0,0h0l0,0h0l0,0v0l0,0v0l0,0h.06v0l0,0v0l.06.06,0,0h.08s0,.06-.08.06a2.68,2.68,0,0,1,.41.56l.18-.06.06.06-.12.06v.06l.2.56v0h-.17v0l.15,0,0,0h0l.09.21v.06l0,0v0c.08,0,.15.35.21,1v.09l-.12,1H22v.06q-.12,0-.15.3a4.17,4.17,0,0,1-2,2.37,5,5,0,0,1-1.93.48v.06h-.06v-.06a4.15,4.15,0,0,1-3.7-2.11v-.06a.08.08,0,0,1,.09.09c.07,0,.11-.06.11-.09s-.06,0-.06-.12H14.2v.06h-.13a2.42,2.42,0,0,1-.41-1.09l0,0h0s.1.06.29.06l.45.47h0l0,0v-.18h.18q.09,0,.09.12l0,0h.06l.06-.15v-.12c0-.1,0-.16-.09-.17s-.15.06-.15.2l-.09.06h-.12l0,0h0l0,0v-.06c-.06,0-.09,0-.09-.11s0-.06-.11-.06l0,0v-.1h.05v.07a.3.3,0,0,0,.15-.24l-.3-.36c0,.1,0,.15-.11.15v.06l.08,0L14,20h0q0-.12-.09-.12l-.18,0v0a.11.11,0,0,1,.12.12l0,0h0q-.11,0-.15-.36v-.18A4,4,0,0,1,15,16.29h.07c0,.07,0,.11.05.11l0,0,0,0v-.15A4,4,0,0,1,17.69,15.31Zm-3.85,2.93v0H14v0ZM14,20.05v.08l-.06-.05,0,0Zm.32.8v0h.09v0Zm0-2.67v.06l0,.15.18-.12.12,0h0v-.06h-.21s-.06,0-.06-.12h0ZM14.52,21l0,0v.05c0,.13,0,.19.09.19h0v0l0-.13,0-.08h0l0,0Zm0,.3v0h.06v0Zm.3-.27a1.48,1.48,0,0,0-.24.44v.06h.12v-.15a.49.49,0,0,0,.18-.3Zm-.21-1.75v.23h0l0-.23Zm0,.71c0,.14,0,.2.09.2l.12-.17-.09-.09Zm.12,1.39v.06h0v-.06Zm.06-2.87v.06h.06v-.06Zm.06.17v.06a.34.34,0,0,1,.08.18H15l.1-.09v-.05a.32.32,0,0,1-.19-.1Zm.21,1s-.06.11-.19.21l0,.21,0,0h0l0,0v0l0,0c.12-.05.19-.12.19-.21l0,0,.05-.06v-.06Zm-.19,1.9,0,.12,0,.12,0,0h0l0-.18,0-.09Zm0-.77,0,0v.06l.06.06h0l0-.15Zm0-2.91L15,18h0L15,17.91Zm.09,1.4v0l.07.06h0Zm0,1.07v0h.07v0Zm0,.5v0l.07.06h.05v-.09l-.05-.06Zm.07-.83.05.06,0,0,0-.09Zm.05-.65.09.06h0l.06-.06v-.06l-.06-.06h0S15.2,19.32,15.17,19.4Zm.15,2.28-.06.09.06.06h0l.06-.06v-.06Zm.15-9v0q-.11.24-.15.24l0,0v0s.06-.07.09-.21Zm0,2.7,0,0v0l0,0h0l0,0v0l0,0Zm-.06,3.77h.06v-.06Zm.12.94,0,0v0h.08Zm.32-5.42,0,0,0,.09h-.05v-.06Zm0,4.63,0,0v0c-.06,0-.08.07-.08.17h.05l.21-.29v0A.32.32,0,0,1,15.82,19.34Zm0,2.49v0h.15v0Zm.09-9.61,0,0v0l0,0h0l0,0v0l0,0Zm-.06,5.58v0c0,.11,0,.17.09.17v-.06l0-.14Zm0,2.72v.15q.18,0,.18-.09v0l-.15,0Zm.06-4.45v.06h0v-.06Zm.06-.05v0l.06.06h.09S16,16,15.94,16Zm0,2.9v0H16v0Zm0-.44.09.08h0L16,18.48ZM16,15.87,16,16l.12-.12Zm0,4.71v.06h.06v-.06Zm0-.65v0l.06.06,0,0v0l0,0Zm.18-3v0s.05.07.15.08S16.36,17,16.27,16.91Zm.09,1v0h.14l-.05-.05Zm.11,3.59v0l.06.06v-.09Zm0,.21v0h.07v0Zm0-1.1v0h.07l.23-.06v0h-.06Zm.07-4.06.06.06h0l-.06-.06Zm.2,2.64,0,.09h0l.06-.06,0,0Zm0,.5v.06h.06v-.06Zm0,2v.06H17q.23,0,.24-.09v0h-.12Zm0-6.05h0l.09-.09v0Zm0,4v0h.06v0Zm0,.48v.05h0v-.05Zm.12,3.14H17q.22,0,.24-.09h-.06Q16.94,23.13,16.92,23.22Zm0-5.69v0H17v0Zm0,5.34v0h0l.15,0v0h-.09Zm0-3.12v0h.06v0Zm.12-2.11h-.06v.06h.15l.5.07.06-.1-.17-.05Zm0-3.19h.09v0l-.06.06h0Zm0,1.27v.06l.15,0h.14v0Zm0,4.8v0h.09v0Zm.12-6.67,0,0v0l0,0h0l0,0v0l0,0Zm0,2.82v0h.06v0Zm.12-2.25,0,0v0l0,0h0l0,0v0l0,0Zm-.06,4.79v.1h.09Zm.09-.05v.05l.05-.05Zm0,1.33v.06l.05-.06Zm0,6.2h.05v0h-.05Zm0,.45h.05v.08h-.05Zm.08-13.32h.06v0h-.06Zm0,13.11.1.05,0,.1h-.06Zm0-10.59v.06h.1a.5.5,0,0,1,.29.09l.12,0V16.4l-.15,0h-.29l0,0Zm.07-.5a.35.35,0,0,0,.32.15l.06-.06q0-.09-.18-.09Zm0,3.62v.05h.05v-.05Zm.2,7.76.06.06-.15.12h-.06v0Zm-.12-8.09s0,.06.12.08v0l-.06-.06Zm.15-3.56v.06H18v0ZM18,18.48v0l.06,0h.06l-.09-.08ZM18.26,21V21h.27l0-.15Zm0,.38v0h.06v0Zm.15,0v0h.21l.06-.06h-.06Zm.15-3.62v0l.15.07.12,0-.06-.07Zm.15-4.65,0,0v0l0,0H18.7v0Zm.2,2.61v0H19v0Zm.1,7v0h.15v0ZM19.23,21v0h.06v0Zm.15-3.39v0h.06v0Zm.09-2.75h0V15h0Zm.09-2.79,0,0v0l0,0h0l0,0v0l0,0Zm0,10.29v.06l.09,0v0Zm.06.36v0h.09v0Zm.12,1.8,0,0v0l0,0h0l0,0v0l0,0Zm0-8.59v0h.06v0Zm.3,6.28v0h.11v-.06Zm.08-.92v0h.09v0Zm0-4.18v.06q0,.09.18.09h.12v0c0-.08-.11-.12-.27-.12Zm.06,2.2q0,.09.24.09h.06l.09-.09-.18-.06Zm0,2.16h.12l.09-.09h0Q20.21,21.44,20.21,21.5Zm.18-4.68.06.06h.09l.06-.06Zm.24-2.26v0l-.06.06,0,0v0l0,0Zm-.09,1.6h.06l-.06.06Zm.09,1.16.06.06h.09v-.06Zm.15-1.16h0v0h0Zm.11.13h0v.05h0Zm.1,2.1v0H21v0Zm0-2h0v.06h0Zm.11.12h0v.06h0Zm0,.23h.06l-.06.07Zm0,4.22v0h.18v-.06h0Zm.09-4.33h0v.06h0Zm0,3.29v0h.06v0Zm0,.53v0h.06v0Zm.06-.62,0,0v0l.18,0v-.06h-.06Zm.06-3.09h0v.07h0Zm0,.24h0v.06h0Zm0,2.29,0,0v0l0,0h.06l0-.09Zm.09-.12v0l.15,0,.09,0v0l-.15,0Zm0-2.52h0v.06h0Zm0,.24h0v.06h0Zm0,.23h0v.06h0Zm.15-.12,0,0v0h-.09Zm0,2.05v0h.06v0Zm.06-1.93h0v.06h0Zm0,2.17v.06h0v-.06Zm.14,3.23h0l.06.06,0,0h-.06Zm.27-.36,0,0v0l0,0h0l0,0v0l0,0Zm.09-6.49.06.06-.09.06,0,0v0Zm.09-.39.06.07,0,0H22.2v0Zm.09,3.35,0,0v0l0,0h0l0,0v0l0,0Zm-.06,1.1h0l.06.06v0h-.09Zm1,1.63.36.12v.06h-.06l-.05-.06,0,0h0q-.21,0-.21-.09l0,0Zm.48-3.11.06.06,0,0h0l-.06-.06,0,0Zm0,2.67h.09l-.06.06,0,0Z"/><path class="cls-1" d="M17.25,24.09l0,0v0c0,.05-.09.1-.25.16l-.09,0s-.09.08-.25.1l0,0v0a1.43,1.43,0,0,0,.46-.19Zm.62-4.82h.19v.07l-.16,0,0,0Zm.5,3.76.06.06-.13.1-.12,0-.06.06-.06-.06S18.16,23.07,18.37,23Zm.06-3.79h.09l.06.06v.07l-.15,0c-.17,0-.25,0-.25-.1Zm.21,1,0,0v0l-.35.06V20.3Zm1.15,1h0v.06h0Zm.87.9v0l-.06.07,0,0v0l0,0Zm0-1.4h0l.07.07,0,0h-.07ZM21,24.37v0l-.08.09h0V24.4Zm.07-1.18,0,0v0l-.1.06h0v0Zm.16-2.52h0l.07.06c0,.05-.1.08-.31.1l0,0v0Zm.15,3.48v.09c0,.06-.1.1-.28.13v0A.31.31,0,0,1,21.41,24.15Zm8.2-8.91.15,0h.87l.07.06v.15c0,.06-.05.1-.13.1v.06h.13v2.73l0,.12,0,0v0l0,0v0l0,.1,0,0v0l0,.09,0,0v0l0,0v0l0,0v0l0,.09,0,0v0l0,.13h0l0,.09,0,0v0l0,.09,0,0,0,.16v.56l0,0,0,0V21l-.07.1.07.06v.52l0,0,0,0v1a1,1,0,0,0-.41.38h0l.35-.13,0,0v.25l-.07.09.07.1v.09c0,.06-.12.09-.34.09h-.07s-.06,0-.06-.12l-.4.12-.07-.09v-.19l0-.12,0-.12v-.07c0-.06.12-.1.34-.12v0L30,22.91l-.21.09-.07-.09v-.56l0-.43,0,0,0-.22V20.14c.16,0,.24,0,.25-.09v0h0l-.22,0,0,0v0l0,0v0l0,0v0l0-.1,0,0v0l0,0v0l0,0v0l0-.09,0,0v0l0-.09,0,0v0l0,0v0l0-.09,0,0v0l0,0,0-.16v-.59s.07-.08.19-.13-.06-.09-.19-.12v-.34l0,0v0l.15,0h.12V17.6l-.31-.28v-.94l-.4.81s-.08.15-.15.44L29,18h0l0,0h0s-.07.06-.19.06v0H29a1.23,1.23,0,0,1-.31.65l0,0v0a4.67,4.67,0,0,0-.38.94l.07.06-.1.09,0,0h0l-.28.67,0,0h.06l.07.06v0l-.07.06H28l-.09-.06-.34.84.06.06c-.09,0-.2.17-.31.49l-.15.07s0,.06.09.06v.1c-.09,0-.19.24-.31.65l-.16.18,0,0a2.09,2.09,0,0,1-.27.62H26l-.09-.09v-.24c0-.05,0-.07.09-.07v0c-.1,0-.15-.07-.15-.22h0v.22h-.06a1.12,1.12,0,0,0-.16-.4v-.07s0-.06.09-.06v-.09q-.09,0-.09-.12l0,0h0v.1h-.06v0l0,0v0c-.06,0-.15-.14-.27-.43h-.09v0c.05-.15.1-.22.15-.22v-.09l-.15.06v0l.05-.1,0,0v0l0,0H25l-.09-.34v-.15c.06,0,.09,0,.09-.1l0-.12c.06,0,.1,0,.1-.06v0c-.09,0-.13,0-.13-.1l0,0h-.07v-.34h.07v.07l.06-.07-.06-.19-.19.19h0v0c.06,0,.09,0,.09.07V21h-.06c-.05-.22-.1-.34-.15-.34l-.1.1h-.06l-.06-.07.22-.06c0-.15-.1-.25-.28-.31l-.07.06h-.09v0s.08-.07.25-.09v0l-.4-1q.09,0,.09-.18v0h-.16a.66.66,0,0,1-.21-.47c-.06,0-.12-.13-.19-.38.18-.18.29-.27.34-.27s.16,0,.16-.1l-.1-.06-.18.12h-.13l-.12-.06-.15,0-.5-1.17,0,0h0a.44.44,0,0,0,.31.13l.13-.28c-.05,0-.09-.06-.13-.19-.23,0-.34-.05-.34-.15v0h-.1l.07.1-.1,0,0,0v0l-.15.07-.09,0-.25.06-.09,0,0,0v0c.15,0,.22,0,.22.1l0,0c.23,0,.34,0,.34.06v.16l-.06.09.06.06V17l-.06.09.06.06v1.56l-.06.06h0l-.13-.1a.58.58,0,0,1-.4.16v0l.19,0c0,.05.06.11.18.16v0l.1,0-.07-.1s.08-.08.22-.12v0l0,0,0,0v.62s-.05.06-.15.06-.07.16-.22.19a.4.4,0,0,0-.12.22h0l.09,0,.25-.18.06.05V20l0,.09h0l.06.06v.38l-.06.06h-.34c-.13,0-.19,0-.19.09h0l.53,0,0,.19-.06.15.06.06v.31h-.06l-.06-.06-.1,0v.1c.15,0,.22,0,.22.09v.09l-.37.06v0h.22v0s0,.06-.1.06l.07.09v0l-.07,0-.09,0-.09.08v.1l.09,0c.05,0,.16-.1.31-.31l0,0h0c0,.21-.05.31-.12.31h-.06v.07s.06.05.06.15l.09,0v.28s0,.06-.09.06l0,0v0c.08,0,.12,0,.12.07v.77l-.06.06H22.4s-.06,0-.06-.09l0,0h0a.22.22,0,0,1-.22.12h-.22l-.06-.06v-.56s.06-.08.16-.12a.18.18,0,0,0,.18.15V23l-.18-.12-.06.06h-.07v0l.1-.09,0,0h0v-.07l-.05-.06-.1,0,0,0v-.13l0,0v0l0,0h.07l-.13-.22,0,0h0v.06h.07l-.07-.1,0,0h0a.3.3,0,0,1,.09.18l.19-.09.06.06v0l0,0v0q.08,0,.09-.12h.06v0l-.31-.12c0,.12,0,.19-.1.19h-.12l-.06-.07V22h0l.1,0v0l0-.16,0,0c-.09,0-.13,0-.13-.07v0l0-.21,0,0-.47.09v-.09l.38-.13v0c.06,0,.11-.08.15-.25L21.78,21v-.28l0,0,0,0v-.75l0-.27,0-.13,0,0v0l0-.12c.1-.05.15-.09.16-.13v0h-.06l0,0h0l0,0v-.62s0-.07.1-.07v0c-.07,0-.1,0-.1-.07v-.9l0-.34,0-.09c.15-.05.22-.09.22-.13s-.07-.06-.22-.09v-.37s.09-.07.25-.09l.06-.1v0c0-.06-.09-.09-.28-.09l0,0v-.62l0,0v0l.19.06,0,0v0c0-.06-.08-.09-.22-.09v-.06h.44v0l0,0v0l.21,0v0l0,0v0l0,0h.65a6.08,6.08,0,0,1,.69,1.45h0l-.19,0h-.21v0a.85.85,0,0,0,.37.13l.09,0,.06.09,0,.19h0l0,0h0l.35.77-.13.13s.07.06.22.06l.1.25-.1.09a.23.23,0,0,1,.25.25l-.1,0a.66.66,0,0,1,.31.44l.63,1.43h0c-.07,0-.1,0-.1.06l.15.09,0,0,.71,1.62h.06a6.22,6.22,0,0,1,.66-1.43h0l0,0v0l.37-.93q-.09,0-.15-.12s.11-.12.34-.25l1.33-3c.23.09.34.16.34.22l.19-.16c0-.08-.09-.15-.28-.18l-.06.05h0v-.05a.07.07,0,0,1-.08-.07l.18-.37,0,0h0l.07-.06v0l-.07-.13c.12-.31.22-.46.31-.46Zm-8,8,0,0v0l-.12.06,0,0v0Zm.22-7.73v0h.07v0Zm0,7.64v0H22v0Zm0-7.43v0l.05.07.19,0a.8.8,0,0,0,.41.09l.06-.06V15.7l-.19,0Zm0,5.47v0l.12-.09v0h0ZM22,23.38h0l.12-.13v-.06h-.06C22,23.21,22,23.27,22,23.38Zm0-6.84v0h.09v-.06Zm0,5.31c.06,0,.09,0,.09.07s.07-.07.1-.19h-.1S22.06,21.77,22,21.85Zm.06-.4,0,.09h0l.1-.09Zm0-4.29v0l.07.06.06-.09Zm0,.78V18l.1,0v0Zm0-1.93v.06h.07Zm0,2.64.1,0,.09,0v-.12h-.09Zm0-2v.07h.18v0l-.06-.07Zm0,6.12.18-.15v-.06h-.06A.2.2,0,0,0,22.19,22.75Zm.06-1.21,0,0v0l0,0h0l0,0v0l0,0Zm0-3.2h.09l.09-.09h-.09Zm0,4.85.06.06h0l-.06-.06Zm.06-7.12v.07h.16v-.07Zm0,3.05v.06h0v-.06Zm0,3.23v.06h0v-.06Zm0,.4v0h.06v0Zm0-5.84v0l.06.07.16,0v0l-.06-.06Zm0,2.61v.06l.1,0v-.09h0Zm0,1.52h.06V21Zm0,1.71h.07v-.06Zm.07.31-.07.22h.07l.06-.12v0Zm0-2.33h.06v-.06Zm0,1.77v0l.06.06v0Zm.21,1.9h.07l.06.06-.31.16h0v-.1A.38.38,0,0,0,22.77,24.4Zm-.09-9v.06h.06v-.06Zm.13,8.42,0,0v0l0,0h0l0,0v0l0,0Zm0-7.36.09,0v.06h-.06l-.07-.06Zm0,4.41h0l.06.06,0,0h-.07Zm.07,2.2.06.07,0,0h-.1v0Zm.31.53,0,0v0a.26.26,0,0,1-.25.15h0v0C23,23.68,23.07,23.62,23.15,23.62Zm0-6.61v.06l.06-.06Zm0-.94h.06V16Zm0,1.09v0h.06v0Zm.12,4v0l-.06.06-.06-.06,0,0Zm0,2h0v.06h0Zm.06-6,0,0v0a1.35,1.35,0,0,1,.47.09l.09,0v-.06l-.15,0h-.31l0,0Zm.53.9a.45.45,0,0,0-.15.29l.12.15H24v-.07l-.1-.12s0-.06.1-.06l0,0v0A.22.22,0,0,0,23.83,18.12Zm0,2.86h0V21l-.06.07L23.71,21Zm0,1.71v.09h-.06v0Zm0-1h0v.07h0Zm.06-3v.06h0v-.06Zm.12,2.82,0,0v0l0,0h0l0,0v0l0,0Zm0-1.12h0v.07h0Zm.44.65h0l.06.07a.2.2,0,0,1-.19.12l-.15,0-.09,0v0C24,21.18,24.1,21.13,24.33,21.07Zm-.25-2.58v.07l.06-.07Zm.19.78v0h.12v0Zm.12,1.22.07.05,0,0h0l-.06-.06,0,0Zm.15,3.13.07.07,0,0h-.1v0Zm.07-3.6v.06l.06-.06Zm0,1.9h.09l.06,0-.06.07h-.06Zm.18-4.32h0l.1.09-.1.06q-.15,0-.18-.09v0Zm-.09,3.57.06.06,0,0h0l-.06-.06,0,0Zm0-3.79h.19v.09h-.13l-.06-.06Zm0,2.73v.07h0l.05-.07Zm.19.41v.06h0v-.06ZM25,23.4h.07v.07H25ZM25.23,21v.16l0,0h0l0-.12Zm0,.25v.06h0V21.2Zm0,.22v.09c.19,0,.28-.09.28-.16h-.06Zm0-.81v.06h0v-.06Zm0,.19v.06h0V20.8Zm.13-.75h0l.06.06-.06.07-.1,0v0Zm.15,3.33.06.05v0l-.09.09,0,0c0,.06,0,.11-.12.16l0,0v0s.07-.1.22-.19Zm-.06-6,0,0,0,0h0l.06.06-.15.09h0l0-.06Zm.68,2.45h.06l.07.06c0,.09-.14.14-.41.16l0,0-.06.09.06.07s-.06.08-.18.12v0l-.16,0h0l0,0h0l0,0v0l.31-.19,0,0v0C25.7,20,25.86,19.9,26.19,19.83Zm-.62,5.65v0l-.06.07h0v-.07Zm0-4.06v0h.06v0ZM25.76,18h.12l.06.06-.09.09q-.15,0-.15-.09Zm0,4v0h.06v0Zm.09-2.62.06.07-.06.06h-.06v-.06Zm0,2.74v.62l0,0v0h.12l0-.12,0-.13-.06-.09v-.07l0-.18,0-.09Zm0-4.69h.09l.06.06,0,0h-.06l-.06-.06Zm0,5.53h.06v-.07Zm0-2h.06v0h-.06Zm.16-.4h0l.06.06v0l-.06.06h-.16v0Zm0,2.88v0h.16v0Zm0-3.13h0v.06h0Zm0,2v0l0,.21h0l0,0h0q0-.21-.09-.21Zm.12.36h.16l.06-.05v0C26.23,22.56,26.16,22.59,26.16,22.62Zm.38-2.54h.18v.1s0,.07-.16.09l-.12-.09Zm.12-2.17.06.06-.06.06h-.07l-.09-.09,0,0Zm.19,6.3v0l-.07.07,0,0v0l0,0Zm.34-.28.15,0,.13,0v0l-.19.19h.12v0l-.06.13,0,.15s-.06,0-.06.09h-.06v-.21l0,0h0a.14.14,0,0,0-.16-.16h0v-.16A.2.2,0,0,1,27.19,23.93Zm0-1.93h.05V22Zm0-1.14v0h.06v0Zm.06.12v0h.06v0Zm.06,0h.09l.16,0-.06-.06C27.37,20.87,27.31,20.9,27.31,21Zm.06-.65,0,0v0l0,0h.06l0-.09Zm.1-.12v0l.21,0v-.05Zm.09-4.45,0,0v0l0,0h0l0,0v0l0,0Zm.12,6.37,0,0v0l-.09.07,0,0v0Zm0,1.59,0,0v0l0,0h-.06v0Zm0-.91h.06v.07h-.06Zm.09,2.64,0,0v0l-.1.1h0v0Zm.1-6.15.06.07h0l-.06-.07Zm0,2H28v0l-.09,0Zm0,.56h.06v0h-.06Zm.22-.56h.06v.09c0,.07-.09.1-.19.1h0v0A.31.31,0,0,1,28.09,21.29Zm.15,1h0l0,.06-.12.12h0l0,0h0C28.16,22.35,28.2,22.29,28.24,22.29Zm-.09-4.11v.07h.13v0Zm0,.88v0a.3.3,0,0,1,.21.09l.13,0v0s-.06-.06-.19-.06l0-.1Zm.13,5.4v.09h-.07v0Zm.18-4.54.06.07v0l-.06.06H28.4V20Zm0,.29,0,0v0l0,0h0l0,0v0l0,0Zm0,2.54,0,0v0l-.06.07,0,0v0Zm.1-1.3h.05v0l-.15.12h0C28.5,21.51,28.54,21.46,28.59,21.45Zm-.07-3.79v.09s.07,0,.07-.09a.23.23,0,0,0,.24-.16v-.06h0ZM28.71,22h0v.07l-.07.06-.05-.06Zm.09-.71,0,0v0l0,0h0l0,0v0l0,0Zm.1-2.76H29v0H28.9Zm.12.37h0l.06.06v0c0,.05-.07.09-.21.13V19Zm-.09-.49H29l0,.08,0,0h0Zm0,1.55H29v0l0,.09h0Zm.12-.41h.09l.07.06-.13.13H29L29,19.68v0Zm.16,1.74h.06l.06.06v.07l-.22.21h0L29,21.57C29.1,21.39,29.16,21.3,29.21,21.29Zm-.1-2.42h0v.06h0ZM29.29,21h0l.06.06v0l-.12.15-.13,0v0Zm-.05-3.66v.06h0v-.06Zm0-.41h.06v-.06Zm.06,1.81.06.05v-.05h0l.06.05h-.06c0,.07,0,.1-.06.1l-.09-.12,0,0Zm.12,1.14.13,0,0,0v0h.12v.06l-.06.06s-.06,0-.06-.09h0c0,.08-.06.12-.19.12L29.27,20A.17.17,0,0,1,29.45,19.89Zm0-1.4v0l.1,0c.09.05.14.09.15.13v.06c0,.06-.08.1-.18.1l-.07-.13h-.19v-.06A.19.19,0,0,1,29.48,18.49Zm-.19.41.1.09,0,0h0Zm0-.18h.06v0h-.06Zm.12,2h.1l-.07.06,0,0Zm0-6.34.07.07h-.07Zm0,1.06,0,0v.1h0l.06-.07Zm0,1.15v.06l.06-.06Zm.06,4h.06v.07h-.06Zm.15-4.93v.09l.1-.09Zm.07,7.67v0H30v0Zm0-1.8v0h.06v0Zm.12,2h.09l.07-.13h-.07S30,23.38,30,23.47Zm.16-8,0,.1h.07v-.1Zm0,5.75v0l.1,0,0-.09h0Zm0,1.43h.12v-.06H30.2Zm.06-2.73v0h.09v0Zm0,.36.15.16h.07l0-.12-.07-.06Zm.09-1.77s0,.07.13.1v-.1Zm.06,3.36h.1l.06-.06v0h-.06Zm0,1v0h.07v0Zm.1-3.35v.06h0l.09,0v0Zm0,1.06h.06v-.07Zm.09-2.12v.07h0v-.07Zm0-3v0h.07v0Zm.16,5.07.06.05,0,0h0Zm.06-1.62h.06L31,19l-.07.07h-.06l0,0h0ZM31,21h0V21l-.06.06,0,0v0Zm.18-1.27.06.06-.06.06-.06-.06Zm.06.15v.09l-.06-.05,0,0Zm0,2.67h.07v.07h-.07Zm.35-4h0l.06.07v.06l-.06.06-.1-.09v0ZM32.06,21l0,0v0l-.07.07,0,0v0Zm.81-.78H33v0l-.06.06h0Z"/><path class="cls-1" d="M30.37,17.89h.07v0h-.07Zm.22-2.71h1.8c1.61,0,2.59.27,2.93.81,0,0,.06,0,.06.16s.28.25.44.74l0,.1q.18,0,.18.87a2.62,2.62,0,0,1-.83,1.9,3.84,3.84,0,0,1-2.59.59h-.09l-.07-.06h0v.06H32.3l-.37,0,0,0v0l0,.24,0,.13,0,0h-.09v-.16s0-.06-.1-.06v-.06h.06v-.22h-.27v.22l0,0,0,0v.65l-.07.1,0,.12,0,.09.07.07v1.93l-.07.06h-.87l-.06-.06V21.88l0-.19,0-.15v0l0,0,0,0v-.5l.06-.09-.06-.06v-1.9l.09-.13q-.09,0-.09-.06V18l-.13-.38.13,0v-2.3Zm.06,4.33v.06l.1,0v0l-.07-.06Zm0,2.12v.15h.06l0-.15v-.07h0Zm0,.19v.06h0v-.06Zm.1-3-.07.12v0l0,.16h0l.09-.1v-.12Zm0-.72v.06l.07-.06Zm.1,2.34v0h.06v0Zm0,1.43v0l0,.16h0l0-.16v-.12Zm.06-1.22v.1h0v-.1Zm0-2.21.06.06H31v-.06Zm.09-.4v.06h0v-.06Zm.07.68v0l.06.07,0,0v-.15Zm0,.65v.07h0v-.07Zm0,1.19v.16l.06.06,0-.16-.06-.06Zm0,.53v.25h0l.06-.07V21Zm.09-1.5v.1h.06v-.1Zm.06.25v0l.07.07,0,0v0Zm.13-.49-.06.09v.06h.06l.06-.06v0Zm0,.28v0h.06v0Zm.22-.31v.05h0l.06-.05Zm0,2h.06v0h-.06Zm.15-.19.06.06,0,0h0Zm.13,1.46h.06s.06.09.06.25h0L32,23v.22l-.06.06-.06-.06Zm0-1.58H32l-.06.06ZM32,19.7v.06h0V19.7Zm.16,3.64h0v.06h0Zm0-7.85v.07l.06-.07Zm0,5h.06v0h-.06Zm0-4.11h.18l.1-.1h-.1C32.27,16.26,32.21,16.29,32.21,16.34Zm0,8.21h0l.07.07,0,0h-.06Zm.1-1.46h0v.06l-.07.07h0v-.07Zm0,.81,0,0v0l-.06.07,0,0v0Zm.1-4.67v.13l.06.05h0v-.08Zm0-1.37h0l.07-.06h0Zm.25,4.27,0,.18,0,0v0l0,.13v.06h0l.06.43h0l.06.38-.06.06.06.13,0,.15h-.06l-.09-.09,0,0,0-.16v0l0,0,0,0v-.09a.55.55,0,0,0,.09-.29l-.12.19h-.07l-.06-.06.06-.06,0,0h0a.64.64,0,0,1,.09-.31l-.06-.31,0-.1,0-.18,0,0Zm0-6.45c0,.06,0,.1-.12.1l0,0v0l0,0h0s0-.07.09-.07l.09,0s0-.06.1-.06l0,0v0l-.22-.06Zm-.15.59v.07l.18,0s0-.06-.09-.06Zm0,5.08h.06v0l0,.37h-.06l0-.21Zm0-5.79h.06v-.07Zm.21,3.14v.06h0V18.7Zm0,4.45H33l-.06.07,0,0Zm.13.16h.06v0H33Zm.22-3.83v0h.06v0Zm.12-1.68v0h.07v0Zm0,1.61v0h.07l.09-.09v0h-.07Zm.09-1.36v0h.07v0Zm.13.68h0c.13-.05.19-.09.19-.12v0C33.7,18.62,33.63,18.67,33.61,18.73Zm0,.22.06.06,0,0v0Zm0,.69v0h.09v0Zm.28-4.08.09.06a.31.31,0,0,0,.19-.16v0H34Zm.22,3.61,0,0v0h.09ZM34.39,16v0h0l.1,0v0h0Zm.37.16.19,0q.12,0,.12-.09v0h0C34.86,16,34.76,16.07,34.76,16.12Zm.07.56,0,0v0l0,0v0l0,0h0l0,0h0l0,0h0a1.67,1.67,0,0,1,.5.19q.15-.06.15-.12l0,0v0l-.09,0-.34-.06,0,0h0Zm.37,1.9v0h.06v0Zm.22-.6v.07h.06l.06-.07Zm.15.47h0q.12,0,.12-.09v0h0Z"/><path class="cls-1" d="M38.32,15.21a2.19,2.19,0,0,1,2.2,1.41l.08.24s0,.06-.08.06V17l0,0h0q.09,0,.09.33l-.06.06h-.08l-.16,0-.18,0h-.39l-.27-.69s-.06,0-.06-.12l.09,0v0l0,0v0l-.15,0a1.35,1.35,0,0,0-1-.42h-.12a1.38,1.38,0,0,0-1.38,1l-.06.27-.1,0a.34.34,0,0,0-.26.15l0,.06.31-.09q0,.88,1.14,1.32v0H38A4.84,4.84,0,0,1,40,19.6v0l0,0h0v.63h0L40,20l0,0,0-.15v-.13H40v.16h0c0-.13,0-.19.06-.19a2,2,0,0,1,.72,1.51h0l0,0v.12a2.26,2.26,0,0,1-.59,1.53h0l0-.45h-.07v.48l-.06.06h0l0-.36v-.09l0-.3,0,0h0v.9h0L39.94,23v-.21l0,0,0,0V22.6l0,0,0,0v0L40,22h-.06V23c0,.33-.43.54-1.29.66h0l0,0-.06.07h0l-.15,0-.15,0a2.94,2.94,0,0,1-1.23-.34v0l0,0v0h0l0,0h0a2.27,2.27,0,0,1-1.15-2l0,0h.88l.15.57a1.56,1.56,0,0,0,1.47,1.05h.09a1.56,1.56,0,0,0,1.5-1.08v0h.06V22h0l0-.3H40v.06h.05l.06-.15-.06-.06v-.21H40v.24H40v-.18L39.91,21s.06,0,.06-.09H40V21l0,.12,0,.09h0c0-.07.07-.11.22-.12l.08-.09L40.18,21l0,.09h-.06l0-.12.27-.09v-.06h0l-.18.09-.08,0,0,0v-.09l0,0h0v-.06q-.09,0-.09-.36l0,0h0v.36l0,0,.06.18h-.09q0-.44-.81-.9l-.06.06,0,0v0l0,0a.53.53,0,0,1-.3-.15q0-.07.12-.09v-.1h-.09a.24.24,0,0,1-.12.19h-.06a10.77,10.77,0,0,1-1.26-.48V19.3l-.12,0a2,2,0,0,1-1.23-2v-.09a1.94,1.94,0,0,1,1.2-1.77l.39-.18ZM36,17.58H36l.07-.06H36Zm0,.12v.06l.06-.06Zm.06,4.3h.07v-.06Zm0-4.3.11,0,.22-.09v0l-.06-.06h0A.25.25,0,0,0,36.1,17.7Zm.17,6.89h0l.1.06.11-.06,0,0v0a.57.57,0,0,1-.39.24l0,0v-.13Zm-.08-6.68v0l.32,0,0,.09v0h.12l.06-.07,0-.09,0-.09,0,0h0Zm.08-.42h.1l.06-.06v0h0C36.31,17.43,36.27,17.46,36.27,17.49Zm0,.78v0h.07v0Zm.07-1.41h.09V16.8h0Zm0,8.06h.06l0,.21h0l-.06-.06Zm.06-.12,0,.06,0,0h0Zm0-6.56v0h.24v-.06h0Zm.29,5.26h.07v.06h-.07Zm.76-4.75v.07h.06Zm0,.63h0l.06-.05h0ZM37.87,22l0,0v0l0,0h0l0,0v0l0,0Zm.06-3.1h0l.15,0v0H38ZM38,17.61h0l.06.06-.06.06,0,0Zm0,.18h.09v.06l0,.21H38Zm0,1.38v0h.15v0Zm.39,4.28v.14a.15.15,0,0,0,.12-.12Zm.45-7.67v.06l.06.06h0Q38.91,15.78,38.86,15.78Zm0,4.35h0v.07h0Zm.12.13h0v.06h0Zm.09-.93v.05l.06-.05Zm0,.8h0v.07h0Zm0,3.29v0h.06v0Zm.09-5.24,0,0v.13l-.06.05,0,0v0l0,0,0,0v0Zm-.06.27h.06v.16h-.06Zm0,1v.07l.06-.07Zm.09,3.64v.06h0v-.06Zm.12-6.88,0,0v0l0,0h.06l0-.09Zm.09-.12v0l.21,0v-.06Zm.33,0v0q.18,0,.18.06l0,0,.12,0,.09,0v-.06L40,16h-.16ZM40,20.44v.24l0,0h0l0-.21Zm0,1.32v.18h.05v-.18Zm.14.12v.3h0c0-.16,0-.26.07-.3v-.06Zm.1.57h0v-.06Zm0,0v.12h0v-.12Zm0-5.35v.06h0v-.06Zm.19,0v.06h0v-.06Z"/><path class="cls-1" d="M40.13,21.77l.06.06-.08.06-.06-.06Zm.39-.83,0,0v0c0,.05-.07.09-.2.11l0,0v0A.37.37,0,0,1,40.52,20.94Zm.21-3.06h.09l-.06.06,0,0Zm4.15-2.57h.21a3.94,3.94,0,0,1,2.81,1.12l0,0h0l0,0h0l0,0v0l0,0v0l0,0h.06v0l0,0v0l.06.06,0,0h.09s0,.06-.09.06a2.34,2.34,0,0,1,.41.56l.19-.06,0,.06-.11.06v.06l.2.56v0h-.17v0l.14,0,0,0h0l.09.21v.06l0,0v0c.08,0,.15.35.21,1v.09l-.12,1h.06v.06q-.12,0-.15.3a4.19,4.19,0,0,1-2,2.37,4.9,4.9,0,0,1-1.92.48v.06H45v-.06a4.18,4.18,0,0,1-3.71-2.11v-.06a.08.08,0,0,1,.09.09q.12,0,.12-.09s-.06,0-.06-.12h-.06v.06h-.12a2.42,2.42,0,0,1-.41-1.09l0,0h0s.1.06.29.06l.45.47h0l0,0v-.18h.18q.09,0,.09.12l0,0h0l.06-.15v-.12c0-.1,0-.16-.09-.17s-.14.06-.14.2l-.1.06h-.11l0,0h0l0,0v-.06c-.06,0-.09,0-.09-.11s0-.06-.12-.06l0,0v-.1h.06v.07a.3.3,0,0,0,.15-.24l-.3-.36q0,.15-.12.15v.06l.09,0-.09.12h0c0-.08,0-.12-.08-.12l-.18,0v0a.11.11,0,0,1,.12.12l0,0h0q-.1,0-.15-.36v-.18a4,4,0,0,1,1.45-3.25h.06c0,.07,0,.11.06.11l0,0,0,0v-.15A4,4,0,0,1,44.88,15.31ZM41,18.24v0h.17v0Zm.11,1.81v.08l-.06-.05,0,0Zm.33.8v0h.09v0Zm0-2.67v.06l0,.15.18-.12.12,0h0v-.06h-.21s-.06,0-.06-.12h0ZM41.71,21l0,0v.05c0,.13,0,.19.09.19h0v0l0-.13,0-.08h0l0,0Zm0,.3v0h.06v0ZM42,21a1.6,1.6,0,0,0-.23.44v.06h.12v-.15a.52.52,0,0,0,.17-.3Zm-.2-1.75v.23h0l0-.23Zm0,.71c0,.14.05.2.09.2L42,20,42,19.9ZM42,21.35v.06h0v-.06Zm0-2.87v.06h.06v-.06Zm.06.17v.06a.3.3,0,0,1,.09.18h.06l.09-.09v-.05a.33.33,0,0,1-.18-.1Zm.21,1s-.06.11-.18.21l0,.21,0,0h0l0,0v0l0,0q.18-.07.18-.21l0,0,.06-.06v-.06Zm-.18,1.9,0,.12,0,.12,0,0h.06l0-.18,0-.09Zm0-.77,0,0v.06l.06.06h0l0-.15Zm0-2.91.06.06h0l-.06-.06Zm.09,1.4v0l.06.06h0Zm0,1.07v0h.06v0Zm0,.5v0l.06.06h.06v-.09l-.06-.06Zm.06-.83.06.06,0,0,0-.09Zm.06-.65.09.06h0l.06-.06v-.06l-.06-.06h0S42.39,19.32,42.36,19.4Zm.15,2.28-.06.09.06.06h0l.06-.06v-.06Zm.14-9v0c-.06.16-.11.24-.14.24l0,0v0s.06-.07.09-.21Zm0,2.7,0,0v0l0,0h0l0,0v0l0,0Zm0,3.77h0v-.06Zm.11.94,0,0v0h.09ZM43,14.71l0,0,0,.09H43v-.06Zm0,4.63,0,0v0c-.06,0-.09.07-.09.17H43l.21-.29v0A.32.32,0,0,1,43,19.34Zm0,2.49v0h.15v0Zm.09-9.61,0,0v0l0,0h0l0,0v0l0,0ZM43,17.8v0c0,.11,0,.17.09.17v-.06l0-.14Zm0,2.72v.15q.18,0,.18-.09v0l-.15,0Zm.06-4.45v.06h0v-.06Zm.06-.05v0l.06.06h.09S43.23,16,43.13,16Zm0,2.9v0h.06v0Zm0-.44.09.08h0l-.09-.08Zm.06-2.61,0,.12.12-.12Zm0,4.71v.06h.06v-.06Zm0-.65v0l.06.06,0,0v0l0,0Zm.18-3v0s0,.07.14.08S43.55,17,43.46,16.91Zm.08,1v0h.15l-.06-.05Zm.12,3.59v0l.06.06v-.09Zm0,.21v0h.07v0Zm0-1.1v0h.07l.23-.06v0H44Zm.07-4.06.05.06h0l-.06-.06Zm.2,2.64,0,.09h0l.06-.06,0,0Zm0,.5v.06H44v-.06Zm0,2v.06h.18q.22,0,.24-.09v0h-.12Zm0-6.05h0l.09-.09v0Zm0,4v0h.06v0Zm0,.48v.05h0v-.05Zm.12,3.14h.06q.21,0,.24-.09h-.06Q44.13,23.13,44.11,23.22Zm0-5.69v0h.09v0Zm0,5.34v0h0l.15,0v0h-.09Zm0-3.12v0h.06v0Zm.12-2.11h-.06v.06h.15l.5.07.06-.1-.18-.05Zm0-3.19h.09v0l-.06.06h0Zm0,1.27v.06l.15,0h.14v0Zm0,4.8v0h.09v0Zm.12-6.67,0,0v0l0,0h0l0,0v0l0,0Zm0,2.82v0h.05v0Zm.11-2.25,0,0v0l0,0h0l0,0v0l0,0Zm-.06,4.79v.1h.09Zm.09-.05v.05l.06-.05Zm0,1.33v.06l.06-.06Zm0,6.2h.06v0h-.06Zm0,.45h.06v.08h-.06Zm.09-13.32h.06v0h-.06Zm0,13.11.09.05,0,.1h-.06Zm0-10.59v.06h.09a.53.53,0,0,1,.3.09l.11,0V16.4l-.14,0h-.3l0,0Zm.06-.5a.37.37,0,0,0,.33.15l.06-.06q0-.09-.18-.09Zm0,3.62v.05h.06v-.05ZM45,27.22l.06.06-.15.12h-.06v0Zm-.12-8.09s0,.06.12.08v0l-.06-.06ZM45,15.57v.06h.14v0Zm.21,2.91v0l.06,0h.06l-.09-.08ZM45.44,21V21h.27l0-.15Zm.06.38v0h.06v0Zm.15,0v0h.21l.06-.06h-.06Zm.15-3.62v0l.15.07.11,0L46,17.7ZM46,13.05l0,0v0l0,0h-.06v0Zm.2,2.61v0h.07v0Zm.1,7v0h.14v0ZM46.42,21v0h.06v0Zm.15-3.39v0h.06v0Zm.09-2.75h0V15h0Zm.09-2.79,0,0v0l0,0h0l0,0v0l0,0Zm0,10.29v.06l.09,0v0Zm.06.36v0h.09v0Zm.12,1.8,0,0v0l0,0h0l0,0v0l0,0Zm0-8.59v0h0v0Zm.29,6.28v0h.12v-.06Zm.09-.92v0h.09v0Zm0-4.18v.06q0,.09.18.09h.11v0c0-.08-.11-.12-.26-.12Zm.06,2.2c0,.06.09.09.23.09h.07l.09-.09-.18-.06Zm0,2.16h.12l.09-.09h0Q47.4,21.44,47.4,21.5Zm.18-4.68.05.06h.1l.06-.06Zm.24-2.26v0l-.06.06,0,0v0l0,0Zm-.09,1.6h.06l-.06.06Zm.09,1.16.06.06H48v-.06ZM48,16.16H48v0H48Zm.12.13h0v.05h0Zm.09,2.1v0h.06v0Zm0-2h0v.06h0Zm.12.12h0v.06h0Zm0,.23h.06l-.06.07Zm0,4.22v0h.18v-.06h0Zm.09-4.33h0v.06h0Zm0,3.29v0h.06v0Zm0,.53v0h.06v0Zm.06-.62,0,0v0l.18,0v-.06h-.06Zm0-3.09h0v.07h0Zm0,.24h0v.06h0Zm0,2.29,0,0v0l0,0h.06l0-.09Zm.1-.12v0l.14,0,.09,0v0l-.14,0Zm0-2.52h0v.06h0Zm0,.24h0v.06h0Zm0,.23h0v.06h0Zm.14-.12,0,0v0h-.08Zm0,2.05v0h.06v0Zm.06-1.93h.06v.06h-.06Zm0,2.17v.06h0v-.06ZM49,22.51h0l.06.06,0,0H49Zm.27-.36,0,0v0l0,0h0l0,0v0l0,0Zm.09-6.49.06.06-.09.06,0,0v0Zm.09-.39,0,.07,0,0h-.08v0Zm.08,3.35,0,0v0l0,0h0l0,0v0l0,0Zm-.06,1.1h0l.06.06v0h-.09Zm1,1.63.36.12v.06h-.06l-.06-.06,0,0h0q-.21,0-.21-.09l0,0ZM51,18.24l.06.06,0,0h0l-.06-.06,0,0Zm0,2.67h.08L51,21l0,0Z"/><path class="cls-1" d="M48.87,16.08h0a5.22,5.22,0,0,1,.89.86l-.09.15q.09,0,.09.06v1.16l0,.1,0,.15V20l-.06.25.06.06v.37s0,.06-.09.06l0,0v.09l.12.15V22l0,.13,0,.12v.31a.37.37,0,0,1-.09.21v.06l0,0h.06v.73l-.06.06h-.8l-.06-.06V22l.06-.09-.06-.09V21a.9.9,0,0,1,.09-.52c-.06,0-.09,0-.09-.07V16.82s.1-.09.31-.16l0,0v-.18l-.28-.09v.09l-.06-.07V16.3l0,0,0,0v0l0,0,0,0ZM49,21.37v0l0,0v0l0,.09h0c.07,0,.1,0,.1.07h0v0l-.1-.21Zm0-3.54,0,0h.07a.2.2,0,0,0,.21-.13v0l-.06-.06A.25.25,0,0,0,49,17.83ZM49,21h.06l.07-.06v-.06Zm0-3.61v0h.1q.24-.06.24-.15h-.09Zm0,1.93.07.07.06-.07-.06-.06Zm0,2.39.07.06v-.06Zm.13-6.48v0l0,0h.39c.37,0,.58.08.65.24l.09.15s0,.06-.09.06v0a.29.29,0,0,1,.3.22s0,.06-.12.09l0,0v0h.12l.09-.06,1.5,2.11-.06.09q.21,0,.21.15a1.47,1.47,0,0,1,.31.49l-.09.19.09,0,.12,0q.12,0,.12.21h.06a.14.14,0,0,1,.16-.15.3.3,0,0,1,.09.18h0a.41.41,0,0,1,.22-.37h.05v0l-.05.06,0,.15v0s-.12.06-.21.19l-.18,0a1.45,1.45,0,0,0,.34.52l0,.12,0,0c.07,0,.21.14.39.4l0,0h0l-.49-.52,0-.09,0,0h-.06l-1.56-1.53.09-.09v0h-.09l-.09.06-.55-.55.09-.12v0l-.09,0-.09,0,0,0v.06l-.21-.24c-.07,0-.19-.13-.37-.4l0,0v0l0,0v0c-.05,0-.12-.11-.22-.31H50v.07l0,0v0l0,0h0l-.73-.73q.24,0,.24-.12v0l-.06-.06H49.3l-.15.12-.06-.09v-.58Zm-.09,4.43,0,.09s.07,0,.09-.15h-.06Zm.06-1.17h0l.09-.08h0Zm0,.13h.06v-.06Zm0,1.35.06,0h.06v0l0-.09h0Zm0,1.31v.06h.06Zm.12-2.57.06.06h0l.09-.09,0,0h-.09Zm0,2.69v.06h0v-.06Zm0,1.25v.09h0v-.09Zm0-3v.12a.34.34,0,0,1,.22.06s0-.06.08-.06l0-.15.06-.06-.15,0a.17.17,0,0,0-.12.13Zm.12.85h.06v-.06Zm0,.28.06.06v-.06Zm0,1.1.07.09.11-.09-.06-.06h0Zm0-1.71.06.06v-.06Zm.09,1.19q0,.12-.09.12v.06l.09,0c0-.12.07-.18.16-.18v0Zm0-.46v.09h.06l0-.09ZM49.63,19v0l.1,0V19Zm0,2,0,0v0l0,0h0l0,0v0l0,0Zm0-3.69v0h.06v0Zm.24.21,0,0v0h-.09Zm-.06.24h.09v.06h-.09Zm0,.25h0V18h0Zm.15-.37,0,0v0l0,0h0l0,0v0l0,0Zm0,.21,0,0v0l0,0h0l0,0v0l0,0Zm0-.46h0v.07h0Zm0,.74h0v.06h0Zm.1-.61h0l.06.06,0,0h0l0,0Zm0,.21,0,0v0l-.06.06h0v-.06Zm0,.28h0V18h0Zm.13-.37.06.06,0,0h0l-.07-.06,0,0Zm0-.22h.06l-.06.07Zm0,.43h0l.06.07,0,0h-.06Zm.09-1.46,0,0v0c.1,0,.15-.05.15-.08v-.07H50.4Zm.06,1.13,0,0v0l0,0h0l0,0v0l0,0Zm0,.21.06.06-.06.06-.06-.06Zm0,.28h0V18h0Zm.12-.34h0l.06.06v.06h0l-.06-.06Zm.06.18,0,0v0l0,0h0l0,0v0l0,0Zm0,.28,0,0v0h-.09Zm-.06,1.47h.06v0h-.06Zm.15-.71.12.19q0,.21-.12.21h-.06l-.06-.06v0C50.52,18.94,50.56,18.83,50.61,18.83Zm-.06-2.41v.09l.13.06q.12,0,.12-.09v0h0l-.15,0Zm0,.76v.07h0l.07-.07v0Zm0-.43h.07V16.7Zm.1,1,2.81,2.75v0h0a.07.07,0,0,1-.07-.08l-.12.11v.07l.19,0,0-.13h0l.12.16-.09,0a.33.33,0,0,1,.06.21h0l.09-.06h0l.19.24v0h-.06v.09H54v-.06H54v.06s0,.06-.09.06v0l.12.12v0l0-.09,0,0h0a.65.65,0,0,1,.18.46h0q0-.18.09-.18l-.06-.16,0,0h.06a.35.35,0,0,1,.19.28l-.19.06v0l.28.37V21.8l.06-.06.86.88v1l-.15,0,0,0,0-.15v-.12h0l-.07.06v.06l0,.15,0,0h-.64l-1.32-1.8-.12,0,.07-.09a1.47,1.47,0,0,1-.34-.49l0,0h0l-.1-.15h0l-.06-.19h0l.13,0L53,21l.15-.1h0V21h.06l0,0v-.06h.07l0,0v0q.12,0,.12-.09l-.3-.09v0q0,.12-.06.12h-.12l-.15,0c0,.08,0,.12-.1.12l0,0h0l0,0,0,0,0-.09a.49.49,0,0,0-.12-.34l.06-.09,0-.09h0l0,0,.09,0v0s0-.06-.09-.06l-.15.09h-.1v-.09c.09,0,.13,0,.13-.06l-.16-.06,0,.06c-.2-.29-.33-.43-.4-.43s-.27-.11-.34-.33h0v-.07q.12,0,.12-.06l-.21-.3v0l.09-.12h0l-.15,0-.34-.49,0,0s-.07-.05-.09-.15h-.09v0l0,0,0-.09,0,0h-.1l.07-.06,0,0v-.05Zm-.1.92h.07l-.07.06Zm0-.52h0v.06h0Zm.37,1v.06l-.06.06-.06-.09,0,0Zm0,.58H51v.06H51Zm0-2.39v0H51v0Zm.06-.42V17h0v-.06Zm.19.67v.06h.08l-.05-.06Zm.15,0,0,.09h.09v-.09Zm.09,2.2h.06v.06l-.06.06-.06-.06Zm.09-.74h.06l.06-.05h-.06Zm0,.65h.06v0h-.06Zm.09.09h.13l-.07.06h-.06Zm.06-1.87.1.1v0l-.07-.07Zm.22-.21h0v.06h0Zm.33,3,.07.18,0,0h0l-.18-.12v0h.06l0,0h0C52.21,20.73,52.22,20.7,52.26,20.7Zm.07-.74V20h0V20Zm0-.21v.06l0,0h0l0,0h0l0,0v-.09h-.09Zm0,1.22h.06v0h-.06Zm.3-.7,0,0v.06l-.06.09,0,.15h0q0-.08.15-.24l-.15-.09Zm.46-2.66.06.06,0,0h-.09v0Zm0,2.78,0,.13h0l.06-.07v-.06Zm0-.95h.06v0h-.06Zm.13-1.53h.08V18l0,.06h-.07L53.21,18Zm-.1,3.4.13-.09,0-.1C53.24,21.14,53.21,21.21,53.21,21.31Zm0,1h0l.07.06v0l-.1,0Zm0,.12h.07v.06l-.07.06Zm0-4.68h.07v0h-.07Zm.1.74h0v0h0l0,0v.06h0l-.07-.06Zm0,1.13,0,0v0l0,0h0l0,0v0l0,0Zm-.07,2.32q.12,0,.12.09v0h0l-.1-.09Zm0-.52v.06l.06-.06Zm.06-2.17h.05l.07.06-.07.06-.05-.06Zm0-.52h.07v0h-.07Zm.16-.24.09.09v.06l-.06.06h-.12l0-.12Zm-.09,2.87,0,0h0v-.09Zm.06.34-.06.09v.09h.06s0-.06.12-.06v0h-.06Q53.58,21.65,53.52,21.65Zm.06-.58v.08l0,0h0v0l0-.08Zm.12-2.79,0,0v.07h-.09v0Zm0,3v0l.15-.13v0Zm.12-1.93.06.09,0,0h0l-.06-.06Zm.1-.7.06.06-.06.06Zm.39,3.3c-.06.2-.11.3-.15.31H54v.06h0l.09,0,.06.06.21-.25Q54.34,21.94,54.28,21.92Zm.06-3.48v0l-.24.31H54v-.09A.33.33,0,0,1,54.34,18.44Zm-.27,3.45V22h.06Zm.15-2.17.09.09.09,0,0,0v0l0,0h0l0,0h0l-.15.1-.06-.07v-.12Zm-.06-1.56h.06v0h-.06Zm.12,4.19v.06l.06-.06Zm0-4.19h.06v0h-.06Zm0,4.44v0h.06v0Zm.13-3.49.06.06-.06.06-.07-.06Zm-.07,3.06.07.06v-.06Zm.07-.16v0h.06v0Zm0,.37v0h.06v0Zm.15-1.1h.18l.07.06v0l-.1.09-.15-.15ZM55,15.22h.8l.06.07v1.07l-.06.09.06.09v1.8l0,.12,0,.13v.92s0,.06-.09.06l.09.12v.25h-.12v0c.08,0,.12,0,.12.07v1.65l0,.12,0,.12v.49h0c-.59-.51-.89-.82-.89-1V21.4l0-.09,0-.19v0l0-.13,0-.18,0,0h0l-.06-.06V20.7h0l.09.06v0l-.06-.21h.06v-.1l0-.12,0-.21v-.95L55,19v0a.37.37,0,0,0-.09-.22v-.09l0-.19,0-.15c.13,0,.19-.05.19-.09v0H55l0,0h0l0,0v-.15l0-.19,0-.15v-.06h0l0,0h0l.1,0,.18.06,0-.15-.06-.06h0l-.28.06,0,0v-.34l.06-.09-.06-.06V17h0l.13.09h.09L55.2,17v0c-.09-.08-.15-.15-.15-.22l0,0H55l-.06-.07v-.52c.19-.1.28-.17.28-.21l-.06-.27H55l0,0h0l-.06-.19v-.3Zm0,5.51v.06l.06-.06Zm.06.42,0,0v0l0,0h.07v0Zm0,2,0,.15v.12h0c0-.05,0-.12.13-.22l-.06-.05Zm0-7.68v.09h.1v0L55,15.5Zm0,4.71,0,0,.13.28.06-.07Q55.07,20.21,55,20.21Zm0,2.17v.06l.13,0,0,0v0l0,0Zm0,.3v.07l.07.06,0,0v-.16h0Zm0-4.09v0l.15,0v0l-.06-.07Zm.12.34a.32.32,0,0,0-.09.21l0,0h.06l.09-.21h0l0,0Zm-.06,1.95v.06h0v-.06Zm.09-2.05.06.06v-.06Zm0,1.38v0l.18.06h0v0l-.09-.09Zm0,.55v.06h.06l.06-.06V20.7Zm0,.61v.06l.09,0v0Zm0,1.74v.22l.09-.1v-.12Zm0,.25v.06h0v-.06Zm.12-.28h0l.07-.06v0Zm0-7.15h.07v-.06Zm.1,1.86v0s0,.07.15.08,0-.05.09-.05v0l-.06-.07h0Zm0,2.51,0,.15,0,.15h.1l0-.15v-.06Zm0,.67v0l0,.07h0Zm0-5.32v0l.13,0,.09,0-.06-.06Zm0,4v.06l.06-.06Zm.06-4.1v0h.07v0Zm0,3.49V19h0V19Zm0,2.9v0h.06v0Zm.06.24.06.07v-.13ZM56,18.62l0,0v0l0,0h0l0,0v0l0,0Zm.28-.49.06.06,0,0h0Z"/><path class="cls-1" d="M60.37,18.49a.9.9,0,1,1-.89-.89A.89.89,0,0,1,60.37,18.49Z"/><path class="cls-1" d="M60.45,23.68a1,1,0,1,1-1-1A1,1,0,0,1,60.45,23.68Z"/><path class="cls-1" d="M60.52,28.88a1,1,0,1,1-1-1.05A1,1,0,0,1,60.52,28.88Z"/><path class="cls-1" d="M65.13,18.49a.9.9,0,1,1-.89-.89A.89.89,0,0,1,65.13,18.49Z"/><path class="cls-1" d="M65.2,23.68a1,1,0,1,1-1-1A1,1,0,0,1,65.2,23.68Z"/><path class="cls-1" d="M65.28,28.88a1,1,0,1,1-1-1.05A1,1,0,0,1,65.28,28.88Z"/><path class="cls-1" d="M69.74,8.11A.75.75,0,1,1,69,7.36.75.75,0,0,1,69.74,8.11Z"/><path class="cls-1" d="M69.82,13.3a.83.83,0,1,1-.83-.82A.83.83,0,0,1,69.82,13.3Z"/><path class="cls-1" d="M69.89,18.49a.9.9,0,1,1-.9-.89A.9.9,0,0,1,69.89,18.49Z"/><path class="cls-1" d="M70,23.68a1,1,0,0,1-1.94,0,1,1,0,1,1,1.94,0Z"/><path class="cls-1" d="M74.5,8.11a.75.75,0,1,1-.75-.75A.76.76,0,0,1,74.5,8.11Z"/><path class="cls-1" d="M74.57,13.3a.82.82,0,1,1-.82-.82A.82.82,0,0,1,74.57,13.3Z"/><path class="cls-1" d="M74.65,18.49a.9.9,0,1,1-.9-.89A.9.9,0,0,1,74.65,18.49Z"/><path class="cls-1" d="M74.72,23.68a1,1,0,1,1-1.94,0,1,1,0,0,1,1.94,0Z"/><rect class="cls-2" x="67.79" y="6.5" width="7.41" height="19"/><rect class="cls-2" x="58.5" y="17.5" width="10" height="8"/><rect class="cls-2" x="58.5" y="25" width="8" height="5"/><rect class="cls-2" x="25" y="27" width="37" height="3"/></svg>