<svg id="Layer_1" data-name="Layer 1" xmlns="http://www.w3.org/2000/svg" viewBox="0 0 50 41"><defs><style>.cls-1{fill:#00aeef;}</style></defs><path class="cls-1" d="M44.56,10.47c0,.44,0,.87,0,1.31,0,13.35-10.15,28.72-28.72,28.72A28.59,28.59,0,0,1,.37,36a21.91,21.91,0,0,0,2.44.12,20.2,20.2,0,0,0,12.53-4.31,10.1,10.1,0,0,1-9.43-7,11.88,11.88,0,0,0,1.9.16,10.66,10.66,0,0,0,2.66-.35,10.09,10.09,0,0,1-8.1-9.9v-.13a10.17,10.17,0,0,0,4.57,1.28A10.12,10.12,0,0,1,3.81,2.34,28.7,28.7,0,0,0,24.62,12.91a11.86,11.86,0,0,1-.25-2.32,10.1,10.1,0,0,1,17.47-6.9,19.9,19.9,0,0,0,6.41-2.44,10.05,10.05,0,0,1-4.44,5.56,20.29,20.29,0,0,0,5.81-1.56,21.62,21.62,0,0,1-5.06,5.22Z"/></svg>