<svg id="Layer_1" data-name="Layer 1" xmlns="http://www.w3.org/2000/svg" viewBox="0 0 65 41"><defs><style>.cls-1{fill:#00aeef;}</style></defs><path class="cls-1" d="M26.3,18.42c3.52-1.68,5.36-4.23,5.36-8.19C31.66,2.41,25.83.5,19.11.5H.6V39.76h19c7.13,0,13.83-3.43,13.83-11.4,0-4.93-2.33-8.57-7.16-9.94ZM9.23,7.2h8.09c3.12,0,5.92.88,5.92,4.49,0,3.33-2.18,4.67-5.26,4.67H9.23Zm9.22,25.89H9.23V22.28h9.4c3.8,0,6.2,1.58,6.2,5.6S22,33.09,18.45,33.09ZM58.17,6.43H42.25V2.56H58.17V6.43ZM64.4,26c0-8.41-4.92-15.42-13.83-15.42-8.67,0-14.55,6.51-14.55,15,0,8.85,5.57,14.92,14.55,14.92,6.79,0,11.19-3.06,13.3-9.56H57c-.74,2.43-3.8,3.71-6.17,3.71-4.57,0-7-2.68-7-7.23H64.34C64.37,27,64.4,26.45,64.4,26ZM43.84,22.5a6.11,6.11,0,0,1,6.48-6.07c3.92,0,5.9,2.3,6.23,6.07Z"/></svg>