<svg id="Layer_1" data-name="Layer 1" xmlns="http://www.w3.org/2000/svg" viewBox="0 0 42 41"><defs><style>.cls-1{fill:#00aeef;}</style></defs><path class="cls-1" d="M14.21,32.71c0,.16-.19.3-.43.3s-.46-.11-.46-.3.19-.3.43-.3S14.21,32.52,14.21,32.71Zm-2.57-.37c-.06.16.1.35.35.4s.47,0,.52-.16-.11-.36-.36-.43a.41.41,0,0,0-.51.19Zm3.65-.14c-.24,0-.4.21-.38.4s.24.27.49.22.41-.22.38-.39S15.53,32.17,15.29,32.2ZM20.74.5A19.83,19.83,0,0,0,.49,20.68a20.75,20.75,0,0,0,14,19.79c1.06.19,1.43-.47,1.43-1s0-3.35,0-5.08c0,0-5.79,1.24-7-2.47,0,0-1-2.4-2.3-3,0,0-1.9-1.29.13-1.27a4.37,4.37,0,0,1,3.19,2.14C11.74,33,14.78,32,16,31.48a4.54,4.54,0,0,1,1.33-2.78C12.66,28.18,8,27.51,8,19.56A6.26,6.26,0,0,1,10,14.69a7.81,7.81,0,0,1,.21-5.62c1.73-.54,5.71,2.23,5.71,2.23a19.63,19.63,0,0,1,10.39,0s4-2.78,5.71-2.23a7.8,7.8,0,0,1,.21,5.62,6.4,6.4,0,0,1,2.14,4.87c0,8-4.88,8.62-9.5,9.14a4.88,4.88,0,0,1,1.41,3.83c0,2.79,0,6.24,0,6.92s.38,1.19,1.43,1A20.56,20.56,0,0,0,41.51,20.68C41.51,9.21,32.21.5,20.74.5ZM8.53,29c-.11.08-.09.27.05.43s.33.19.44.08.08-.27-.06-.43S8.63,28.92,8.53,29Zm-.9-.67c0,.1,0,.24.19.32a.25.25,0,0,0,.36-.06c.06-.11,0-.24-.19-.32S7.69,28.27,7.63,28.36Zm2.68,2.94c-.13.11-.08.36.11.51s.43.22.54.09.06-.36-.11-.52S10.42,31.17,10.31,31.3Zm-.94-1.21c-.13.08-.13.29,0,.48s.36.28.46.19.14-.32,0-.51-.33-.27-.46-.16Z"/></svg>